<?xml version="1.0" standalone="no"?>
<!DOCTYPE svg PUBLIC "-//W3C//DTD SVG 1.1//EN" "http://www.w3.org/Graphics/SVG/1.1/DTD/svg11.dtd" >
<svg>
<metadata>
Created by FontForge 20090914 at Thu Apr 15 06:19:36 2021
 By www-data
Copyright (c) 2018 by Khurasan. All rights reserved.
</metadata>
<defs>
<font id="Tahu!" horiz-adv-x="367" >
  <font-face 
    font-family="Tahu!"
    font-weight="400"
    font-stretch="normal"
    units-per-em="1000"
    panose-1="0 0 0 0 0 0 0 0 0 0"
    ascent="800"
    descent="-200"
    x-height="296.499"
    cap-height="730.499"
    bbox="-344.388 -524.818 1037.29 919.16"
    underline-thickness="50"
    underline-position="-50"
    unicode-range="U+000D-U+FB00"
  />
<missing-glyph horiz-adv-x="200" 
 />
    <glyph glyph-name="ll" unicode="ll" horiz-adv-x="533" 
d="M285 -108c3.33301 -6.66699 6.33398 -8.66504 9.00098 -5.99805s6.66699 5.66699 12 9c18 16 37.833 36.667 59.5 62s43 51.666 64 78.999s40.667 54.166 59 80.499l44.5 65.5c1.33301 2.66699 3.33301 5.5 6 8.5s5 5.83301 7 8.5c5.33301 5.33301 9.5 6 12.5 2
s3.5 -9 1.5 -15c-10 -16.667 -22.833 -40.667 -38.5 -72s-33.334 -64.333 -53.001 -99s-40.667 -68.334 -63 -101.001s-44.5 -59 -66.5 -79c-16 -14.667 -33.333 -23 -52 -25c-17.333 0.666992 -33.666 6.16699 -48.999 16.5s-24.333 24.166 -27 41.499
c-4 40.667 -3.33301 81.667 2 123c6 50 17.667 106 35 168s37.666 124.667 60.999 188l-57.5 -126l-61 -132c-19.667 -42 -38 -78.667 -55 -110s-30.167 -51.333 -39.5 -60c-16 -14.667 -33.333 -23 -52 -25c-17.333 0.666992 -33.666 6.16699 -48.999 16.5
s-24.333 24.166 -27 41.499c-4 40.667 -3.33301 81.667 2 123c6 48 16.833 100.833 32.5 158.5s34.334 115.834 56.001 174.501s45.167 115.334 70.5 170.001s50.333 102.667 75 144l34 51.5c11.333 16.333 23.333 31.5 36 45.5c4.66699 6 10.5 10.333 17.5 13
s14.167 2.33398 21.5 -0.999023c14.667 -6.66699 21 -19 19 -37c-4.66699 -39.333 -14 -81 -28 -125s-30.833 -87.333 -50.5 -130s-41 -83.167 -64 -121.5s-46.167 -71.833 -69.5 -100.5c-2 -2 -3.5 -4.33301 -4.5 -7s-2.16699 -5.33398 -3.5 -8.00098
c-10 -26.667 -19.833 -56 -29.5 -88s-18 -63.167 -25 -93.5s-12 -58.5 -15 -84.5s-3.16699 -46 -0.5 -60c3.33301 -6.66699 7.83301 -10.167 13.5 -10.5s11.167 1.16699 16.5 4.5c11.333 10 25.5 28.5 42.5 55.5s35.167 58.667 54.5 95l60.5 116.5l61 120l54.5 105
c16.667 31.333 30.667 55.333 42 72l33.5 66.5c11 21 21.833 40.5 32.5 58.5l34 51.5c11.333 16.333 23.333 31.5 36 45.5c4.66699 6 10.5 10.333 17.5 13s14.167 2.33398 21.5 -0.999023c14.667 -6.66699 21 -19 19 -37c-4.66699 -39.333 -12.834 -77.666 -24.501 -114.999
s-25.834 -73.333 -42.501 -108s-35.334 -68 -56.001 -100s-42.667 -62.333 -66 -91c-2 -2 -3.5 -4.33301 -4.5 -7s-2.16699 -5.33398 -3.5 -8.00098c-6.66699 -18 -14 -39.167 -22 -63.5s-16 -50.166 -24 -77.499s-15.5 -54.833 -22.5 -82.5s-13.167 -53.834 -18.5 -78.501
s-9.16602 -46.5 -11.499 -65.5s-2.5 -33.167 -0.5 -42.5zM311.001 747.002c-14 -24 -28.667 -51.666 -44 -82.999s-30.166 -63.5 -44.499 -96.5l-42 -97.5l-37.5 -86c6 6 14 17.667 24 35s20.833 37.666 32.5 60.999l36 75c12.333 26.667 23.666 52.334 33.999 77.001
s19.333 47.167 27 67.5s12.5 36.166 14.5 47.499zM560.001 684.003c-28.667 -48 -54.334 -97.332 -77.001 -147.999l-68 -152c6 6 13.5 16.167 22.5 30.5s18.5 30.666 28.5 48.999s20 38.166 30 59.499l28 62c8.66699 20 16.334 38.833 23.001 56.5s11 31.834 13 42.501z
" />
    <glyph glyph-name="ff" unicode="ff" horiz-adv-x="472" 
d="M302 235c8 -10 19.6641 -18.002 34.9971 -24.002s32.333 -10.167 51 -12.5s38 -3.5 58 -3.5s38.333 0.666992 55 2c6.66699 0 9.66699 -1.5 9 -4.5s-1.66699 -4.83301 -3 -5.5c-15.333 -8 -31.333 -14.833 -48 -20.5s-33.5 -9.33398 -50.5 -11.001
s-33.5 -0.666992 -49.5 3s-31 10.5 -45 20.5c5.33301 -18.667 9.83301 -40.167 13.5 -64.5s6.33398 -49.666 8.00098 -75.999s1.66699 -52.5 0 -78.5s-5.66699 -49.667 -12 -71s-15 -39.666 -26 -54.999s-25.167 -25 -42.5 -29c-11.333 -0.666992 -22.166 0 -32.499 2
s-18.5 8.66699 -24.5 20c-5.33301 10 -9.5 22.333 -12.5 37s-5.16699 30.667 -6.5 48c-2 24.667 -2.5 48.834 -1.5 72.501s3.16699 47.334 6.5 71.001s7.5 47.667 12.5 72l15.5 77.5c-10 -0.666992 -19.333 -1.83398 -28 -3.50098s-17.167 -4.66699 -25.5 -9
s-17.5 -10.333 -27.5 -18s-21.333 -17.834 -34 -30.501c3.33301 -18 6.33301 -39.333 9 -64s4 -50.334 4 -77.001s-1.33301 -53.167 -4 -79.5s-7 -50.666 -13 -72.999s-14 -41.333 -24 -57s-22.333 -25.834 -37 -30.501c-11.333 -0.666992 -22.166 0 -32.499 2
s-18.5 8.66699 -24.5 20c-15.333 30 -22.833 60.333 -22.5 91s1.83301 61 4.5 91c8 56 19.167 112.667 33.5 170s31.166 113.166 50.499 167.499s40.833 105.833 64.5 154.5s49.167 92.667 76.5 132c6 7.33301 12.667 13.833 20 19.5s16 7.83398 26 6.50098
c9.33301 0 16.5 -3.5 21.5 -10.5s5.83301 -14.833 2.5 -23.5v-16c0 -17.333 -0.5 -35.333 -1.5 -54s-4.16699 -37 -9.5 -55c-8 -29.333 -17 -55.666 -27 -78.999s-21 -45.166 -33 -65.499s-25 -40.5 -39 -60.5l-44 -63c17.333 12 32.333 21 45 27s23.667 10 33 12
s17.333 2.83301 24 2.5s12.667 -0.5 18 -0.5c19.333 89.333 46.333 174.333 81 255s74 153.334 118 218.001c6 7.33301 12.667 13.833 20 19.5s16 7.83398 26 6.50098c4.66699 0 9.16699 -1.5 13.5 -4.5s8 -6.83301 11 -11.5s5 -9.66699 6 -15s0.833008 -10 -0.5 -14l-3 -4
c-0.666992 -10.667 -1.66699 -21.334 -3 -32.001s-4 -21.334 -8 -32.001c-4 -11.333 -9.5 -25.833 -16.5 -43.5s-15.167 -36.667 -24.5 -57l-29.5 -63.5c-10.333 -22 -20.666 -42.833 -30.999 -62.5s-20.166 -37.334 -29.499 -53.001s-17.666 -27.5 -24.999 -35.5
c-4.66699 -14 -7.83398 -22.833 -9.50098 -26.5s-2.83398 -6.16699 -3.50098 -7.5s-1.5 -3.66602 -2.5 -6.99902s-2.83301 -12 -5.5 -26zM294.997 -41.002c3.33301 22.667 5.16602 45.332 5.49902 67.999s-0.166992 43.667 -1.5 63s-3.33301 36 -6 50s-5.66699 23.333 -9 28
c-3.33301 -16 -6.66602 -31.167 -9.99902 -45.5s-6.5 -29.5 -9.5 -45.5s-5.5 -33.167 -7.5 -51.5s-3 -38.833 -3 -61.5c0 -14 1.5 -26.333 4.5 -37s6.66699 -17.5 11 -20.5s8.83301 -0.666992 13.5 7s8.66699 22.834 12 45.501zM94.9971 225.996
c16.667 20 32.668 43.499 48.001 70.499s29.166 55 41.499 84s22.833 57.833 31.5 86.5s15 55.334 19 80.001c-12 -15.333 -25.167 -38 -39.5 -68s-28.166 -61.333 -41.499 -94s-25.333 -63.667 -36 -93s-18.334 -51.333 -23.001 -66zM23.998 -125.005
c6 -2 11.501 1.49805 16.501 10.498s9.16699 21.167 12.5 36.5s5.83301 32.5 7.5 51.5s2.66699 37.333 3 55s-0.333984 33.334 -2.00098 47.001s-4.16699 22.834 -7.5 27.501l-21.5 -112.5c-7 -37 -9.83301 -75.5 -8.5 -115.5zM469.999 659.993
c-11.333 -17.333 -23.666 -40.6689 -36.999 -70.002l-40.5 -92l-38 -92.5c-11.667 -29.667 -20.834 -53.834 -27.501 -72.501c8 12 17 27.333 27 46s20.167 38.834 30.5 60.501s20.333 44 30 67l27 65.5c8.33301 20.667 15.5 39.334 21.5 56.001s10.333 29.334 13 38.001z
" />
    <glyph glyph-name="ee" unicode="ee" horiz-adv-x="549" 
d="M-27 89c-1.33301 25.333 1.33105 51.6631 7.99805 78.9961s16.667 52.5 30 75.5s30.166 41.833 50.499 56.5s44.166 22.334 71.499 23.001c14 -3.33301 24.833 -10.333 32.5 -21s9.83398 -23.667 6.50098 -39c-2.66699 -14.667 -6.5 -27.167 -11.5 -37.5
s-13.5 -21.166 -25.5 -32.499c-6 -5.33301 -14.333 -12.333 -25 -21s-21 -17.667 -31 -27s-18.667 -18.833 -26 -28.5s-11 -17.834 -11 -24.501c-2 -16 0.5 -26.667 7.5 -32s16 -6.83301 27 -4.5s23.5 7.66602 37.5 15.999s27.5 18 40.5 29s24.667 22.667 35 35
s17.166 23.833 20.499 34.5c10 25.333 21.667 49.333 35 72s28.333 42.167 45 58.5s35.334 28.5 56.001 36.5s43.667 10.333 69 7c14.667 -8 24.5 -19.667 29.5 -35s3.5 -32 -4.5 -50c-10.667 -16 -20.667 -28.333 -30 -37s-19 -16 -29 -22s-20.833 -11.667 -32.5 -17
s-25.167 -12.333 -40.5 -21c-9.33301 -5.33301 -16.666 -14.666 -21.999 -27.999s-8 -27 -8 -41s3 -26.667 9 -38s16 -17.666 30 -18.999c24.667 -3.33301 50.167 0.833984 76.5 12.501s51.5 25.667 75.5 42s45.833 32.666 65.5 48.999s35.5 27.833 47.5 34.5
c6.66699 0.666992 9.33398 -2 8.00098 -8s-5.66602 -13.667 -12.999 -23c-12 -17.333 -29.167 -35.666 -51.5 -54.999s-47 -36.833 -74 -52.5s-54.667 -28 -83 -37s-54.833 -11.5 -79.5 -7.5c-30 6.66699 -53.333 18.834 -70 36.501s-23.667 42.5 -21 74.5
c-11.333 -12 -21.666 -23.5 -30.999 -34.5s-19 -20.833 -29 -29.5s-20.833 -16 -32.5 -22s-24.834 -10 -39.501 -12c-28.667 -1.33301 -50.5 4.5 -65.5 17.5s-24.167 35.5 -27.5 67.5zM403.997 287.997c-19.333 -6 -38.168 -15.501 -56.501 -28.501
s-34.166 -29.5 -47.499 -49.5c16.667 6.66699 31.167 13.834 43.5 21.501s22.5 15.167 30.5 22.5s14.5 14 19.5 20s8.5 10.667 10.5 14zM132.995 276.996c-18 -6.66699 -32.168 -15.332 -42.501 -25.999s-17.833 -26.334 -22.5 -47.001
c14.667 10.667 27.834 21.5 39.501 32.5s20.167 24.5 25.5 40.5z" />
    <glyph glyph-name="ss" unicode="ss" horiz-adv-x="565" 
d="M458 277c-0.666992 -6.66699 -2.3291 -11.998 -4.99609 -15.998s-7.66699 -3.66699 -15 1c-8.66699 6 -15 14 -19 24s-7 20.333 -9 31l-2 7c-5.33301 1.33301 -12.166 -0.666992 -20.499 -6s-15.833 -12.666 -22.5 -21.999s-11.334 -19.833 -14.001 -31.5
s-1 -23.167 5 -34.5c2.66699 -4 6.5 -8.83301 11.5 -14.5l15 -17.5l15 -17.5c5 -5.66699 9.16699 -10.167 12.5 -13.5c4 -4 6.66699 -6.16699 8 -6.5s4.66602 0.5 9.99902 2.5l26.5 11.5c11.667 5 24.167 9.83301 37.5 14.5s26.5 9 39.5 13s24.167 6.66699 33.5 8
c2.66699 0.666992 6.33398 1 11.001 1s8 -1.66699 10 -5c2 -2 1.66699 -4.66699 -1 -8s-6.16699 -6.66602 -10.5 -9.99902s-8.83301 -6.33301 -13.5 -9s-7.66699 -4.33398 -9 -5.00098c-11.333 -6.66699 -25.666 -14.167 -42.999 -22.5s-32.333 -16.5 -45 -24.5
c-1.33301 -1.33301 -3.83301 -2.66602 -7.5 -3.99902s-6.5 -2.66602 -8.5 -3.99902c16 -17.333 25.667 -38.5 29 -63.5s1.66602 -51.167 -5.00098 -78.5s-17.5 -54.5 -32.5 -81.5s-32.5 -51.333 -52.5 -73s-41.667 -39.167 -65 -52.5s-47 -20 -71 -20
c-9.33301 0 -18.333 1.16699 -27 3.5s-16 7.16602 -22 14.499c-15.333 16.667 -25.5 35.167 -30.5 55.5s-4.83301 40.166 0.5 59.499c8.66699 30.667 20.167 58 34.5 82s29.666 45.167 45.999 63.5s33 34.666 50 48.999l45.5 38.5l-28 37.5
c-9.33301 13 -16.666 26.167 -21.999 39.5c-5.33301 -2.66699 -8.33301 -4 -9 -4l-24.5 -13l-33 -17l-33.5 -17.5c-10.667 -5.66699 -19 -10.5 -25 -14.5c-1.33301 -1.33301 -3.83301 -2.66602 -7.5 -3.99902s-6.5 -2.66602 -8.5 -3.99902c8 -18 13.667 -33.5 17 -46.5
s4.5 -25.5 3.5 -37.5s-3.5 -24.167 -7.5 -36.5s-9.33301 -26.5 -16 -42.5c-9.33301 -15.333 -18.833 -30 -28.5 -44s-20.5 -26.667 -32.5 -38s-25 -20.333 -39 -27s-29.333 -10 -46 -10c-9.33301 0 -18.333 1.16699 -27 3.5s-16 7.16602 -22 14.499
c-15.333 16.667 -24 34.834 -26 54.501s-0.333008 39.167 5 58.5c4 12 9 23 15 33c14.667 25.333 30.834 46.833 48.501 64.5s36.167 34.5 55.5 50.5l-39.5 57c-13 19.333 -19.5 40.666 -19.5 63.999c0 12.667 3.16699 27 9.5 43s14.166 31.5 23.499 46.5
s19.5 28.833 30.5 41.5s21.5 22.667 31.5 30c8 5.33301 16.167 9.66602 24.5 12.999s17.166 3 26.499 -1c4 -2 8.16699 -3.5 12.5 -4.5s8.16602 -2.16699 11.499 -3.5s7 -3.33301 11 -6s6 -6.33398 6 -11.001c0 -18.667 0.5 -33.834 1.5 -45.501s2.5 -21.667 4.5 -30
s4 -15.666 6 -21.999s4 -13.166 6 -20.499c1.33301 -6.66699 1 -12.334 -1 -17.001s-7 -5.33398 -15 -2.00098c-14.667 5.33301 -25.5 16 -32.5 32s-12.167 30.667 -15.5 44c-0.666992 2.66699 -2.33398 7.33398 -5.00098 14.001s-4.33398 11.334 -5.00098 14.001
c-5.33301 1.33301 -12.666 -2.16699 -21.999 -10.5s-18.166 -18.833 -26.499 -31.5s-14.5 -26.334 -18.5 -41.001s-3 -27.667 3 -39c2.66699 -4 6.5 -8.83301 11.5 -14.5l15 -17.5l15 -17.5c5 -5.66699 9.16699 -10.167 12.5 -13.5c4 -4 6.66699 -6.16699 8 -6.5
s4.66602 0.5 9.99902 2.5c5.33301 2.66699 14.333 6.66699 27 12l41.5 17l45.5 17.5c15.333 5.66699 28.333 9.83398 39 12.501c-0.666992 3.33301 -1 8.33301 -1 15c0 26 7.5 50.5 22.5 73.5s32.167 41.5 51.5 55.5c8 5.33301 16.167 9.66602 24.5 12.999
s17.166 3 26.499 -1c4 -2 8.16699 -3.5 12.5 -4.5s8.16602 -2.16699 11.499 -3.5s7 -3.33301 11 -6s6 -6.33398 6 -11.001v-24.5c0 -7 0.333008 -13.5 1 -19.5h-1c0.666992 -6 1.33398 -11.5 2.00098 -16.5s1 -10.167 1 -15.5zM379.005 74.002
c-6.66699 -4 -15.334 -10.5 -26.001 -19.5s-22.167 -19.833 -34.5 -32.5s-24.833 -26.834 -37.5 -42.501s-24 -32.5 -34 -50.5s-17.833 -36.667 -23.5 -56s-7.83398 -38.666 -6.50098 -57.999c13.333 -4 27.833 -1.66699 43.5 7s31 21.167 46 37.5s29 35 42 56
s23.333 41.833 31 62.5s11.834 39.667 12.501 57s-3.66602 30.333 -12.999 39zM91.0049 71.002l-30 -31.5c-12.667 -13.667 -24.5 -28.5 -35.5 -44.5s-20 -31.833 -27 -47.5s-8.83301 -29.167 -5.5 -40.5c13.333 6 27 15.833 41 29.5s26.333 28.667 37 45
s18.167 32.5 22.5 48.5s3.5 29.667 -2.5 41z" />
    <glyph glyph-name="tt" unicode="tt" horiz-adv-x="587" 
d="M335 -146c4 -12.667 12.334 -14.8369 25.001 -6.50391s27.334 22.666 44.001 42.999s34.334 44.5 53.001 72.5l53 82l43.5 71c12.333 20.667 20.5 33.667 24.5 39l9 12c5.33301 6.66699 11.666 12.667 18.999 18c2.66699 2 5.83398 4.16699 9.50098 6.5
s6.83398 3.33301 9.50098 3s3.83398 -2.5 3.50098 -6.5s-2.83301 -10.667 -7.5 -20l-21 -42c-10 -20 -22 -42.833 -36 -68.5s-29.833 -52.667 -47.5 -81s-36.167 -54.833 -55.5 -79.5s-38.833 -46 -58.5 -64s-38.834 -29.667 -57.501 -35c-8 -2 -15.167 -2.33301 -21.5 -1
s-12 4 -17 8s-9.83301 8.66699 -14.5 14l-14 16c-6 7.33301 -9.83301 18.833 -11.5 34.5s-2 32.5 -1 50.5s3.16699 35.667 6.5 53s6.66602 31.333 9.99902 42s6.83301 23 10.5 37l11.5 45l12.5 49.5l12.5 50.5l-62 -97c-23.333 -35.333 -47.5 -68.666 -72.5 -99.999
s-49.667 -58.5 -74 -81.5s-46.5 -36.833 -66.5 -41.5c-16.667 -4 -32 -6.16699 -46 -6.5s-26.333 4.83398 -37 15.501c-10 10 -15.667 24.333 -17 43s-0.5 38.5 2.5 59.5s7.16699 41.333 12.5 61s9.66602 34.834 12.999 45.501l30.5 102.5l28.5 101.5
c10 30 19.167 60.833 27.5 92.5s16.833 60.167 25.5 85.5c-13.333 0.666992 -26.833 0.833984 -40.5 0.500977l-41.5 -1c-14 -0.333008 -27.667 -0.166016 -41 0.500977s-26 2.66699 -38 6c-10.667 2.66699 -18.5 7 -23.5 13s-7.33301 12 -7 18s3.66602 11.167 9.99902 15.5
s15.5 6.5 27.5 6.5c7.33301 0 19.333 -0.333008 36 -1s34 -1 52 -1s34.667 0.5 50 1.5s25.333 2.5 30 4.5c2 0.666992 3 1.66699 3 3l17 49l22 64c7.33301 22 14.5 42.333 21.5 61s12.167 32 15.5 40c2.66699 6 8.16699 8.5 16.5 7.5s17 -3.83301 26 -8.5
s16.833 -10.5 23.5 -17.5s9.66699 -13.5 9 -19.5c-1.33301 -8.66699 -4.5 -21 -9.5 -37l-16.5 -50.5l-18 -51.5c-6 -16.667 -10.333 -30.334 -13 -41.001c41.333 1.33301 78.833 2 112.5 2h106.5c1.33301 0 2 0.666992 2 2l13 38l14 39l13.5 36l11.5 29
c2.66699 6 8.16699 8.5 16.5 7.5s17 -3.83301 26 -8.5s16.833 -10.5 23.5 -17.5s9.66699 -13.5 9 -19.5c-2 -17.333 -6.66699 -34.333 -14 -51s-13.666 -35.667 -18.999 -57c42 0.666992 78.167 1.16699 108.5 1.5s59.833 0.5 88.5 0.5
c9.33301 0 18.666 -0.166992 27.999 -0.5s16.5 -1.16602 21.5 -2.49902s6.16699 -3.16602 3.5 -5.49902s-11.334 -5.5 -26.001 -9.5c-42 -13.333 -82.667 -23.5 -122 -30.5s-78 -12.167 -116 -15.5c-3.33301 -0.666992 -4.83301 -1.33398 -4.5 -2.00098
s-0.5 -2.66699 -2.5 -6c0 -0.666992 -0.333008 -1.33398 -1 -2.00098s-1 -1.33398 -1 -2.00098c-10.667 -29.333 -22.5 -64.166 -35.5 -104.499l-39 -126l-37.5 -130.5c-12 -43.333 -22.167 -82.666 -30.5 -117.999s-14.5 -65 -18.5 -89s-4.33301 -38.333 -1 -43z
M26.001 -76.0029c3.33301 -9.33301 10 -12.001 20 -8.00098s22.167 12.833 36.5 26.5s30.333 30.834 48 51.501s35.5 42.834 53.5 66.501l53 71.5l47.5 67l36 53c9.66699 14.667 16.167 24 19.5 28l9 12l7 8c10 30 19.167 60.667 27.5 92s16.833 59.666 25.5 84.999
c-12 0.666992 -27.5 1 -46.5 1h-60c-21 0 -41.667 -0.333008 -62 -1s-37.833 -1 -52.5 -1c-11.333 -28.667 -23.5 -61.5 -36.5 -98.5l-39 -114.5l-37 -116.5c-11.667 -38.333 -21.667 -73.333 -30 -105s-14.333 -58 -18 -79s-4.16699 -33.833 -1.5 -38.5z" />
    <glyph glyph-name=".notdef" horiz-adv-x="200" 
 />
    <glyph glyph-name="NULL" horiz-adv-x="0" 
 />
    <glyph glyph-name="NULL" horiz-adv-x="0" 
 />
    <glyph glyph-name="nonmarkingreturn" unicode="&#xd;" horiz-adv-x="200" 
 />
    <glyph glyph-name="space" unicode=" " horiz-adv-x="200" 
 />
    <glyph glyph-name="exclam" unicode="!" horiz-adv-x="278" 
d="M168 619c4.66699 4.66699 10.502 6.99902 17.502 6.99902s13.333 -1.33301 19 -4s10.167 -6.66699 13.5 -12s4 -11.333 2 -18c-2.66699 -10 -7 -24.5 -13 -43.5s-13.167 -40.5 -21.5 -64.5l-27 -76.5l-29.5 -80l-29.5 -75l-25.5 -60.5
c-2.66699 -6 -6.33398 -8.33301 -11.001 -7s-8 4.66602 -10 9.99902c-4 22.667 -5.66699 44.334 -5 65.001s2.66699 41.334 6 62.001c3.33301 18.667 8.83301 42.667 16.5 72s16.667 59 27 89s21.666 57.667 33.999 83s24.5 43 36.5 53zM40.002 32.999
c-10 -1.33301 -18.499 2.16699 -25.499 10.5s-11.333 18 -13 29s-0.5 22 3.5 33s12 18.833 24 23.5c14.667 4.66699 26.167 2.66699 34.5 -6s13.166 -19.5 14.499 -32.5s-1.16699 -25.5 -7.5 -37.5s-16.5 -18.667 -30.5 -20z" />
    <glyph glyph-name="quotedbl" unicode="&#x22;" horiz-adv-x="261" 
d="M69 569c5.33301 13.333 9.83203 24 13.499 32s10.167 16 19.5 24c5.33301 5.33301 11.5 5.66602 18.5 0.999023s10.167 -10 9.5 -16c-1.33301 -12 -5.33301 -22.167 -12 -30.5s-13.667 -16.166 -21 -23.499c-11.333 -12 -24.333 -23.333 -39 -34
c-3.33301 -3.33301 -4.83301 -3.16602 -4.5 0.500977s1.5 8.66699 3.5 15s4.33301 12.666 7 18.999s4.33398 10.5 5.00098 12.5zM148.999 569c5.33301 13.333 9.83203 24 13.499 32s10.167 16 19.5 24c5.33301 5.33301 11.5 5.66602 18.5 0.999023s10.167 -10 9.5 -16
c-1.33301 -12 -5.33301 -22.167 -12 -30.5s-13.667 -16.166 -21 -23.499c-11.333 -12 -24.333 -23.333 -39 -34c-3.33301 -3.33301 -4.83301 -3.16602 -4.5 0.500977s1.5 8.66699 3.5 15s4.33301 12.666 7 18.999s4.33398 10.5 5.00098 12.5z" />
    <glyph glyph-name="numbersign" unicode="#" horiz-adv-x="450" 
d="M320 111c-4 -1.33301 -8.17188 -2.16602 -12.5049 -2.49902s-8.5 -0.833008 -12.5 -1.5c-4.66699 -0.666992 -9 -3.66699 -13 -9l-45 -78c-1.33301 -2.66699 -3.33301 -5.16699 -6 -7.5s-5.33398 -4.16602 -8.00098 -5.49902c-6 -3.33301 -10.333 -1.66602 -13 5.00098
c-4 9.33301 -5.16699 19.333 -3.5 30l4.5 30l3 15c-1.33301 0 -2.33301 0.166992 -3 0.5s-1.66699 0.5 -3 0.5c-11.333 -1.33301 -22.833 -2.83301 -34.5 -4.5s-23.5 -3.16699 -35.5 -4.5c-6 -1.33301 -10 -4.66602 -12 -9.99902l-17 -36.5l-18 -37.5
c-4.66699 -7.33301 -8 -12 -10 -14s-3.5 -2.16699 -4.5 -0.5s-1.33301 4.5 -1 8.5s0.833008 8.33301 1.5 13c2 12 4.83301 23.833 8.5 35.5s6.5 23.167 8.5 34.5h-21c-7.33301 0 -12 2.66699 -14 8c-1.33301 3.33301 -1.16602 6.33301 0.500977 9s3.83398 4.66699 6.50098 6
c7.33301 3.33301 15.166 6.16602 23.499 8.49902s14.166 7.83301 17.499 16.5c1.33301 4.66699 3 9.5 5 14.5s4 10.5 6 16.5c-7.33301 -3.33301 -14.333 -6.16602 -21 -8.49902s-13.334 -4.5 -20.001 -6.5c-7.33301 -2.66699 -13 -1.33398 -17 3.99902
s-6.33301 12.166 -7 20.499s0.833008 16.666 4.5 24.999s9.16699 14.5 16.5 18.5c10.667 5.33301 21.834 9 33.501 11s23.167 4.66699 34.5 8c3.33301 1.33301 6 4.33301 8 9l12 30.5c4 10.333 7.66699 20.5 11 30.5c2 3.33301 4 7.33301 6 12s4.33301 9 7 13s5.66699 7 9 9
s6.66602 2 9.99902 0c3.33301 -1.33301 5.5 -5.33301 6.5 -12s1.5 -11.667 1.5 -15c-3.33301 -11.333 -6.16602 -22.5 -8.49902 -33.5s-5.83301 -21.167 -10.5 -30.5l31.5 4c10.333 1.33301 20.833 2 31.5 2c11.333 0 19.333 5.33301 24 16
c5.33301 11.333 10.333 22.666 15 33.999s10.667 20.666 18 27.999c3.33301 4.66699 7.5 7.83398 12.5 9.50098s9.5 1.83398 13.5 0.500977s7.33301 -4 10 -8s4 -8.66699 4 -14c-1.33301 -13.333 -3.66602 -25.666 -6.99902 -36.999l-10 -35
c10.667 -2.66699 20.834 -4.5 30.501 -5.5s18.5 -4.16699 26.5 -9.5c6.66699 -4.66699 7.33398 -9.66699 2.00098 -15s-11 -8 -17 -8c-9.33301 -2 -18.666 -3 -27.999 -3s-18 -1.66699 -26 -5c-1.33301 -0.666992 -2.66602 -1.5 -3.99902 -2.5s-2.33301 -2.16699 -3 -3.5
c-3.33301 -8 -6.33301 -16.167 -9 -24.5s-5.66699 -16.5 -9 -24.5c7.33301 0 15 -0.666992 23 -2s14 -3.33301 18 -6s4.83301 -5.33398 2.5 -8.00098s-10.166 -5.33398 -23.499 -8.00098zM151.995 124c12 1.33301 23.668 2.83203 35.001 4.49902s22.666 3.5 33.999 5.5
c3.33301 0 5.66602 2 6.99902 6c2.66699 5.33301 5 10.833 7 16.5s4.33301 11.834 7 18.501c-12 -2 -23.667 -3.83301 -35 -5.5s-22.666 -3.5 -33.999 -5.5c-1.33301 0 -2.5 -0.5 -3.5 -1.5l-2.5 -2.5c-5.33301 -11.333 -10.333 -23.333 -15 -36z" />
    <glyph glyph-name="dollar" unicode="$" horiz-adv-x="434" 
d="M137 -80l1.99219 44.9941c0.666992 14.667 1 29.334 1 44.001c-18.667 1.33301 -36.167 6.16602 -52.5 14.499s-30.666 19 -42.999 32s-22 27.833 -29 44.5s-10.5 34 -10.5 52c0 23.333 5 45 15 65c8.66699 18 21.167 34.667 37.5 50s32.833 26 49.5 32
c11.333 6 18 8.16699 20 6.5s1.66699 -4.66699 -1 -9s-6.33398 -9.5 -11.001 -15.5s-8 -10.667 -10 -14c-7.33301 -14.667 -13.833 -31.5 -19.5 -50.5s-8.16699 -37.333 -7.5 -55s5.83398 -32.667 15.501 -45s26.167 -19.5 49.5 -21.5l27 132.5l27 132.5
c-9.33301 4 -17.666 7.16699 -24.999 9.5s-14.666 4.33301 -21.999 6s-15.333 3.66699 -24 6s-18.667 5.5 -30 9.5c-16 6 -25.833 15.5 -29.5 28.5s-3.66699 26.667 0 41s9.83398 27.833 18.501 40.5s17.334 22 26.001 28c22.667 13.333 44.334 22.5 65.001 27.5
s43 6.16699 67 3.5c3.33301 0 6 -0.333008 8 -1c3.33301 10.667 6.16602 20.667 8.49902 30s5.5 18.333 9.5 27c4.66699 8 8.66699 12.667 12 14s5 -3.66699 5 -15c-2 -14.667 -3.83301 -26.667 -5.5 -36s-3.16699 -18.333 -4.5 -27c18.667 -10 34.834 -20 48.501 -30
s23.834 -25.667 30.501 -47c1.33301 -6.66699 -1.33398 -11.667 -8.00098 -15c-4.66699 -2 -10 -0.666992 -16 4c-11.333 6.66699 -21.833 12.334 -31.5 17.001s-20.5 8.33398 -32.5 11.001c-3.33301 -12.667 -6.33301 -25.167 -9 -37.5l-8 -36.5l47.5 -21
c15 -6.66699 28.5 -14.667 40.5 -24s22.333 -20.666 31 -33.999s15.334 -29.666 20.001 -48.999c8 -34 7.5 -68.5 -1.5 -103.5s-24.167 -66.167 -45.5 -93.5s-47 -48.833 -77 -64.5s-62 -21.5 -96 -17.5c-3.33301 -14 -5.66602 -28.667 -6.99902 -44
s-4.33301 -30.666 -9 -45.999c-3.33301 -12.667 -6.83301 -19.667 -10.5 -21s-5.5 5.33398 -5.5 20.001zM235.992 349.994c-9.33301 -44 -17.833 -87.502 -25.5 -130.502s-15.834 -85.833 -24.501 -128.5c18.667 2.66699 35.667 8.83398 51 18.501
s28.833 21.334 40.5 35.001s21.334 28.667 29.001 45s13.167 32.833 16.5 49.5c4 30.667 -3 55 -21 73s-40 30.667 -66 38zM108.992 443.992c14.667 -5.33301 32.502 -8.66602 53.502 -9.99902s38.833 -4 53.5 -8c6 23.333 12.333 45.333 19 66
c-8 1.33301 -18.333 1.66602 -31 0.999023s-25.334 -2.66699 -38.001 -6s-24.334 -8.5 -35.001 -15.5s-18 -16.167 -22 -27.5z" />
    <glyph glyph-name="percent" unicode="%" horiz-adv-x="362" 
d="M63 -1c-1.33301 27.333 -0.000976562 54.168 3.99902 80.501s10 52.5 18 78.5c13.333 45.333 29.833 87.666 49.5 126.999s38.5 79 56.5 119c1.33301 1.33301 2.16602 3 2.49902 5s1.16602 4 2.49902 6l-21 -2l-21 -2c-7.33301 -20.667 -17 -40 -29 -58
s-29.333 -29.333 -52 -34c-11.333 -2.66699 -21.666 -2.16699 -30.999 1.5s-17.166 9 -23.499 16s-11.333 15.167 -15 24.5s-5.83398 18.666 -6.50098 27.999c-1.33301 20 1.33398 38.833 8.00098 56.5s15.667 34.167 27 49.5c6.66699 8.66699 14.834 13.667 24.501 15
s19.167 -1 28.5 -7c2.66699 -1.33301 5 -2.16602 7 -2.49902s4 -0.833008 6 -1.5c22 -3.33301 38 -14.333 48 -33c3.33301 -7.33301 6 -11.5 8 -12.5s6.66699 -0.833008 14 0.5c8.66699 1.33301 17 2.5 25 3.5s16 2.16699 24 3.5l39 39c6 6 11.833 8 17.5 6
s10.167 -6.33301 13.5 -13s4.83301 -14.167 4.5 -22.5s-2.83301 -15.5 -7.5 -21.5c-24 -30 -43 -63 -57 -99l-41 -106l-24.5 -62l-26 -64.5l-26 -64.5l-24.5 -60c-6 -11.333 -11.167 -16.5 -15.5 -15.5s-6.5 8.16699 -6.5 21.5zM61.999 373.002
c11.333 7.33301 19.833 15.832 25.5 25.499s10.167 20.167 13.5 31.5c-3.33301 14.667 -7.66602 22.834 -12.999 24.501s-9.66602 2.83398 -12.999 3.50098c-3.33301 -6.66699 -6.5 -13.334 -9.5 -20.001s-5.33301 -13.5 -7 -20.5s-2.33398 -14.167 -2.00098 -21.5
s2.16602 -15 5.49902 -23zM255.999 130.001l4 0.000976562c10.667 3.33301 20.334 3.66602 29.001 0.999023s15.667 -7.16699 21 -13.5s9.16602 -13.833 11.499 -22.5s2.83301 -17.334 1.5 -26.001c-3.33301 -19.333 -13 -35.5 -29 -48.5s-32.333 -22.167 -49 -27.5
c-11.333 -4 -22.666 -4 -33.999 0s-20.666 10.667 -27.999 20c-8.66699 10.667 -13.834 21.5 -15.501 32.5s-1 21.833 2 32.5s7.66699 20.834 14 30.501s13.166 18.834 20.499 27.501c1.33301 2 3 3.66699 5 5c19.333 15.333 35 11.666 47 -11.001zM226.999 51.002
c12.667 2.66699 22.834 7.66699 30.501 15s7.16699 16.333 -1.5 27c-1.33301 1.33301 -3 2.66602 -5 3.99902s-4 3 -6 5c-4 -9.33301 -8.33301 -17.666 -13 -24.999s-6.33398 -16 -5.00098 -26z" />
    <glyph glyph-name="ampersand" unicode="&#x26;" horiz-adv-x="606" 
d="M376 278c-29.333 -7.33301 -58.333 -16.168 -87 -26.501s-55.5 -22.666 -80.5 -36.999s-47 -30.833 -66 -49.5s-33.5 -40.334 -43.5 -65.001c-13.333 -32 -15.5 -55.5 -6.5 -70.5s23.167 -23.833 42.5 -26.5c20 -3.33301 42.833 -0.833008 68.5 7.5s51 19 76 32
s48 27 69 42s36.5 28.167 46.5 39.5c-1.33301 17.333 -2 34.833 -2 52.5s3 34.167 9 49.5c2 6.66699 6.33301 11.334 13 14.001s13.834 3.5 21.501 2.5s14.5 -4 20.5 -9s9 -11.5 9 -19.5c0.666992 -12 0.833984 -21 0.500977 -27s-0.5 -14.667 -0.5 -26
c4.66699 2 10.834 6 18.501 12s15.667 11.833 24 17.5s16.166 10.167 23.499 13.5s12.666 3.66602 15.999 0.999023c3.33301 -3.33301 5.33301 -8.83301 6 -16.5s0.333984 -13.167 -0.999023 -16.5c-10.667 -20.667 -22 -39 -34 -55l-36 -48
c4.66699 -14.667 9.66699 -27.334 15 -38.001s11 -20.334 17 -29.001s12.5 -17 19.5 -25l22.5 -25c12 -10.667 15.5 -17.167 10.5 -19.5s-13.333 -2.5 -25 -0.5s-23.834 5.16699 -36.501 9.5s-21 7.5 -25 9.5c-13.333 8 -25 17.5 -35 28.5s-18.667 23.167 -26 36.5
c-44 -26 -85.5 -47 -124.5 -63s-80.167 -24 -123.5 -24c-36 0 -67.667 10 -95 30s-48.666 45 -63.999 75c-6.66699 16 -10.5 32 -11.5 48s0.166992 31.667 3.5 47c4.66699 24.667 13.334 46.5 26.001 65.5s27 35.667 43 50s32.667 26.5 50 36.5s33.333 18.333 48 25
c-13.333 14 -22 29.333 -26 46s-4.83301 33.334 -2.5 50.001s7.16602 33 14.499 49s15.666 30.667 24.999 44c17.333 22 39.5 40.667 66.5 56s54.833 25.166 83.5 29.499s56.167 1.83301 82.5 -7.5s47.5 -27.666 63.5 -54.999c6 -11.333 9.83301 -21.5 11.5 -30.5
s2.5 -19.167 2.5 -30.5c-2 -8 -6.33301 -9.33301 -13 -4c-5.33301 4.66699 -10.333 9.66699 -15 15c-14.667 20 -34.5 32 -59.5 36s-50.5 2.5 -76.5 -4.5s-49.833 -18.333 -71.5 -34s-36.5 -33.167 -44.5 -52.5c-6 -15.333 -3.66699 -29.166 7 -41.499
s25.167 -22.833 43.5 -31.5s38.5 -14.834 60.5 -18.501s41 -4.16699 57 -1.5c10 2.66699 16.167 2.33398 18.5 -0.999023s2.5 -7.66602 0.5 -12.999s-5.33301 -10.833 -10 -16.5s-9.33398 -9.5 -14.001 -11.5z" />
    <glyph glyph-name="quotesingle" unicode="'" horiz-adv-x="195" 
d="M69 569c5.33301 13.333 9.83203 24 13.499 32s10.167 16 19.5 24c5.33301 5.33301 11.5 5.66602 18.5 0.999023s10.167 -10 9.5 -16c-1.33301 -12 -5.33301 -22.167 -12 -30.5s-13.667 -16.166 -21 -23.499c-11.333 -12 -24.333 -23.333 -39 -34
c-3.33301 -3.33301 -4.83301 -3.16602 -4.5 0.500977s1.5 8.66699 3.5 15s4.33301 12.666 7 18.999s4.33398 10.5 5.00098 12.5z" />
    <glyph glyph-name="parenleft" unicode="(" horiz-adv-x="242" 
d="M134 -106c-30 22 -54.165 45.667 -72.498 71s-32 52.333 -41 81s-14.5 58.5 -16.5 89.5s-1.33301 63.5 2 97.5c3.33301 43.333 10.666 87 21.999 131s25.666 86.167 42.999 126.5s37.166 77.833 59.499 112.5s46.5 65 72.5 91l26.5 24.5
c9 8.33301 18.167 15.833 27.5 22.5c8 6 15.833 7.5 23.5 4.5s13.667 -8.16699 18 -15.5s6.83301 -15.833 7.5 -25.5s-2 -17.834 -8 -24.501c-25.333 -28 -49.5 -59.667 -72.5 -95s-43.833 -72.666 -62.5 -111.999s-34.5 -79.833 -47.5 -121.5s-22 -83.334 -27 -125.001
s-5.5 -82.5 -1.5 -122.5s13.667 -77.667 29 -113c6.66699 -15.333 13.834 -30 21.501 -44l23.5 -44c5.33301 -11.333 8.5 -19.166 9.5 -23.499s0.333008 -6.33301 -2 -6s-6.5 2.5 -12.5 6.5z" />
    <glyph glyph-name="parenright" unicode=")" horiz-adv-x="329" 
d="M145 729c30 -22 54.1641 -45.665 72.4971 -70.998s32 -52.333 41 -81s14.333 -58.5 16 -89.5s1.16699 -63.5 -1.5 -97.5c-3.33301 -43.333 -10.666 -87 -21.999 -131s-25.666 -86.167 -42.999 -126.5s-37.166 -77.833 -59.499 -112.5s-46.5 -65 -72.5 -91l-26.5 -24.5
c-9 -8.33301 -18.167 -15.833 -27.5 -22.5c-8 -6 -15.833 -7.5 -23.5 -4.5s-13.667 8.16699 -18 15.5s-6.83301 15.666 -7.5 24.999s2 17.666 8 24.999c24.667 27.333 48.334 58.5 71.001 93.5s43.334 72.333 62.001 112s34.5 80.667 47.5 123s22.167 84.5 27.5 126.5
s6.16602 82.833 2.49902 122.5s-13.167 76.834 -28.5 111.501c-6.66699 15.333 -13.834 30 -21.501 44l-23.5 44c-5.33301 11.333 -8.5 19.166 -9.5 23.499s-0.333008 6.33301 2 6s6.5 -2.5 12.5 -6.5z" />
    <glyph glyph-name="asterisk" unicode="*" horiz-adv-x="325" 
d="M176 635l-14.498 -23.999l-13.5 -22c-2.66699 -4 -5.33398 -7.66699 -8.00098 -11s-6.66699 -4.33301 -12 -3c-4 0.666992 -6.66699 4.33398 -8 11.001s-2.16602 13.834 -2.49902 21.501s-0.166016 15 0.500977 22s1 11.5 1 13.5l-13.5 -8.5l-10.5 -6.5
c-8 -6 -15 -7 -21 -3c-6.66699 5.33301 -8.33398 12.333 -5.00098 21c5.33301 9.33301 11.166 17.166 17.499 23.499s13.833 12.166 22.5 17.499c-4.66699 4 -9.16699 7.66699 -13.5 11s-8.16602 7.33301 -11.499 12c-2.66699 3.33301 -3.83398 7.16602 -3.50098 11.499
s2.16602 7.5 5.49902 9.5c6 8 13.667 9.33301 23 4l17.5 -9.5l17.5 -9.5l7.5 15c2.33301 4.66699 5.16602 9.33398 8.49902 14.001c4 6 8.5 9.5 13.5 10.5s9.5 0.5 13.5 -1.5s7.33301 -5.16699 10 -9.5s4 -9.5 4 -15.5c0 -2 -1.33301 -6.33301 -4 -13s-4 -11.334 -4 -14.001
c7.33301 1.33301 14.5 2.16602 21.5 2.49902s14.167 -1.16699 21.5 -4.5s9.83301 -6.83301 7.5 -10.5s-6.16602 -6.16699 -11.499 -7.5c-6 -1.33301 -12.333 -2.16602 -19 -2.49902s-13 -3.16602 -19 -8.49902c16.667 -16 27 -33.667 31 -53c4 -16 4 -23.833 0 -23.5
s-10.333 3.16602 -19 8.49902c-4.66699 5.33301 -9.5 10.5 -14.5 15.5s-10.167 10.5 -15.5 16.5z" />
    <glyph glyph-name="plus" unicode="+" horiz-adv-x="415" 
d="M145 28c1.33301 16.667 3.16602 32.834 5.49902 48.501s5.16602 31.167 8.49902 46.5c-9.33301 0 -18.333 0.166992 -27 0.5s-17.667 0.5 -27 0.5c-6.66699 0 -13.667 0.333008 -21 1s-14 1.83398 -20 3.50098s-11 4.33398 -15 8.00098s-6 8.5 -6 14.5
c0 10.667 5.66699 17 17 19c18 2 36.333 3.5 55 4.5s37.667 1.16699 57 0.5c2.66699 10 5.16699 20 7.5 30s4.5 20.333 6.5 31c1.33301 6.66699 3 13.5 5 20.5s4.5 13.167 7.5 18.5s6.66699 9.66602 11 12.999s9.5 4.33301 15.5 3c10 -2 15 -8.66699 15 -20
c-1.33301 -16.667 -3.33301 -33.334 -6 -50.001s-6 -33.667 -10 -51c33.333 -4 65.666 -11.667 96.999 -23c9.33301 -3.33301 13.833 -7.66602 13.5 -12.999s-6.16602 -8 -17.499 -8c-18 -3.33301 -35.833 -5.33301 -53.5 -6s-35.167 -0.666992 -52.5 0
c-6 -18 -12.833 -35.333 -20.5 -52s-16.167 -32.667 -25.5 -48c-5.33301 -8.66699 -10.666 -12.334 -15.999 -11.001s-6.66602 7.66602 -3.99902 18.999z" />
    <glyph glyph-name="comma" unicode="," horiz-adv-x="271" 
d="M104 -36c2 7.33301 4.16504 14.6719 6.49805 22.0049s4.5 14.666 6.5 21.999s0.666992 12.666 -4 15.999c-9.33301 7.33301 -14.666 16.333 -15.999 27s0.166992 20.5 4.5 29.5s10.833 16.167 19.5 21.5s18.667 6.33301 30 3
c9.33301 -3.33301 17.166 -9.83301 23.499 -19.5s6.83301 -24.834 1.5 -45.501c-3.33301 -16.667 -9.5 -31.334 -18.5 -44.001s-19.167 -24.667 -30.5 -36c-9.33301 -9.33301 -16.166 -13.333 -20.499 -12s-5.16602 6.66602 -2.49902 15.999z" />
    <glyph glyph-name="hyphen" unicode="-" horiz-adv-x="415" 
d="M317 126c-36 -5.33301 -71.334 -7.00195 -106.001 -5.00195s-70 3 -106 3c-6.66699 0 -13.667 0.333008 -21 1s-14 1.83398 -20 3.50098s-11 4.33398 -15 8.00098s-6 8.5 -6 14.5c0 10.667 5.66699 17 17 19c42.667 5.33301 87 6.66602 133 3.99902
s88.667 -11.667 128 -27c9.33301 -3.33301 13.833 -7.66602 13.5 -12.999s-6.16602 -8 -17.499 -8z" />
    <glyph glyph-name="period" unicode="." horiz-adv-x="184" 
d="M87 6c-28.667 2 -43 13.332 -43 33.999c0.666992 12.667 5.5 23.667 14.5 33s19.833 14 32.5 14c10 0 18.333 -3.66699 25 -11s9.66699 -15.666 9 -24.999c-1.33301 -13.333 -5 -24.333 -11 -33s-15 -12.667 -27 -12z" />
    <glyph glyph-name="slash" unicode="/" horiz-adv-x="338" 
d="M-4 -63c3.33301 14 6.83789 27.667 10.5049 41s7.83398 26.666 12.501 39.999c20 54.667 43.667 112.5 71 173.5s56.666 121.5 87.999 181.5s64 118 98 174s67.667 106.333 101 151c4.66699 6 9.66699 11.833 15 17.5s11.666 10.5 18.999 14.5s13.166 5.66699 17.499 5
s7.5 -2.5 9.5 -5.5s3.16699 -6.5 3.5 -10.5s0.166016 -8 -0.500977 -12l-3.5 -10.5c-1 -3 -2.16699 -6.16699 -3.5 -9.5l-86 -171.5l-94.5 -185.5l-97 -184c-32.333 -60 -63.5 -115 -93.5 -165c-6.66699 -10 -13.334 -19.5 -20.001 -28.5l-21 -27.5
c-9.33301 -12 -17.333 -16.667 -24 -14s-7.33398 11.334 -2.00098 26.001z" />
    <glyph glyph-name="zero" unicode="0" horiz-adv-x="421" 
d="M93 369c-7.33301 19.333 -7.66797 38.499 -1.00098 57.499s16.834 36.833 30.501 53.5s29.167 31.334 46.5 44.001s33.666 22.667 48.999 30c11.333 5.33301 22.833 9.83301 34.5 13.5s23.5 5.5 35.5 5.5c24.667 0 44.834 -7.33301 60.501 -22
s27.834 -32.167 36.501 -52.5s14.167 -41.5 16.5 -63.5s2.5 -40.333 0.5 -55c-6 -35.333 -15.333 -71.333 -28 -108s-29 -71.334 -49 -104.001s-43.333 -62.334 -70 -89.001s-56.334 -48 -89.001 -64c-32 -14 -61 -18.167 -87 -12.5s-46.667 23.5 -62 53.5
c-10 27.333 -15.167 55.5 -15.5 84.5s3 57.333 10 85s17.5 53.834 31.5 78.501s30.667 46.334 50 65.001zM122.998 318.999c-6 -8 -14.4961 -21.8369 -25.4961 -41.5039s-21.167 -41.667 -30.5 -66s-15.833 -49.666 -19.5 -75.999s-0.833984 -50.5 8.49902 -72.5
c2.66699 -4.66699 6.66699 -8 12 -10s11 -2.66699 17 -2c19.333 1.33301 39 9.5 59 24.5s39.5 34 58.5 57s36.833 48.667 53.5 77s31.167 57 43.5 86s22.166 56.833 29.499 83.5s11 49.667 11 69c0 20.667 -2 38.334 -6 53.001s-10.667 21.334 -20 20.001
c-15.333 -1.33301 -31.333 -5.83301 -48 -13.5s-32.334 -17.167 -47.001 -28.5s-27.667 -24.166 -39 -38.499s-19 -28.5 -23 -42.5c-2.66699 -10.667 -3.83398 -21.167 -3.50098 -31.5s1.5 -20.833 3.5 -31.5c4 -16 5.66699 -26.5 5 -31.5s-3 -7 -7 -6s-9 3.83301 -15 8.5z
" />
    <glyph glyph-name="one" unicode="1" horiz-adv-x="249" 
d="M141 482c-17.333 -7.33301 -33.8281 -14.8301 -49.4951 -22.4971s-32.167 -13.167 -49.5 -16.5c-7.33301 -1.33301 -14 -0.5 -20 2.5s-10.5 6.66699 -13.5 11s-4.33301 9 -4 14s3.16602 9.16699 8.49902 12.5l88 42.5c29.333 13.667 59.333 26.167 90 37.5
c10 9.33301 20.333 10.666 31 3.99902c9.33301 -8 12.666 -18.667 9.99902 -32c-3.33301 -8.66699 -6.33301 -17.167 -9 -25.5s-5.66699 -16.833 -9 -25.5l-34.5 -90.5c-11.667 -29.667 -22.834 -59.5 -33.501 -89.5c-19.333 -50.667 -36 -100.667 -50 -150l-41 -146
c-1.33301 -8 -4 -15.333 -8 -22c-1.33301 -3.33301 -3.33301 -4.83301 -6 -4.5s-4.66699 2.16602 -6 5.49902s-2.5 7.16602 -3.5 11.499s-2.16699 8.5 -3.5 12.5c-4.66699 30.667 -6.33398 61.667 -5.00098 93s6.33301 61.333 15 90c17.333 56 34.166 107 50.499 153
s33.833 91 52.5 135z" />
    <glyph glyph-name="two" unicode="2" horiz-adv-x="418" 
d="M90 94c18.667 2.66699 40.3359 4.49707 65.0029 5.49707s48.834 -0.666992 72.501 -5s45.167 -11.833 64.5 -22.5s33.666 -26 42.999 -46c2.66699 -5.33301 3.66699 -8.66602 3 -9.99902s-3.66699 -2.66602 -9 -3.99902h-7c-46 10 -89.333 15 -130 15
s-80.667 -2.66699 -120 -8c-9.33301 -1.33301 -17.666 -3.33301 -24.999 -6s-14.666 -6 -21.999 -10c-10 -5.33301 -19.167 -5.5 -27.5 -0.5s-13.166 13.167 -14.499 24.5c0 5.33301 0.5 10.333 1.5 15s3.16699 8.66699 6.5 12c4 3.33301 7 7.33301 9 12
s3.66699 9.66699 5 15c12.667 28.667 27.667 55.334 45 80.001s36 48 56 70s40.667 43.333 62 64l62 61l64.5 64c21.667 22 37.167 42.667 46.5 62c3.33301 11.333 1.66602 19 -5.00098 23s-16 6.33301 -28 7c-30 0.666992 -60.167 -3.16602 -90.5 -11.499
s-55.166 -22.166 -74.499 -41.499c-8 -4.66699 -13.333 -4.16699 -16 1.5s-3.33398 13.167 -2.00098 22.5s4.66602 19.166 9.99902 29.499s12 18.166 20 23.499c22 16.667 45.667 27 71 31s49.166 3.83301 71.499 -0.5s41.666 -11.833 57.999 -22.5
s26.833 -22.334 31.5 -35.001c4.66699 -10.667 7 -21.334 7 -32.001c-0.666992 -24 -7.33398 -46.167 -20.001 -66.5s-26.667 -38.166 -42 -53.499c-20.667 -22 -41.834 -43.333 -63.501 -64l-64 -63c-21 -21.333 -41.333 -43.166 -61 -65.499s-37.5 -45.833 -53.5 -70.5z
" />
    <glyph glyph-name="three" unicode="3" horiz-adv-x="402" 
d="M370 271c7.33301 -22.667 9.00977 -44.832 5.00977 -66.499s-11.833 -42.334 -23.5 -62.001s-26.334 -37.834 -44.001 -54.501s-36.5 -31.5 -56.5 -44.5s-40.5 -23.5 -61.5 -31.5s-40.5 -13.333 -58.5 -16c-55.333 0.666992 -93.5 15 -114.5 43s-22.167 62.667 -3.5 104
c12 18.667 28.5 33.834 49.5 45.501s41.167 20.167 60.5 25.5c3.33301 0.666992 8.83301 1.66699 16.5 3s14.5 1.83301 20.5 1.5s9.66699 -1.5 11 -3.5s-2.33398 -5.33301 -11.001 -10c-8 -4.66699 -17.5 -10.834 -28.5 -18.501s-21.667 -16.334 -32 -26.001
s-20 -20 -29 -31s-15.833 -22.5 -20.5 -34.5c-3.33301 -8 -4.33301 -15.333 -3 -22s6.66602 -12.667 15.999 -18c13.333 -6.66699 31.666 -6.66699 54.999 0s47.333 17.667 72 33s47.667 33.666 69 54.999s36.666 43.333 45.999 66c8 26.667 9.5 48.334 4.5 65.001
s-14 29.5 -27 38.5s-29 14.333 -48 16s-38.5 1.16699 -58.5 -1.5c-5.33301 0 -9.33301 -0.333008 -12 -1c-8.66699 -0.666992 -14.667 2.5 -18 9.5s-2.33301 13.833 3 20.5c7.33301 9.33301 15.166 17.833 23.499 25.5s17.166 15.167 26.499 22.5
c6.66699 4.66699 18.667 11.5 36 20.5l51.5 28c17 9.66699 30.833 19.167 41.5 28.5s13 17 7 23c-16 5.33301 -33.667 7.5 -53 6.5s-38.5 -4.16699 -57.5 -9.5s-37.667 -12.166 -56 -20.499s-34.5 -16.5 -48.5 -24.5c-10 -4.66699 -16 -4.33398 -18 0.999023
s-1.5 12.666 1.5 21.999s8 19.166 15 29.499s14.833 18.5 23.5 24.5c39.333 18.667 75 28.334 107 29.001s63 -5.66602 93 -18.999c12 -6.66699 21.833 -16.5 29.5 -29.5s9.5 -27.5 5.5 -43.5c-2 -12 -7.33301 -23 -16 -33s-18.667 -19 -30 -27s-22.833 -15.5 -34.5 -22.5
s-21.834 -13.5 -30.501 -19.5l32.5 -18.5c11 -6.33301 21.167 -13.166 30.5 -20.499s17.666 -15.666 24.999 -24.999s12.666 -20.333 15.999 -33z" />
    <glyph glyph-name="four" unicode="4" horiz-adv-x="421" 
d="M293 345c-20 -7.33301 -42.001 -17.8281 -66.001 -31.4951s-48 -29 -72 -46s-47 -34.5 -69 -52.5s-40.667 -34.667 -56 -50c-1.33301 -2.66699 -3.5 -5 -6.5 -7s-6.16699 -2.66699 -9.5 -2c-6.66699 2 -10.667 7.66699 -12 17
c-1.33301 11.333 -1.83301 22.666 -1.5 33.999s1.16602 22.666 2.49902 33.999c8 31.333 18.167 61.666 30.5 90.999s25.833 57.666 40.5 84.999s30.334 54 47.001 80l49 77c6 7.33301 12.5 10.333 19.5 9s13.167 -5 18.5 -11s9.5 -13.167 12.5 -21.5
s4.16699 -15.833 3.5 -22.5c-1.33301 -10 -5 -19.5 -11 -28.5s-11.667 -18.833 -17 -29.5l-24.5 -43.5l-33.5 -62l-30.5 -60.5c-9 -18.667 -14.167 -32 -15.5 -40l51.5 34.5c17.667 12.333 35.5 24 53.5 35s35.833 20.667 53.5 29s34.834 14.166 51.501 17.499
c2 1.33301 5 7.5 9 18.5l13 37c4.66699 13.667 9.5 27 14.5 40s9.16699 22.167 12.5 27.5c4.66699 9.33301 11.167 13.5 19.5 12.5s15.833 -5.33301 22.5 -13s11.5 -17.334 14.5 -29.001s1.16699 -23.167 -5.5 -34.5c-14.667 -37.333 -27.834 -74.166 -39.501 -110.499
l-34 -107.5l-33 -104c-11 -34 -23.5 -67.333 -37.5 -100c-1.33301 -2.66699 -3 -5.5 -5 -8.5s-4.16699 -5.5 -6.5 -7.5s-4.66602 -3 -6.99902 -3s-4.5 2 -6.5 6c-1.33301 3.33301 -2.33301 7 -3 11s-1 7.66699 -1 11c-1.33301 32.667 -0.333008 62 3 88s8 51 14 75
s13 48.333 21 73z" />
    <glyph glyph-name="five" unicode="5" horiz-adv-x="408" 
d="M140 535c-2.66699 4.66699 -5.16797 10.3359 -7.50098 17.0029s1.16699 9.33398 10.5 8.00098c52.667 0 98 0.666992 136 2s73 7.66602 105 18.999c6 2 10 1.33301 12 -2s2.33301 -7.83301 1 -13.5s-4.16602 -11.834 -8.49902 -18.501s-9.83301 -12.334 -16.5 -17.001
c-34 -20 -65.5 -32.167 -94.5 -36.5s-61.167 0.5 -96.5 14.5v-4l-12 -37.5l-12 -39.5c26 0 49.167 -1.5 69.5 -4.5s38.5 -8 54.5 -15s30 -16.5 42 -28.5s22.667 -27.333 32 -46c5.33301 -11.333 9.33301 -22.666 12 -33.999c6 -32.667 1.16699 -65.667 -14.5 -99
s-37.167 -64 -64.5 -92s-57.5 -52 -90.5 -72s-63.5 -32.667 -91.5 -38c-8 -0.666992 -17 0 -27 2c-22.667 3.33301 -41.667 13.5 -57 30.5s-22.333 36.833 -21 59.5c1.33301 33.333 11 60.833 29 82.5s39.333 40.5 64 56.5c4 2 10 4.5 18 7.5s15.333 5.33301 22 7
s11.334 1.83398 14.001 0.500977s1 -5 -5 -11l-30 -33.5c-11.333 -13 -22 -26.5 -32 -40.5s-18.333 -28 -25 -42s-10 -27 -10 -39c0.666992 -8 3.66699 -13.333 9 -16s11.333 -3.83398 18 -3.50098s13.5 1.5 20.5 3.5s12.5 3.66699 16.5 5
c20 11.333 42.333 25.666 67 42.999s47.667 36.5 69 57.5s38.833 43.167 52.5 66.5s19.167 46.666 16.5 69.999c-3.33301 12.667 -12.166 23 -26.499 31s-31 13.833 -50 17.5s-38.5 5 -58.5 4s-36.667 -4.16699 -50 -9.5c-7.33301 -2.66699 -13.833 -3 -19.5 -1
s-10.334 5.5 -14.001 10.5s-6 10.667 -7 17s-0.5 12.5 1.5 18.5l25.5 73.5c8.33301 23 16.166 46.167 23.499 69.5z" />
    <glyph glyph-name="six" unicode="6" horiz-adv-x="304" 
d="M139 351c0.666992 0 0.999023 -0.170898 0.999023 -0.503906s0.333008 -0.5 1 -0.5h1c18.667 7.33301 36.167 10.333 52.5 9s30 -6 41 -14s19.333 -19.167 25 -33.5s7.5 -30.5 5.5 -48.5c-2.66699 -24.667 -7.66699 -50.167 -15 -76.5s-17.166 -51.5 -29.499 -75.5
s-27 -45.667 -44 -65s-35.833 -34.333 -56.5 -45c-16.667 -4.66699 -32.167 -4 -46.5 2s-27 14.833 -38 26.5s-19.833 24.834 -26.5 39.501s-10 28.667 -10 42c-2 22.667 0.666992 49.834 8 81.501s17.833 65 31.5 100s29.5 69.833 47.5 104.5s37 66 57 94s40 51 60 69
s38.333 28 55 30c6 0 11.167 -2.33301 15.5 -7s7.5 -10.167 9.5 -16.5s2.66699 -12.666 2 -18.999s-3 -11.166 -7 -14.499c-33.333 -25.333 -60.5 -53.5 -81.5 -84.5s-40.5 -63.5 -58.5 -97.5zM99.999 262.996l-16.001 -43.499c-6.66699 -18.333 -12.667 -37.333 -18 -57
s-9.16602 -38.334 -11.499 -56.001s-1.16602 -30.834 3.50098 -39.501c0.666992 -3.33301 2.5 -5.5 5.5 -6.5s6.16699 -1.5 9.5 -1.5s6.66602 0.333008 9.99902 1s5.66602 1.66699 6.99902 3c12 6.66699 23.667 18 35 34s21.833 33.833 31.5 53.5
s18.334 39.834 26.001 60.501s13.5 39 17.5 55c5.33301 20.667 5 34 -1 40s-14.833 7.5 -26.5 4.5s-24.167 -9.16699 -37.5 -18.5s-25 -19 -35 -29z" />
    <glyph glyph-name="seven" unicode="7" horiz-adv-x="302" 
d="M167 296c12 -3.33301 23.9971 -5.50293 35.9971 -6.50293s23.667 -3.16699 35 -6.5c4.66699 -1.33301 4.83398 -4.83301 0.500977 -10.5s-7.83301 -8.5 -10.5 -8.5c-11.333 -1.33301 -21.833 -1.83301 -31.5 -1.5s-20.167 0.166016 -31.5 -0.500977
c-11.333 0 -18.666 -5.33301 -21.999 -16c-16 -40 -30.333 -79.167 -43 -117.5s-24.667 -77.166 -36 -116.499c-2.66699 -6 -6.33398 -9 -11.001 -9c-5.33301 0 -9.33301 3 -12 9c-6 18.667 -9 38.334 -9 59.001c2 37.333 8 71.166 18 101.499l30 87.5
c-7.33301 1.33301 -15 1.83301 -23 1.5s-15.667 -0.833008 -23 -1.5c-5.33301 0.666992 -9.66602 2.83398 -12.999 6.50098s-5.5 7.66699 -6.5 12s-0.333008 8.5 2 12.5s6.16602 6.66699 11.499 8c11.333 3.33301 22.833 4.33301 34.5 3s22.834 -2 33.501 -2l4 2
c14 32.667 29.667 64.834 47 96.501s36 63.5 56 95.5l-49 -13.5c-18 -5 -36.167 -8 -54.5 -9s-35.666 0.666992 -51.999 5s-29.833 14.166 -40.5 29.499c-5.33301 7.33301 -8.33301 14.833 -9 22.5s3.33301 11.5 12 11.5c24 -4 46.833 -5.5 68.5 -4.5s42.5 3.66699 62.5 8
s39.5 10.333 58.5 18s38.167 15.834 57.5 24.501c10.667 4 19.667 3.83301 27 -0.5s12.666 -10.5 15.999 -18.5s4.5 -16.667 3.5 -26s-3.83301 -17.333 -8.5 -24c-27.333 -34 -51.166 -69.167 -71.499 -105.5s-38.833 -73.5 -55.5 -111.5
c-0.666992 -1.33301 -1 -2.66602 -1 -3.99902z" />
    <glyph glyph-name="eight" unicode="8" horiz-adv-x="370" 
d="M296 526c-16.667 -3.33301 -33.5039 -7.6709 -50.5039 -13.0039s-33 -12.166 -48 -20.499s-28.667 -18.166 -41 -29.499s-22.5 -25 -30.5 -41c-4 -9.33301 -5 -18.166 -3 -26.499s5.5 -16 10.5 -23s11.167 -13.667 18.5 -20l20 -17.5l43.5 -40
c15 -13.333 28.167 -27.5 39.5 -42.5s19.833 -31.167 25.5 -48.5s5.5 -36 -0.5 -56c-6 -16.667 -14.833 -33.834 -26.5 -51.501s-25.167 -33.834 -40.5 -48.501s-31.666 -26.667 -48.999 -36s-34.333 -13.666 -51 -12.999c-20.667 2 -38.334 6.83301 -53.001 14.5
s-26.667 17.334 -36 29.001s-16.166 24.834 -20.499 39.501s-6.16602 29.667 -5.49902 45c5.33301 39.333 13.5 75.666 24.5 108.999s29.167 62.666 54.5 87.999c-11.333 24.667 -16.833 48.334 -16.5 71.001s5 43.834 14 63.501s21.5 37.5 37.5 53.5s34.333 30 55 42
c6.66699 4 17 8.66699 31 14s28.5 10 43.5 14s29.333 6.66699 43 8s23.834 0 30.501 -4c17.333 -8 29 -20.333 35 -37s7 -33.667 3 -51c-11.333 -38 -23.666 -71.5 -36.999 -100.5s-28 -57.5 -44 -85.5c-8 -11.333 -13.5 -16.5 -16.5 -15.5s-4.5 4.66699 -4.5 11
s0.666992 13.833 2 22.5s2.33301 15 3 19c2.66699 16 6.66699 33.833 12 53.5l15.5 55.5c5 17.333 9 32.5 12 45.5s3.16699 20.5 0.5 22.5zM117.996 274.995c-17.333 -28 -31.999 -58.3301 -43.999 -90.9971s-17.333 -65 -16 -97
c1.33301 -30.667 15.666 -42.334 42.999 -35.001c11.333 3.33301 22.666 8.66602 33.999 15.999s21.833 15.833 31.5 25.5s18.334 20 26.001 31s13.5 21.833 17.5 32.5c2 12 -0.166992 23.667 -6.5 35s-14.5 22.166 -24.5 32.499s-20.667 19.833 -32 28.5z" />
    <glyph glyph-name="nine" unicode="9" horiz-adv-x="275" 
d="M244 569c4 1.33301 6.66699 2.33203 8 2.99902c8 1.33301 15.167 0 21.5 -4s9.5 -10.333 9.5 -19c0 -5.33301 -0.333008 -10.833 -1 -16.5s-1.66699 -11.167 -3 -16.5c-16.667 -41.333 -34.334 -82.5 -53.001 -123.5l-54.5 -123c-17.667 -41 -34.5 -82.333 -50.5 -124
s-29.333 -84.167 -40 -127.5c-1.33301 -3.33301 -2.33301 -6.16602 -3 -8.49902s-1.66699 -4.83301 -3 -7.5c-2 -3.33301 -4.83301 -5.16602 -8.5 -5.49902s-6.5 1.5 -8.5 5.5c-6.66699 19.333 -10.167 39.666 -10.5 60.999s1.16699 41.666 4.5 60.999
c5.33301 32 13.333 63.667 24 95s23.667 60.666 39 87.999c-6 -4 -12 -6.66699 -18 -8s-12.667 -2.33301 -20 -3c-25.333 -2 -44.5 5 -57.5 21s-18.833 35 -17.5 57c1.33301 26 7.5 51.333 18.5 76s25.333 46.834 43 66.501s38.167 35.834 61.5 48.501s48.333 20.667 75 24
c8.66699 0.666992 16.834 -0.5 24.501 -3.5s14.167 -8.5 19.5 -16.5zM82 362.999c37.333 26.667 66.999 54.499 88.999 83.499s40.667 61.5 56 97.5c-23.333 -5.33301 -45.666 -14.5 -66.999 -27.5s-39.333 -28.833 -54 -47.5c-20 -25.333 -33 -53.333 -39 -84
c-2.66699 -9.33301 -3.16699 -16.666 -1.5 -21.999s7.16699 -5.33301 16.5 0z" />
    <glyph glyph-name="colon" unicode=":" horiz-adv-x="256" 
d="M107 34c-28.667 2 -43 13.332 -43 33.999c0.666992 12.667 5.5 23.667 14.5 33s19.833 14 32.5 14c10 0 18.333 -3.66699 25 -11s9.66699 -15.666 9 -24.999c-1.33301 -13.333 -5 -24.333 -11 -33s-15 -12.667 -27 -12zM129 180.999c-28.667 2 -43 13.332 -43 33.999
c0.666992 12.667 5.5 23.667 14.5 33s19.833 14 32.5 14c10 0 18.333 -3.66699 25 -11s9.66699 -15.666 9 -24.999c-1.33301 -13.333 -5 -24.333 -11 -33s-15 -12.667 -27 -12z" />
    <glyph glyph-name="semicolon" unicode=";" horiz-adv-x="254" 
d="M129 181c-28.667 2 -43 13.332 -43 33.999c0.666992 12.667 5.5 23.667 14.5 33s19.833 14 32.5 14c10 0 18.333 -3.66699 25 -11s9.66699 -15.666 9 -24.999c-1.33301 -13.333 -5 -24.333 -11 -33s-15 -12.667 -27 -12zM68 -39.001
c2 7.33301 4.16504 14.6719 6.49805 22.0049s4.5 14.666 6.5 21.999s0.666992 12.666 -4 15.999c-9.33301 7.33301 -14.666 16.333 -15.999 27s0.166992 20.5 4.5 29.5s10.833 16.167 19.5 21.5s18.667 6.33301 30 3c9.33301 -3.33301 17.166 -9.83301 23.499 -19.5
s6.83301 -24.834 1.5 -45.501c-3.33301 -16.667 -9.5 -31.334 -18.5 -44.001s-19.167 -24.667 -30.5 -36c-9.33301 -9.33301 -16.166 -13.333 -20.499 -12s-5.16602 6.66602 -2.49902 15.999z" />
    <glyph glyph-name="less" unicode="&#x3c;" horiz-adv-x="379" 
d="M95 209l48.001 -50.5c15.333 -15.667 30 -31.5 44 -47.5s27.5 -32.667 40.5 -50s25.167 -36.333 36.5 -57c2.66699 -8 2.66699 -13.167 0 -15.5s-6.33398 -3.16602 -11.001 -2.49902s-9.5 2.16699 -14.5 4.5l-11.5 5.5l-99.5 81
c-32.333 27.333 -66.5 52.666 -102.5 75.999c-12 7.33301 -18.667 17.5 -20 30.5s2 24.167 10 33.5c38 39.333 76.167 74.166 114.5 104.499s80.5 55.5 126.5 75.5c6.66699 2.66699 14 4 22 4s15.167 -1.16699 21.5 -3.5s11 -5.66602 14 -9.99902s3.16699 -9.5 0.5 -15.5
l-106 -81l-111 -80z" />
    <glyph glyph-name="equal" unicode="=" horiz-adv-x="427" 
d="M333 162c-36 -5.33301 -71.334 -7.00195 -106.001 -5.00195s-70 3 -106 3c-6.66699 0 -13.667 0.333008 -21 1s-14 1.83398 -20 3.50098s-11 4.33398 -15 8.00098s-6 8.5 -6 14.5c0 10.667 5.66699 17 17 19c42.667 5.33301 87 6.66602 133 3.99902
s88.667 -11.667 128 -27c9.33301 -3.33301 13.833 -7.66602 13.5 -12.999s-6.16602 -8 -17.499 -8zM314.999 78.998c-36 -5.33301 -71.334 -7.00195 -106.001 -5.00195s-70 3 -106 3c-6.66699 0 -13.667 0.333008 -21 1s-14 1.83398 -20 3.50098s-11 4.33398 -15 8.00098
s-6 8.5 -6 14.5c0 10.667 5.66699 17 17 19c42.667 5.33301 87 6.66602 133 3.99902s88.667 -11.667 128 -27c9.33301 -3.33301 13.833 -7.66602 13.5 -12.999s-6.16602 -8 -17.499 -8z" />
    <glyph glyph-name="greater" unicode="&#x3e;" horiz-adv-x="366" 
d="M211 209c0 0.666992 -0.335938 1.33203 -1.00293 1.99902l-98.5 80l-93.5 81c-2 6 -1.16699 11.167 2.5 15.5s8.83398 7.66602 15.501 9.99902s14 3.5 22 3.5s15.333 -1.33301 22 -4c42.667 -20 80.834 -45.167 114.501 -75.5s66.5 -65.166 98.5 -104.499
c6.66699 -9.33301 8.33398 -20.5 5.00098 -33.5s-11.666 -23.167 -24.999 -30.5c-39.333 -23.333 -77.5 -48.666 -114.5 -75.999l-112.5 -81c-2.66699 -1.33301 -6.83398 -3.16602 -12.501 -5.49902s-10.834 -3.83301 -15.501 -4.5s-8.16699 0.166016 -10.5 2.49902
s-1.5 7.5 2.5 15.5c14.667 20.667 29.834 39.667 45.501 57s31.667 34 48 50s33.5 31.833 51.5 47.5z" />
    <glyph glyph-name="question" unicode="?" horiz-adv-x="437" 
d="M317 586c-20.667 3.33301 -42.002 4.17285 -64.002 2.50586s-43.333 -5.66699 -64 -12s-40 -15 -58 -26s-33 -24.5 -45 -40.5c-6 -11.333 -11.167 -17 -15.5 -17s-7.33301 3.5 -9 10.5s-1.66699 16.5 0 28.5s5.66699 24.667 12 38s15.333 26.333 27 39s26.167 23 43.5 31
c40.667 15.333 79.667 22.333 117 21s70 -14.333 98 -39c8 -7.33301 14.667 -16.333 20 -27s8.83301 -22.167 10.5 -34.5s0.833984 -24.833 -2.49902 -37.5s-9.33301 -24.334 -18 -35.001c-11.333 -13.333 -24.666 -25.833 -39.999 -37.5s-31.5 -22.834 -48.5 -33.501
l-52 -32.5c-17.667 -11 -34.5 -22.833 -50.5 -35.5c-32.667 -25.333 -60.334 -53 -83.001 -83s-37 -58.667 -43 -86c-1.33301 -6 -4.5 -8.33301 -9.5 -7s-8.5 5 -10.5 11c-4.66699 12.667 -8 27.667 -10 45c-3.33301 19.333 -1.83301 38.166 4.5 56.499
s15.833 35.666 28.5 51.999s27.5 32 44.5 47s34.333 29 52 42s35 24.667 52 35l44.5 27.5c5.33301 3.33301 13.5 8.16602 24.5 14.499s22 13.166 33 20.499s20.667 14.5 29 21.5s12.5 12.5 12.5 16.5c0.666992 6.66699 -2.66602 12 -9.99902 16s-14 6.66699 -20 8z
M81.998 80.0068c-4 -14 -10.168 -24.832 -18.501 -32.499s-16.833 -11.834 -25.5 -12.501s-16.667 2.5 -24 9.5s-12 18.167 -14 33.5c-2 19.333 1.66699 33 11 41s19.833 11.5 31.5 10.5s21.834 -6 30.501 -15s11.667 -20.5 9 -34.5z" />
    <glyph glyph-name="at" unicode="@" horiz-adv-x="562" 
d="M282 118c-15.333 -8 -30.4902 -16.3389 -45.4902 -25.0059s-31.167 -11 -48.5 -7c-16 3.33301 -28.167 11 -36.5 23s-11.5 25.333 -9.5 40c2 13.333 7.33301 27.666 16 42.999s19.167 28.666 31.5 39.999s26 19.166 41 23.499s29.5 2.5 43.5 -5.5c4 4 8 7 12 9
c8.66699 6 17.667 7 27 3s14.666 -10.667 15.999 -20c0.666992 -5.33301 0.833984 -10.5 0.500977 -15.5s-0.5 -10.167 -0.5 -15.5c0 -6.66699 -0.166992 -14 -0.5 -22s0.166992 -15 1.5 -21s4.16602 -10.667 8.49902 -14s11.166 -4 20.499 -2
c34.667 13.333 59.667 36.333 75 69c9.33301 20.667 12.5 39 9.5 55s-9.83301 29.667 -20.5 41s-24.334 19.833 -41.001 25.5s-34.334 8.33398 -53.001 8.00098s-37.5 -3.66602 -56.5 -9.99902s-35.833 -16.166 -50.5 -29.499c-8 -7.33301 -17.833 -17.666 -29.5 -30.999
s-23.334 -28.166 -35.001 -44.499s-22.334 -33.5 -32.001 -51.5s-16.834 -35.333 -21.501 -52s-5.66699 -32.167 -3 -46.5s10.667 -25.833 24 -34.5c12.667 -7.33301 27.334 -12.666 44.001 -15.999s33.667 -5.33301 51 -6s34.666 -0.166992 51.999 1.5
s33 3.83398 47 6.50098c13.333 2 26.666 4.33301 39.999 7s26.666 4.66699 39.999 6c6 1.33301 9.66699 1.5 11 0.5s1.5 -2.5 0.5 -4.5s-2.83301 -4.33301 -5.5 -7s-5.33398 -5 -8.00098 -7c-28.667 -18.667 -58.334 -34 -89.001 -46s-62.667 -19.667 -96 -23
c-18.667 -0.666992 -36.834 1.33301 -54.501 6s-33.834 11.667 -48.501 21s-27.167 20.833 -37.5 34.5s-17.5 29.5 -21.5 47.5c-5.33301 30.667 -3.83301 62.167 4.5 94.5s21 63 38 92s37 55.333 60 79s46.5 42.5 70.5 56.5c22.667 11.333 45.334 18.5 68.001 21.5
s46 0.166992 70 -8.5c24.667 -8 47.834 -19.667 69.501 -35s39 -33.166 52 -53.499s20.333 -42.5 22 -66.5s-4.83301 -48.333 -19.5 -73c-27.333 -43.333 -65 -73.333 -113 -90c-16 -4 -31.167 -4.16699 -45.5 -0.5s-27.166 11.834 -38.499 24.501
c-1.33301 0.666992 -2.33301 1.5 -3 2.5s-1.66699 1.83301 -3 2.5zM207.01 150.994c8 0.666992 15.667 2.5 23 5.5s13.833 6.83301 19.5 11.5s10 10.167 13 16.5s3.5 13.5 1.5 21.5c-13.333 -6 -24.833 -13.167 -34.5 -21.5s-17.167 -19.5 -22.5 -33.5z" />
    <glyph glyph-name="A" unicode="A" horiz-adv-x="707" 
d="M608 340c15.333 -2 30.3271 -5.33594 44.9941 -10.0029s24 -15 28 -31c2.66699 -10.667 -1.33301 -19.667 -12 -27c-12 -6 -24.167 -10 -36.5 -12l-38.5 -6c-0.666992 0 -1.66699 -0.666992 -3 -2s-2 -2.66602 -2 -3.99902
c-15.333 -50.667 -27.666 -103.5 -36.999 -158.5s-19.666 -108.5 -30.999 -160.5c-1.33301 -3.33301 -3 -6.66602 -5 -9.99902s-4.66699 -5 -8 -5c-4.66699 0 -8 1.33301 -10 4s-3.66699 5.66699 -5 9c-12.667 58.667 -19 117.334 -19 176.001
c1.33301 24 3.33301 47.667 6 71s6.66699 46.333 12 69v3c-3.33301 1.33301 -12 2.16602 -26 2.49902s-29.333 0.333008 -46 0s-32.5 -0.666016 -47.5 -0.999023s-25.5 -0.5 -31.5 -0.5c-4 0 -11.667 -3.33301 -23 -10c-27.333 -18.667 -52.833 -39.167 -76.5 -61.5
l-71.5 -64.5c-24 -20.667 -49.333 -39.167 -76 -55.5s-56.334 -27.833 -89.001 -34.5c-9.33301 -1.33301 -18 2 -26 10c-3.33301 3.33301 -3.16602 7.5 0.500977 12.5s8.16699 9.5 13.5 13.5c40 28.667 78.667 59.167 116 91.5l110 97.5
c1.33301 1.33301 2.66602 2.5 3.99902 3.5l7 5.5c-29.333 4 -57.5 9.5 -84.5 16.5s-54.5 13.167 -82.5 18.5c-9.33301 3.33301 -18.666 6.33301 -27.999 9s-18.333 6.33398 -27 11.001c-4.66699 5.33301 -4.5 8.5 0.5 9.5s9.16699 1.5 12.5 1.5
c10 1.33301 19.5 2.5 28.5 3.5s18.5 2.16699 28.5 3.5c42.667 0.666992 81.834 2 117.501 4s71.167 3 106.5 3c3.33301 0 6.16602 0.666992 8.49902 2s4.83301 2.66602 7.5 3.99902c30 28 57.833 56.667 83.5 86s50.334 59.333 74.001 90s46.5 61.834 68.5 93.501l67 95.5
c10.667 15.333 25.334 20.666 44.001 15.999c5.33301 -2 10.333 -6.16699 15 -12.5s7 -13.166 7 -20.499c-5.33301 -60 -15.166 -117.833 -29.499 -173.5s-27.166 -111.5 -38.499 -167.5c0 -1.33301 -0.166992 -2.83301 -0.5 -4.5s-0.5 -2.83398 -0.5 -3.50098z
M540.994 466.997c-8 -9.33301 -17.668 -19.666 -29.001 -30.999l-35 -35l-34.5 -35.5c-11 -11.667 -20.167 -21.834 -27.5 -30.501h1c11.333 0 26.333 0.5 45 1.5s33.667 1.5 45 1.5c0.666992 0 1.33398 0.333008 2.00098 1l2 2c7.33301 21.333 13 42.5 17 63.5
s8.66699 41.833 14 62.5z" />
    <glyph glyph-name="B" unicode="B" horiz-adv-x="715" 
d="M372 412c4 0 7.66113 0.499023 10.9941 1.49902s7 1.5 11 1.5c20 0 42.5 5.33301 67.5 16s48 24 69 40s38 33.667 51 53s17.833 38 14.5 56c-9.33301 20.667 -23.5 36.334 -42.5 47.001s-41.167 17.5 -66.5 20.5s-52.166 2.66699 -80.499 -1
s-56.333 -9.33398 -84 -17.001s-53.667 -17 -78 -28s-44.5 -22.5 -60.5 -34.5c-7.33301 -2.66699 -11.5 -0.833984 -12.5 5.49902s-0.333008 14 2 23s5.66602 18 9.99902 27s8.16602 15.5 11.499 19.5c8.66699 17.333 19.667 31 33 41s28 18 44 24
c26 9.33301 58.667 15.333 98 18s78.666 0.833984 117.999 -5.49902s74.833 -17.5 106.5 -33.5s53.167 -38 64.5 -66c6.66699 -22 8.5 -43.5 5.5 -64.5s-9.33301 -40.5 -19 -58.5s-22.167 -34.667 -37.5 -50s-32 -28.666 -50 -39.999
c-1.33301 -1.33301 -2.66602 -2.33301 -3.99902 -3l-6 -3l32 -13.5c10 -4.33301 19.667 -10.166 29 -17.499c11.333 -8.66699 21 -19.167 29 -31.5s13.333 -24.833 16 -37.5c6.66699 -22 8 -43.833 4 -65.5s-9.66699 -41.5 -17 -59.5c-10 -20 -21.833 -39.5 -35.5 -58.5
s-28.5 -35.167 -44.5 -48.5c-41.333 -46 -88.166 -81.5 -140.499 -106.5s-107.833 -41.167 -166.5 -48.5c-20 -0.666992 -38.667 -0.333984 -56 0.999023s-33.333 5 -48 11s-28 14.667 -40 26s-22.667 26.666 -32 45.999c-13.333 20 -24.833 40.5 -34.5 61.5
s-16 41.833 -19 62.5s-1.5 40 4.5 58s18 34 36 48c12.667 11.333 25.834 21.5 39.501 30.5s29.167 15.167 46.5 18.5l8.5 3.5c2.33301 1 5.16602 1.5 8.49902 1.5h3c-3.33301 -3.33301 -6 -6.66602 -8 -9.99902s-4 -6 -6 -8c-11.333 -14 -22.333 -29.667 -33 -47
s-18.834 -35.333 -24.501 -54s-8.16699 -37.334 -7.5 -56.001s6.33398 -35.667 17.001 -51c9.33301 -13.333 20.5 -23.5 33.5 -30.5s27 -11.667 42 -14s30.167 -3 45.5 -2s30 2.5 44 4.5c45.333 8.66699 86.5 24 123.5 46s71.167 48.667 102.5 80
c8 9.33301 16.5 19.833 25.5 31.5s17.333 23.667 25 36s14.334 25 20.001 38s9.5 25.5 11.5 37.5c-3.33301 18.667 -9.5 32.834 -18.5 42.501s-21.167 16.167 -36.5 19.5s-33.833 4.5 -55.5 3.5s-46.5 -2.83301 -74.5 -5.5c-9.33301 -1.33301 -19 -2.16602 -29 -2.49902
s-20 -1.16602 -30 -2.49902c-0.666992 0 -1.66699 -0.666992 -3 -2c-0.666992 -0.666992 -1.33398 -1 -2.00098 -1c-21.333 -40 -41.666 -80.667 -60.999 -122s-43 -79.666 -71 -114.999c-1.33301 -2 -4.5 -6.5 -9.5 -13.5s-10.333 -13.333 -16 -19s-11.167 -9 -16.5 -10
s-8.66602 3.5 -9.99902 13.5c-3.33301 6.66699 -4.66602 15.5 -3.99902 26.5s2.33398 22.5 5.00098 34.5s5.83398 23.5 9.50098 34.5l8.5 25.5l10 35.5c3.33301 11.667 7.33301 23.167 12 34.5c14.667 29.333 28.5 58.333 41.5 87s27.167 57 42.5 85l24.5 51l25.5 49
c6 9.33301 13.667 14.166 23 14.499s18.166 -2.33398 26.499 -8.00098s15.333 -13.334 21 -23.001s7.83398 -20.167 6.50098 -31.5c-3.33301 -13.333 -7.66602 -25.833 -12.999 -37.5z" />
    <glyph glyph-name="C" unicode="C" horiz-adv-x="611" 
d="M490 659c-1.33301 0 -3.65918 -1.00879 -6.99219 -3.00879l-11 -6.5l-11 -6.5c-3.33301 -2 -5.33301 -3 -6 -3l-27.5 -15c-9 -4.66699 -17.5 -9.66699 -25.5 -15c-38.667 -24.667 -74.834 -51 -108.501 -79s-64.5 -58.333 -92.5 -91
c-18.667 -21.333 -36 -44.166 -52 -68.499s-29.833 -49.666 -41.5 -75.999s-20.667 -53.166 -27 -80.499s-9.16602 -54.666 -8.49902 -81.999c0.666992 -20 3 -38.833 7 -56.5s10.667 -31.167 20 -40.5c14.667 -14 32.167 -20.5 52.5 -19.5s42.333 7 66 18
s48.5 26.167 74.5 45.5s51.5 40.5 76.5 63.5s49 47 72 72s43.833 48.833 62.5 71.5c4.66699 4 9.16699 9.66699 13.5 17s9.16602 13.333 14.499 18c5.33301 3.33301 9.83301 2.33301 13.5 -3s5.5 -10.666 5.5 -15.999c-1.33301 -28.667 -7.5 -54.834 -18.5 -78.501
s-24.167 -45.5 -39.5 -65.5c-18.667 -24 -40.667 -47.833 -66 -71.5s-52.333 -45.167 -81 -64.5s-58.334 -35 -89.001 -47s-60.334 -18 -89.001 -18c-25.333 0 -47.166 4.33301 -65.499 13s-34 20.167 -47 34.5s-23.667 30.833 -32 49.5s-14.833 38.334 -19.5 59.001
c-1.33301 6 -2.5 12.833 -3.5 20.5s-1.5 15.167 -1.5 22.5c0 34.667 3.5 66.834 10.5 96.501s15.5 58.5 25.5 86.5c4 12.667 9.33301 25 16 37c19.333 40.667 44.166 79.834 74.499 117.501s64 72 101 103s76.167 58.167 117.5 81.5s83 41 125 53c11.333 4 22.333 4 33 0
c3.33301 -1.33301 6.66602 -2 9.99902 -2s7 1.66699 11 5c10 6 20.5 6.33301 31.5 1s17.167 -14.666 18.5 -27.999c2 -18.667 -0.333008 -37 -7 -55c-4.66699 -16 -9.5 -31 -14.5 -45l-15.5 -42.5c-5.33301 -14.333 -10.333 -29.833 -15 -46.5s-8.66699 -35.667 -12 -57
c-0.666992 -3.33301 -1.83398 -7.16602 -3.50098 -11.499s-3.5 -7.16602 -5.5 -8.49902c-3.33301 -6 -7.83301 -9.5 -13.5 -10.5s-10.834 1.16699 -15.501 6.5c-1.33301 2 -2.83301 4 -4.5 6s-3.16699 4.33301 -4.5 7c-6.66699 15.333 -10.834 32.666 -12.501 51.999
s-1.33398 38.833 0.999023 58.5s7 38 14 55s15.833 31.167 26.5 42.5z" />
    <glyph glyph-name="D" unicode="D" horiz-adv-x="691" 
d="M203 92c-2 0 -2.99805 0.671875 -2.99805 2.00488c-10 10 -16.167 22.333 -18.5 37s-2.33301 30.334 0 47.001s6.5 33.667 12.5 51s12 33.666 18 48.999c24 58.667 47.333 118.667 70 180l61 171c-30 -7.33301 -58.333 -17 -85 -29s-49.667 -28.667 -69 -50
c-4.66699 -4.66699 -10.5 -11.334 -17.5 -20.001s-13.5 -17.834 -19.5 -27.501s-10.833 -19.334 -14.5 -29.001s-4.83398 -17.5 -3.50098 -23.5c-1.33301 -6 -4.5 -7.33301 -9.5 -4s-10.167 9 -15.5 17s-9.83301 17.167 -13.5 27.5s-4.5 19.833 -2.5 28.5
c7.33301 31.333 20.166 58.166 38.499 80.499s39.833 41.166 64.5 56.499s51 27.333 79 36s55.333 15 82 19c21.333 4 45.166 6.66699 71.499 8s52.666 0.666016 78.999 -2.00098s51.333 -7.83398 75 -15.501s43.834 -18.5 60.501 -32.5c36.667 -23.333 62 -52.5 76 -87.5
s19.333 -71.833 16 -110.5c-10 -43.333 -27.833 -85.833 -53.5 -127.5s-55.5 -80.5 -89.5 -116.5s-70.667 -68.5 -110 -97.5s-77.333 -52.833 -114 -71.5c-4.66699 -3.33301 -9.5 -6.16602 -14.5 -8.49902s-10.5 -5.16602 -16.5 -8.49902c-29.333 -14 -57 -24.833 -83 -32.5
s-51.833 -12.667 -77.5 -15s-51.834 -1.83301 -78.501 1.5s-55 9.66602 -85 18.999c-7.33301 4 -11 7.33301 -11 10s3.33301 6.33398 10 11.001c6.66699 3.33301 13.334 6 20.001 8s13.334 3.33301 20.001 4c26 7.33301 51.833 13.5 77.5 18.5s50.167 12.833 73.5 23.5v3z
M225.002 99.0049c10 0.666992 21.6699 3.66895 35.0029 9.00195s27 11.666 41 18.999s27.333 14.833 40 22.5s23 14.167 31 19.5c56.667 40 109.5 83.833 158.5 131.5s88.167 102.5 117.5 164.5c4 8.66699 7.66699 17.5 11 26.5s5.66602 18.167 6.99902 27.5
c3.33301 20.667 1.66602 38.167 -5.00098 52.5s-16.334 26.333 -29.001 36s-27.667 17.167 -45 22.5s-35 9.16602 -53 11.499s-35.5 3.33301 -52.5 3s-31.5 -1.16602 -43.5 -2.49902c-2 0 -3 -2.33301 -3 -7v-12c-28 -91.333 -58.5 -180.833 -91.5 -268.5
s-72.5 -172.834 -118.5 -255.501z" />
    <glyph glyph-name="E" unicode="E" horiz-adv-x="624" 
d="M93 -4c-9.33301 3.33301 -18.002 7.50488 -26.002 12.5049s-15 11.167 -21 18.5c-9.33301 8 -16.333 16.833 -21 26.5l-14 28.5c-4 11.333 -6.33301 22.666 -7 33.999s-0.333984 23 0.999023 35c2 13.333 5.33301 26 10 38s10 23.667 16 35
c16 26.667 35.833 50.5 59.5 71.5s48.5 38.833 74.5 53.5c1.33301 1.33301 2.33301 2.16602 3 2.49902s1.66699 1.16602 3 2.49902l-10.5 9c-3 2.66699 -6.16699 5.66699 -9.5 9c0 1.33301 -0.5 2.5 -1.5 3.5l-3.5 3.5c-7.33301 12 -11.166 24.5 -11.499 37.5
s1.83398 26.167 6.50098 39.5c8 23.333 20.167 46.333 36.5 69s35.333 44.5 57 65.5s45 40.5 70 58.5s50 33.833 75 47.5s49.333 24.834 73 33.501s44.834 13.667 63.501 15c21.333 2 39.333 -1.66699 54 -11c9.33301 -4.66699 18 -10.167 26 -16.5
s11.333 -15.166 10 -26.499c-5.33301 -34 -9 -67.167 -11 -99.5s-3 -65.166 -3 -98.499c-1.33301 -4 -2 -7.66699 -2 -11s-2.33301 -5.66602 -7 -6.99902c-10 -3.33301 -19.667 -0.333008 -29 9c-13.333 12.667 -23 26.167 -29 40.5s-9.66699 29 -11 44
s-0.666016 30.167 2.00098 45.5s6.33398 30.666 11.001 45.999c-1.33301 3.33301 -8 4 -20 2c-15.333 -2.66699 -32.5 -8.33398 -51.5 -17.001s-39 -19.167 -60 -31.5s-41.667 -26 -62 -41s-39.333 -30.333 -57 -46s-33 -31.334 -46 -47.001s-22.167 -29.834 -27.5 -42.501
c-4 -9.33301 -4.5 -17.333 -1.5 -24s11.833 -10 26.5 -10c14 0 28 1.5 42 4.5s29.5 7.5 46.5 13.5s36.333 13.667 58 23l76.5 34c10 2.66699 15.5 0.666992 16.5 -6s0.166992 -14.5 -2.5 -23.5s-6.33398 -17.667 -11.001 -26s-8 -13.5 -10 -15.5
c-10.667 -8.66699 -23 -16.5 -37 -23.5s-28.5 -13.833 -43.5 -20.5l-44 -20.5c-14.333 -7 -27.166 -14.5 -38.499 -22.5l-41 -29c-16 -11.333 -32.5 -23.666 -49.5 -36.999s-33.333 -27.666 -49 -42.999s-28.834 -30.833 -39.501 -46.5s-17.5 -31.334 -20.5 -47.001
s-0.5 -30.834 7.5 -45.501c4.66699 -8.66699 12.834 -14.334 24.501 -17.001s25.167 -3.16699 40.5 -1.5s32.166 5 50.499 10s36.833 11.167 55.5 18.5c50 19.333 96.5 40.166 139.5 62.499s83.5 47.166 121.5 74.499c6.66699 4.66699 12.667 9.66699 18 15
c1.33301 2 3 1.33301 5 -2s3.66699 -7.83301 5 -13.5s2.5 -12 3.5 -19s1.5 -13.833 1.5 -20.5c-2 -22.667 -11.333 -42.667 -28 -60s-37 -32.666 -61 -45.999c-28 -16 -57.333 -30.5 -88 -43.5s-61.834 -23.5 -93.501 -31.5s-63.667 -12.5 -96 -13.5
s-63.833 2.83301 -94.5 11.5z" />
    <glyph glyph-name="F" unicode="F" horiz-adv-x="506" 
d="M16 324c-6 2 -9.49805 5.66309 -10.498 10.9961s0.5 9.66602 4.5 12.999c11.333 11.333 25.833 21.333 43.5 30s34.167 13 49.5 13l6 6c14.667 32 28.167 63.5 40.5 94.5s27.5 60.5 45.5 88.5c-16 4 -32.333 8.5 -49 13.5s-33.167 10.5 -49.5 16.5s-32 12.833 -47 20.5
s-28.833 16.834 -41.5 27.501c-0.666992 0 -2.83398 1.5 -6.50098 4.5s-6.83398 6.16699 -9.50098 9.5s-4 6.16602 -4 8.49902s3.66699 3.16602 11 2.49902c9.33301 -1.33301 18.5 -3.33301 27.5 -6s17.833 -5 26.5 -7c37.333 -8.66699 76.833 -14.167 118.5 -16.5
s82.834 -1 123.501 4s79.667 14.167 117 27.5s70.666 32 99.999 56c8.66699 6.66699 15 15.334 19 26.001c3.33301 10.667 8.66602 15.334 15.999 14.001s14.166 -6.16602 20.499 -14.499s11 -19.166 14 -32.499s2.16699 -26.666 -2.5 -39.999
c-8 -21.333 -19.833 -38.833 -35.5 -52.5s-33.167 -24.667 -52.5 -33s-39.5 -14.666 -60.5 -18.999s-41.5 -7.5 -61.5 -9.5c-18 -2 -32.167 -3.5 -42.5 -4.5s-18.333 -1.83301 -24 -2.5s-9.66699 -1 -12 -1h-5.5c-3.33301 0 -5.66602 -1.33301 -6.99902 -4l-16 -36
c-5.33301 -12 -10.666 -23.333 -15.999 -34l-21.5 -51c-7 -16.667 -14.5 -33.334 -22.5 -50.001h10c46 0 84 0.833008 114 2.5s54.833 3.33398 74.5 5.00098s35.334 2.66699 47.001 3s21.834 -0.5 30.501 -2.5c6 -2 8.66699 -7.66699 8 -17s-3.5 -19.166 -8.5 -29.499
s-11.333 -19.666 -19 -27.999s-14.834 -12.5 -21.501 -12.5c-44.667 -2 -88.5 -3 -131.5 -3h-127.5c-4.66699 0 -7 -2.66699 -7 -8c-7.33301 -18 -14.333 -37.667 -21 -59l-10.5 -34c-3.66699 -12 -7.83398 -28.333 -12.501 -49s-9.66699 -47.5 -15 -80.5
s-11.333 -75.833 -18 -128.5c0 -4 -0.666992 -7 -2 -9c-4 -6.66699 -9.66699 -8.33398 -17 -5.00098c-8 3.33301 -14.833 10 -20.5 20s-10.167 21.5 -13.5 34.5s-5.83301 27 -7.5 42s-2.5 29.5 -2.5 43.5c-2 40 2.16699 79.333 12.5 118s20.833 75.667 31.5 111
c-6.66699 0.666992 -15.667 1.66699 -27 3s-22 4.66602 -32 9.99902z" />
    <glyph glyph-name="G" unicode="G" horiz-adv-x="614" 
d="M279 166l83.5088 63.9951c25 20 50.5 43 76.5 69l3 3c-17.333 -2.66699 -34.833 -5.66699 -52.5 -9s-35.167 -6.33301 -52.5 -9c-5.33301 -0.666992 -11.5 -0.166992 -18.5 1.5s-13.833 4.83398 -20.5 9.50098s-12.334 10.667 -17.001 18
s-7.33398 16.666 -8.00098 27.999c0 7.33301 1.66699 12 5 14s8.66602 3 15.999 3c26.667 -1.33301 53.167 -0.166016 79.5 3.50098s52.166 8.16699 77.499 13.5c7.33301 1.33301 16.666 3.5 27.999 6.5s22.833 5.83301 34.5 8.5s22.667 4.83398 33 6.50098
s18.5 2.16699 24.5 1.5c10 -1.33301 15 -6.83301 15 -16.5s-0.666992 -20.167 -2 -31.5c0 -4.66699 -0.833008 -9 -2.5 -13s-3.5 -7.66699 -5.5 -11c-24 -24.667 -44.167 -48 -60.5 -70s-31 -45.667 -44 -71s-25.5 -53.666 -37.5 -84.999l-41 -111
c-1.33301 -3.33301 -2.5 -7.16602 -3.5 -11.499s-2.5 -8.16602 -4.5 -11.499s-4.5 -5.5 -7.5 -6.5s-6 -1.33301 -9 -1s-5.83301 1.5 -8.5 3.5s-4.33398 4.33301 -5.00098 7c-8 24 -12.167 47 -12.5 69s0.5 44.667 2.5 68c-48.667 -31.333 -93.334 -51.333 -134.001 -60
s-80 -4.33398 -118 12.999c-28 14.667 -50.667 36.667 -68 66c-14.667 23.333 -23.834 48.166 -27.501 74.499s-4.5 52.5 -2.5 78.5c4 43.333 16.667 83 38 119s44 69.667 68 101c37.333 40 75.833 76.5 115.5 109.5s82.5 61.833 128.5 86.5
c23.333 12 47.666 21.333 72.999 28c4 1.33301 8 3.83301 12 7.5s8.33301 7.16699 13 10.5c9.33301 8 19.333 10.333 30 7c11.333 -3.33301 20.166 -9.5 26.499 -18.5s6.16602 -19.5 -0.500977 -31.5l-39.5 -80.5l-40.5 -80.5c-3.33301 -8 -7.16602 -16.5 -11.499 -25.5
s-8.5 -16.5 -12.5 -22.5c-7.33301 -7.33301 -14 -8 -20 -2s-10.333 13 -13 21c-3.33301 6.66699 -5.66602 14.667 -6.99902 24s-2 18.833 -2 28.5s0.833008 19 2.5 28s4.16699 16.833 7.5 23.5c-43.333 -30.667 -84.5 -63.167 -123.5 -97.5s-72 -70.833 -99 -109.5
s-45.833 -79.334 -56.5 -122.001s-9.33398 -87.667 3.99902 -135c6.66699 -18 18.167 -28.667 34.5 -32s34 -2.66602 53 2.00098s37.833 11.834 56.5 21.501s34.334 18.834 47.001 27.501z" />
    <glyph glyph-name="H" unicode="H" horiz-adv-x="612" 
d="M423 359c-40 -6.66699 -76.8311 -13.4961 -110.498 -20.4961l-101.5 -21.5c-2 0 -3.83301 -0.5 -5.5 -1.5s-2.16699 -2.5 -1.5 -4.5c-11.333 -22 -22.666 -46.833 -33.999 -74.5s-22.333 -56 -33 -85l-30.5 -85.5c-9.66699 -28 -18.834 -53.333 -27.501 -76
c-2.66699 -6 -5.66699 -14.167 -9 -24.5l-10 -30.5c-3.33301 -10 -6.66602 -18.333 -9.99902 -25s-6 -9 -8 -7c-6 -0.666992 -11.333 1.66602 -16 6.99902s-8.66699 12.333 -12 21c-9.33301 24.667 -12.166 52 -8.49902 82s10.5 60.833 20.5 92.5s21.5 63.167 34.5 94.5
s24.167 60 33.5 86l-28 -4c-8 -3.33301 -16.833 -2.16602 -26.5 3.50098s-17.834 12.834 -24.501 21.501s-11 17.5 -13 26.5s0.666992 15.5 8 19.5c-1.33301 -1.33301 2.33398 -0.833008 11.001 1.5l32.5 8.5l41.5 11c14.667 4 27.334 7.66699 38.001 11
c5.33301 1.33301 9 4 11 8s4.66699 8.66699 8 14c5.33301 8.66699 12.666 21.834 21.999 39.501l30 58.5l31.5 65l28 60.5c8.33301 18.333 14.833 33.333 19.5 45s6.66699 17.5 6 17.5l-8 -1c-7.33301 -2.66699 -17.166 -7 -29.499 -13s-25.833 -13.333 -40.5 -22
s-29.667 -18.167 -45 -28.5s-29.5 -20.5 -42.5 -30.5s-24.333 -19.667 -34 -29s-16.167 -17.333 -19.5 -24c-14 4.66699 -20.833 13 -20.5 25s3.66602 24.5 9.99902 37.5s13.833 25 22.5 36s15 18.167 19 21.5c11.333 9.33301 25.166 19.5 41.499 30.5
s33.333 20.833 51 29.5s35.334 15.667 53.001 21s33.834 7 48.501 5h2c14 0 27 -5.83301 39 -17.5s19.333 -23.834 22 -36.501c3.33301 -13.333 3.66602 -26.333 0.999023 -39s-6.33398 -25.667 -11.001 -39l-34 -73l-24.5 -54l-19 -41.5
c-5.66699 -12.333 -11.5 -23.833 -17.5 -34.5h2c22 4.66699 41.333 8.5 58 11.5s32.834 5.5 48.501 7.5s31.834 3.83301 48.501 5.5s36 3.5 58 5.5c7.33301 0 11.666 3 12.999 9c13.333 35.333 27.166 69 41.499 101l44.5 96l12 28c4.66699 10 11 14.833 19 14.5
s15.667 -3.33301 23 -9s13.5 -12.667 18.5 -21s7.16699 -15.833 6.5 -22.5c-2 -9.33301 -4.5 -15.833 -7.5 -19.5s-5.5 -9.83398 -7.5 -18.501l-33 -85c-10.667 -26.667 -22.334 -52.667 -35.001 -78c1.33301 0 2.66602 -0.166992 3.99902 -0.5s2.66602 -0.5 3.99902 -0.5
c4 -0.666992 12 -2.33398 24 -5.00098s23 -5.66699 33 -9c6 -2.66699 10.167 -6.5 12.5 -11.5s3 -9.83301 2 -14.5s-3.33301 -8.83398 -7 -12.501s-8.5 -5.5 -14.5 -5.5c-11.333 -0.666992 -20.166 -1.33398 -26.499 -2.00098s-12 -1.33398 -17 -2.00098
s-10.167 -1.5 -15.5 -2.5s-13 -2.16699 -23 -3.5c-5.33301 -2.66699 -8 -5 -8 -7l-39 -99l-39.5 -107.5l-37.5 -107l-34 -98.5c-3.33301 -8 -8.33301 -11 -15 -9s-12.667 6.66699 -18 14c-6.66699 8 -9.66699 22.167 -9 42.5s3 42 7 65s8.66699 44.833 14 65.5
s9.33301 35.667 12 45c10 38 21.5 72.833 34.5 104.5l33.5 80.5c-2.66699 0 -5.33398 -0.166992 -8.00098 -0.5s-5.66699 -0.833008 -9 -1.5z" />
    <glyph glyph-name="I" unicode="I" horiz-adv-x="467" 
d="M301 625l-87.002 -29.499c-26 -9 -52.667 -20.167 -80 -33.5c-11.333 -6 -20 -5 -26 3c-5.33301 13.333 -5.5 26.666 -0.5 39.999s13.167 24.666 24.5 33.999c24.667 18.667 57 35 97 49s81.5 24.667 124.5 32s85 10.833 126 10.5s74.833 -5.5 101.5 -15.5
c10 -3.33301 16.833 -10 20.5 -20s3.83398 -20 0.500977 -30c-1.33301 -5.33301 -4.5 -10.333 -9.5 -15s-10.5 -8.33398 -16.5 -11.001s-12.333 -4 -19 -4s-12.667 2 -18 6c-3.33301 2.66699 -7.66602 4.33398 -12.999 5.00098s-10.333 1.33398 -15 2.00098
c-16 0.666992 -35.167 0.666992 -57.5 0s-43.166 -2.66699 -62.499 -6l-27.5 -74.5l-27.5 -72.5c-14.667 -37.333 -28.5 -74.666 -41.5 -111.999s-24.333 -74.833 -34 -112.5s-17.334 -75.5 -23.001 -113.5s-8.5 -76.667 -8.5 -116c19.333 0.666992 38.333 1 57 1
s36.667 -2 54 -6c32 -8 61.667 -23 89 -45c4 -4 7.33301 -9.33301 10 -16s0.333984 -11 -6.99902 -13c-3.33301 -0.666992 -7 -1 -11 -1h-11c-59.333 4 -116.833 5.66699 -172.5 5s-111.834 -8.33398 -168.501 -23.001c-5.33301 -1.33301 -10.166 -2.83301 -14.499 -4.5
l-14.5 -5.5c-12.667 -5.33301 -22.334 -4.16602 -29.001 3.50098s-9 17.167 -7 28.5c1.33301 10.667 5.33301 18.5 12 23.5s13.667 9.16699 21 12.5c21.333 9.33301 42.333 15.833 63 19.5s41.334 8.16699 62.001 13.5c-10.667 41.333 -14.334 83.166 -11.001 125.499
s10.833 84.333 22.5 126s25.5 82.834 41.5 123.501l46 118l22 52c6.66699 15.333 12.667 30.666 18 45.999z" />
    <glyph glyph-name="J" unicode="J" horiz-adv-x="654" 
d="M531 613c-7.33301 0 -14.1699 0.164062 -20.5029 0.49707s-12.5 1.16602 -18.5 2.49902c-44 1.33301 -87.333 2.33301 -130 3s-85.334 1.66699 -128.001 3c-9.33301 0 -20 1.66699 -32 5c-9.33301 4 -14.333 12 -15 24c-0.666992 5.33301 0.333008 10.166 3 14.499
s6 8.16602 10 11.499c8.66699 6 17.5 10 26.5 12s18.167 3.33301 27.5 4c40 4.66699 79.5 7.66699 118.5 9s77.833 1.5 116.5 0.5s77.167 -2.33301 115.5 -4s76.833 -2.83398 115.5 -3.50098c11.333 -1.33301 20.5 -6.5 27.5 -15.5s9.83301 -19.167 8.5 -30.5
c-1.33301 -13.333 -6.66602 -24.166 -15.999 -32.499s-20 -12.166 -32 -11.499c-1.33301 0 -2.5 -0.166992 -3.5 -0.5s-2.16699 -0.166016 -3.5 0.500977c-8 0.666992 -17.5 0 -28.5 -2s-21.5 -5.16699 -31.5 -9.5s-18.5 -9.66602 -25.5 -15.999
s-10.5 -13.166 -10.5 -20.499c8.66699 -45.333 12.667 -85.5 12 -120.5s-6 -70.5 -16 -106.5c-16 -52 -41.833 -102.167 -77.5 -150.5s-76.167 -91.166 -121.5 -128.499s-93.333 -67.166 -144 -89.499s-99 -33.166 -145 -32.499c-30 5.33301 -54 19.666 -72 42.999
s-30.667 51.666 -38 84.999c-3.33301 16 -4 32.5 -2 49.5s5.66699 33.833 11 50.5s11.833 32.834 19.5 48.501s15.834 29.834 24.501 42.501c36 51.333 76.667 93.666 122 126.999s93 60.666 143 81.999c28.667 11.333 57.834 17.833 87.501 19.5
s57.834 -2.16602 84.501 -11.499c4.66699 -1.33301 10.334 -4.33301 17.001 -9c8 -9.33301 6.33301 -17.666 -5 -24.999c-2.66699 -2.66699 -5.33398 -4.33398 -8.00098 -5.00098s-5.66699 -1.66699 -9 -3l-104 -36.5c-34.667 -12.333 -68 -27 -100 -44s-62 -37.333 -90 -61
s-53 -52.834 -75 -87.501c-7.33301 -10 -14.5 -21.333 -21.5 -34s-13.167 -25.834 -18.5 -39.501s-9.33301 -27.334 -12 -41.001s-3.33398 -26.167 -2.00098 -37.5c0.666992 -13.333 7 -21.666 19 -24.999s25.667 -4.16602 41 -2.49902s30.5 4.66699 45.5 9l33.5 9.5
c44 16.667 87.667 40.5 131 71.5s81.333 66.667 114 107s57.667 84.833 75 133.5s22.333 99 15 151c-0.666992 7.33301 -2.66699 13.833 -6 19.5s-6.66602 10.834 -9.99902 15.501c-9.33301 11.333 -13.5 23.833 -12.5 37.5s6.83301 27.167 17.5 40.5z" />
    <glyph glyph-name="K" unicode="K" horiz-adv-x="576" 
d="M306 306c10 -31.333 22.835 -65.0107 38.502 -101.011s34.167 -70 55.5 -102s45.666 -59.667 72.999 -83s57.666 -37.666 90.999 -42.999c10 -1.33301 19.667 -1.83301 29 -1.5s16.666 2.5 21.999 6.5c2 1.33301 3.83301 1.66602 5.5 0.999023s2.33398 -2 2.00098 -4
s-2 -4.83301 -5 -8.5s-8.5 -8.16699 -16.5 -13.5c-33.333 -22.667 -63.833 -34 -91.5 -34s-53.334 7.33301 -77.001 22s-45.334 34.834 -65.001 60.501s-37.5 53.334 -53.5 83.001s-30.5 59.5 -43.5 89.5s-24.833 56 -35.5 78c-12 -10 -28.167 -26.333 -48.5 -49
s-40.5 -48.167 -60.5 -76.5s-37.5 -57.833 -52.5 -88.5s-23.5 -58.667 -25.5 -84c-1.33301 -10.667 -5.5 -13 -12.5 -7s-14 16.667 -21 32s-12 33.833 -15 55.5s-1.16699 42.834 5.5 63.501c14.667 44.667 31.834 88.167 51.501 130.5s40.5 83.666 62.5 123.999l67 119.5
c22.667 39.333 44.334 79 65.001 119c4.66699 9.33301 10 19.333 16 30s8.66699 20 8 28c0 3.33301 -4.5 4 -13.5 2s-20.167 -6.16699 -33.5 -12.5s-28.333 -14.166 -45 -23.499s-33 -19.833 -49 -31.5s-30.5 -24.167 -43.5 -37.5s-22.833 -27 -29.5 -41
c-18 2.66699 -30.333 9.33398 -37 20.001s-9.16699 22.834 -7.5 36.501s7 27.334 16 41.001s20.167 25.167 33.5 34.5c18.667 12.667 36.834 23.334 54.501 32.001s39.167 18.334 64.5 29.001c20.667 8 41.667 14.5 63 19.5s38.666 4.5 51.999 -1.5
c13.333 -5.33301 23.833 -14.166 31.5 -26.499s15.5 -27.166 23.5 -44.499c4 -8 5.66699 -16.5 5 -25.5s-2.33398 -18 -5.00098 -27s-6.16699 -18 -10.5 -27l-12.5 -25.5l-132 -225l60 56.5c22.667 21 46.834 42.167 72.501 63.5s52.334 41.833 80.001 61.5
s55.667 36.5 84 50.5s56.333 24.333 84 31s54.5 7.66699 80.5 3c4.66699 -0.666992 10.5 -3 17.5 -7s13.167 -8.33301 18.5 -13s8.5 -9 9.5 -13s-2.16699 -6.33301 -9.5 -7c-2.66699 0 -7.33398 -0.666992 -14.001 -2c-30.667 -6 -64 -17.5 -100 -34.5
s-71.333 -36.667 -106 -59s-67 -46.166 -97 -71.499s-54.667 -49.333 -74 -72z" />
    <glyph glyph-name="L" unicode="L" horiz-adv-x="751" 
d="M311 609c-4 -2 -10.6689 -4.33105 -20.002 -6.99805s-19.333 -5 -30 -7s-21 -3.33301 -31 -4s-17.667 0 -23 2s-7.16602 5.66699 -5.49902 11s8.5 13 20.5 23l79.5 52c25.667 16 52.5 28.667 80.5 38c12 4 23.333 3.66699 34 -1s19.834 -11.834 27.501 -21.501
s13.5 -21 17.5 -34s5 -25.5 3 -37.5c-0.666992 -2.66699 -1.83398 -4.83398 -3.50098 -6.50098s-3.16699 -3.83398 -4.5 -6.50098l-69 -123c-24.667 -44.667 -49 -91.167 -73 -139.5s-46.833 -97.166 -68.5 -146.499s-39.834 -97.333 -54.501 -144l-3 -16l126 23
c45.333 8 90.833 13 136.5 15s89.667 -0.833008 132 -8.5s79.833 -23.5 112.5 -47.5c2.66699 -2 5.33398 -4.83301 8.00098 -8.5s4.66699 -7.66699 6 -12s1.5 -8.16602 0.5 -11.499s-3.83301 -5.33301 -8.5 -6c-53.333 10.667 -107.166 16.5 -161.499 17.5
s-108.5 -1.33301 -162.5 -7s-107.167 -14.5 -159.5 -26.5s-102.5 -25.667 -150.5 -41c-6 -2 -12.833 -3.33301 -20.5 -4s-15.167 -0.166992 -22.5 1.5s-14 4.5 -20 8.5s-10 9.33301 -12 16c-3.33301 9.33301 -2.66602 18.5 2.00098 27.5s11.667 15.167 21 18.5
c14.667 5.33301 29.334 10.333 44.001 15s29 9 43 13c7.33301 2 11.333 6.33301 12 13c9.33301 56 24.166 112.667 44.499 170s42.666 112.5 66.999 165.5s48.833 102.167 73.5 147.5s46.667 83.666 66 114.999c-9.33301 -4 -18.333 -8.33301 -27 -13s-17.667 -9 -27 -13z
" />
    <glyph glyph-name="M" unicode="M" horiz-adv-x="861" 
d="M345 291c6.66699 24.667 15.1689 50.165 25.502 76.498s21.333 52.5 33 78.5l35.5 76l34 70c-31.333 -19.333 -62.833 -42.666 -94.5 -69.999s-62.5 -57.666 -92.5 -90.999s-58.333 -69.333 -85 -108s-50.5 -78.834 -71.5 -120.501s-38.167 -84.5 -51.5 -128.5
s-21.666 -88.333 -24.999 -133c-3.33301 -7.33301 -7.33301 -11.166 -12 -11.499s-10 0.166992 -16 1.5c-15.333 4 -25.333 15.167 -30 33.5s-6 39.666 -4 63.999s6.16699 49.5 12.5 75.5s12.5 49 18.5 69c16.667 53.333 34.834 103 54.501 149s40.167 91 61.5 135l64.5 132
c21.667 44 42.834 91 63.501 141c4 4 10.833 4.5 20.5 1.5s19.5 -7.83301 29.5 -14.5s19 -14.5 27 -23.5s12 -17.5 12 -25.5c0 -8.66699 -4 -21.5 -12 -38.5s-17.5 -35.667 -28.5 -56l-34 -63c-11.667 -21.667 -21.167 -41.5 -28.5 -59.5c40.667 44 81.667 86 123 126
s86 75 134 105c11.333 6 22.166 7.33301 32.499 4s18.833 -9.5 25.5 -18.5s11.334 -19.667 14.001 -32s2 -24.166 -2 -35.499l-20 -48.5l-25 -61.5l-25 -62l-19 -48c20.667 26.667 46.334 55 77.001 85s62 58.833 94 86.5s62.667 53 92 76s53.666 41.167 72.999 54.5
c9.33301 6.66699 19.5 6 30.5 -2s20.5 -18.5 28.5 -31.5s13.167 -26.167 15.5 -39.5s0.166016 -22 -6.50098 -26c-32 -54.667 -60.167 -105.334 -84.5 -152.001s-45 -93.334 -62 -140.001s-29.667 -94.667 -38 -144s-12.5 -103.666 -12.5 -162.999
c0 -3.33301 -1.66699 -5.5 -5 -6.5s-6 -1.5 -8 -1.5c-11.333 0.666992 -20.833 2.33398 -28.5 5.00098s-14.5 6.33398 -20.5 11.001c-20 16 -31.5 40 -34.5 72s-0.333008 67.667 8 107s20.5 80.666 36.5 123.999s33.167 84.5 51.5 123.5s36.166 73.833 53.499 104.5
s31 53.334 41 68.001c-30 -18 -61.833 -42.167 -95.5 -72.5s-67 -62.833 -100 -97.5s-64.333 -70 -94 -106s-54.834 -68.333 -75.501 -97c-6.66699 -2.66699 -14.834 -2.83398 -24.501 -0.500977s-19 6.83301 -28 13.5s-16.333 15 -22 25s-7.83398 21.667 -6.50098 35z" />
    <glyph glyph-name="N" unicode="N" horiz-adv-x="643" 
d="M624 591c-56 -32 -109.666 -69.0039 -160.999 -111.004s-100 -86.333 -146 -133s-89 -94.667 -129 -144s-76.667 -97.333 -110 -144c-6.66699 -9.33301 -11.834 -18.5 -15.501 -27.5s-7.83398 -17.5 -12.501 -25.5c-4 -7.33301 -8.83301 -9.66602 -14.5 -6.99902
s-11.167 8.16699 -16.5 16.5s-9.83301 18.166 -13.5 29.499s-5.5 22 -5.5 32c2.66699 61.333 8.5 117.833 17.5 169.5s20.167 101.667 33.5 150s28.333 96.333 45 144l51 152.5c3.33301 10.667 8.33301 17 15 19s13.834 1.33301 21.501 -2s15.5 -8.83301 23.5 -16.5
s15 -16.167 21 -25.5s10.5 -18.666 13.5 -27.999s3.83301 -17.333 2.5 -24c-6.66699 -26 -15.667 -52.333 -27 -79l-39 -92.5c-14.667 -35 -30.334 -76.333 -47.001 -124s-34 -105.167 -52 -172.5l113 132c41.333 49.333 86.5 98.333 135.5 147s101.833 94.667 158.5 138
s117.334 78.666 182.001 105.999c10 4.66699 19.333 4.16699 28 -1.5s16.667 -12.167 24 -19.5c10.667 -9.33301 15.5 -20.5 14.5 -33.5s-3.83301 -24.167 -8.5 -33.5c-27.333 -45.333 -52.833 -94.666 -76.5 -147.999s-45 -108 -64 -164s-35.5 -111.667 -49.5 -167
s-24.667 -107.333 -32 -156c-1.33301 -10.667 -2.33301 -20.167 -3 -28.5s-1 -18.833 -1 -31.5c0 -8.66699 -3 -13 -9 -13c-4 0 -8 2.5 -12 7.5s-7.33301 10.833 -10 17.5c-11.333 30 -17.5 63.833 -18.5 101.5s1.33301 76.834 7 117.501s14.5 82.334 26.5 125.001
s25.5 84.667 40.5 126s31.167 80.833 48.5 118.5s34.333 71.834 51 102.501z" />
    <glyph glyph-name="O" unicode="O" horiz-adv-x="560" 
d="M445 284c21.333 -2 38.8408 -2.66992 52.5078 -2.00293s30.5 2 50.5 4c14.667 2 22 0.833008 22 -3.5s-3.16699 -9.5 -9.5 -15.5s-13.833 -11.833 -22.5 -17.5s-14.334 -8.83398 -17.001 -9.50098c-11.333 -5.33301 -21.333 -9.83301 -30 -13.5
s-17.334 -6.66699 -26.001 -9s-17.334 -3.83301 -26.001 -4.5s-18.334 -1 -29.001 -1c-12 -21.333 -27 -45.5 -45 -72.5s-38.167 -52.333 -60.5 -76s-46.666 -43.5 -72.999 -59.5s-53.5 -24 -81.5 -24c-32 0.666992 -57.833 8 -77.5 22s-34.834 31.333 -45.501 52
s-17.667 42.667 -21 66s-5 44.666 -5 63.999c0 28 1.33301 55.333 4 82s6.66699 53.334 12 80.001c3.33301 17.333 7 34.666 11 51.999l12 53c4.66699 18 13 28.667 25 32s23.667 2.5 35 -2.5s20.666 -12.833 27.999 -23.5s8.66602 -21 3.99902 -31
c-7.33301 -17.333 -14.666 -40.5 -21.999 -69.5s-13.5 -59.833 -18.5 -92.5s-8.5 -64.834 -10.5 -96.501s-1 -58.5 3 -80.5c2.66699 -15.333 7.5 -29.166 14.5 -41.499s15.5 -17.833 25.5 -16.5c12 -1.33301 27.5 5.16699 46.5 19.5s38.167 31.833 57.5 52.5
s37.333 42.667 54 66s28.667 43.333 36 60c-26 10 -49.333 25 -70 45s-38.334 43 -53.001 69s-25.834 53.833 -33.501 83.5s-11 59.334 -10 89.001s6.5 58 16.5 85s25.333 50.833 46 71.5c27.333 26.667 56.166 43.334 86.499 50.001s60.5 4.33398 90.5 -6.99902
c25.333 -9.33301 45 -23.666 59 -42.999s23.833 -41.666 29.5 -66.999s8.16699 -52.5 7.5 -81.5s-3.33398 -58 -8.00098 -87s-10.167 -56.5 -16.5 -82.5s-12.166 -48.667 -17.499 -68zM336.008 676.997c-25.333 -9.33301 -45.5068 -23.6689 -60.5068 -43.002
s-25.667 -41.166 -32 -65.499s-8.66602 -50.166 -6.99902 -77.499s7.16699 -53.5 16.5 -78.5s22 -47.833 38 -68.5s35 -36.667 57 -48c10.667 20 20.334 42.5 29.001 67.5s15.334 50.833 20.001 77.5s7.33398 53 8.00098 79s-1.16602 49.833 -5.49902 71.5
s-11.666 40 -21.999 55s-24.166 25.167 -41.499 30.5z" />
    <glyph glyph-name="P" unicode="P" horiz-adv-x="850" 
d="M-4 420c0.666992 36.667 8.99707 69.6709 24.9971 99.0039s37.167 55.166 63.5 77.499s56.333 41.333 90 57s68.5 28.334 104.5 38.001s71.667 16.834 107 21.501s67.666 7 96.999 7c30.667 0 62.667 -2.33301 96 -7s65.333 -11.834 96 -21.501
s59.167 -22.334 85.5 -38.001s47.833 -34.667 64.5 -57s27.5 -48.333 32.5 -78s1.83301 -63.5 -9.5 -101.5c-11.333 -36 -30.666 -68.667 -57.999 -98s-59 -54.833 -95 -76.5s-74.5 -39.5 -115.5 -53.5s-81 -23.333 -120 -28s-75.167 -4.83398 -108.5 -0.500977
s-60 13.833 -80 28.5l-25 -53c-8.66699 -18 -17.167 -37.5 -25.5 -58.5s-16.666 -43.833 -24.999 -68.5s-16.166 -52 -23.499 -82l-4 -12.5c-1.33301 -4.33301 -3 -7.83301 -5 -10.5s-4.33301 -3.83398 -7 -3.50098s-5.33398 3.5 -8.00098 9.5
c-9.33301 17.333 -14.666 39.666 -15.999 66.999s0.166992 56 4.5 86s10.833 59.333 19.5 88s18.334 53.667 29.001 75c2.66699 4 4.66699 8 6 12s0 7.66699 -4 11c-24.667 -2 -48 1.33301 -70 10s-41.667 21 -59 37s-31.5 34.833 -42.5 56.5s-17.5 44.167 -19.5 67.5z
M681.997 365.004c36 31.333 61.001 60.501 75.001 87.501s19.5 51.5 16.5 73.5s-13.167 41.5 -30.5 58.5s-38.833 31.167 -64.5 42.5s-54.667 19.5 -87 24.5s-64.833 6.83301 -97.5 5.5c-42 -2 -84.5 -7.83301 -127.5 -17.5s-82.333 -23 -118 -40s-66 -38 -91 -63
s-40.5 -53.833 -46.5 -86.5c-5.33301 -28 -0.833008 -56.333 13.5 -85s41.166 -54 80.499 -76l41 92.5l25 54c6 13 10.5 22.5 13.5 28.5s5.83301 11.333 8.5 16c6 8.66699 14.5 11.667 25.5 9s21.333 -8.5 31 -17.5s17.167 -20 22.5 -33s5.33301 -25.5 0 -37.5
c-7.33301 -16 -14.333 -30.5 -21 -43.5l-19 -38l-19 -38c-6.66699 -13 -13.667 -27.5 -21 -43.5c26.667 0.666992 57.5 3.66699 92.5 9s70.5 13.166 106.5 23.499s70.667 23.333 104 39s62.333 34.167 87 55.5z" />
    <glyph glyph-name="Q" unicode="Q" horiz-adv-x="561" 
d="M443 286c21.333 -2 39.1699 -2.99805 53.5029 -2.99805s31.5 1 51.5 3c14.667 2 22 0.833008 22 -3.5s-3.16699 -9.5 -9.5 -15.5s-13.833 -11.833 -22.5 -17.5s-14.334 -8.83398 -17.001 -9.50098c-22 -11.333 -41 -18.666 -57 -21.999s-34.667 -4.66602 -56 -3.99902
l-28 -49c-10.667 -18 -22.5 -36.167 -35.5 -54.5s-27.333 -35.833 -43 -52.5s-32.5 -31 -50.5 -43c34 1.33301 63.833 1.66602 89.5 0.999023s41.167 -1.33398 46.5 -2.00098l42 -8c14 -2.66699 27.667 -6.66699 41 -12c8 -2 12.667 -4 14 -6s1 -3.83301 -1 -5.5
s-5.33301 -3.16699 -10 -4.5s-9 -2.33301 -13 -3c-68.667 -7.33301 -135 -14.833 -199 -22.5s-128 -18.834 -192 -33.501c-0.666992 -0.666992 -1.5 -1 -2.5 -1s-2.16699 -0.333008 -3.5 -1c-10.667 0 -18 4.33301 -22 13c-8 15.333 -7.16699 28 2.5 38s24.5 18.333 44.5 25
c-18.667 8.66699 -33.667 20.5 -45 35.5s-20.166 31.333 -26.499 49s-10.5 35.834 -12.5 54.501s-3 36 -3 52c0 28 1.33301 55.333 4 82s6.66699 53.334 12 80.001l23 105c4.66699 18 13 28.667 25 32s23.667 2.5 35 -2.5s20.666 -12.833 27.999 -23.5
s8.66602 -21 3.99902 -31c-7.33301 -17.333 -14.666 -40.5 -21.999 -69.5s-13.5 -59.833 -18.5 -92.5s-8.5 -64.834 -10.5 -96.501s-1 -58.5 3 -80.5c2.66699 -15.333 7.16699 -27.5 13.5 -36.5s14.5 -12.833 24.5 -11.5c12 -1.33301 27.667 4.66699 47 18
s38.666 29.666 57.999 48.999s37.5 40.166 54.5 62.499s29.167 41.833 36.5 58.5c-26 10 -49.333 25 -70 45s-38.334 43 -53.001 69s-25.834 53.833 -33.501 83.5s-11 59.334 -10 89.001s6.5 58 16.5 85s25.333 50.833 46 71.5c34.667 34 71.834 52 111.501 54
s78.167 -11 115.5 -39c14.667 -10.667 25.334 -26.167 32.001 -46.5s10.834 -43 12.501 -68s1.16699 -51.333 -1.5 -79s-6.33398 -54.5 -11.001 -80.5s-9.83398 -50 -15.501 -72s-10.5 -39.667 -14.5 -53zM325.004 687.002
c-26.667 -8.66699 -47.666 -22.834 -62.999 -42.501s-25.833 -42.167 -31.5 -67.5s-6.83398 -52.166 -3.50098 -80.499s10.333 -55.5 21 -81.5s24.5 -49.5 41.5 -70.5s36.5 -37.167 58.5 -48.5c10.667 20 20.167 43.167 28.5 69.5s14.666 53.833 18.999 82.5
s6.5 56.834 6.5 84.501s-2.66699 52.667 -8 75s-13.666 40.666 -24.999 54.999s-26 22.5 -44 24.5z" />
    <glyph glyph-name="R" unicode="R" horiz-adv-x="562" 
d="M2 327c3.33301 5.33301 7.8291 8.66504 13.4961 9.99805l17.5 4c8.66699 1.33301 17.334 2.5 26.001 3.5s17.667 2.16699 27 3.5c6.66699 0 11 3.33301 13 10l24 39c10 16.667 21.333 34.5 34 53.5s26.5 37.833 41.5 56.5s30.5 34.667 46.5 48s32.333 22.666 49 27.999
s33 4.33301 49 -3c13.333 -6.66699 23.333 -14.834 30 -24.501s5.66699 -17.167 -3 -22.5c-9.33301 -5.33301 -19.5 -10.166 -30.5 -14.499s-20.167 -10.166 -27.5 -17.499c-17.333 -17.333 -32.333 -37.333 -45 -60s-26.334 -43 -41.001 -61
c18.667 2.66699 41.5 10.167 68.5 22.5s55 27.333 84 45s57 37 84 58s49.333 41 67 60s29.334 36.333 35.001 52s1.5 26.834 -12.5 33.501c-13.333 6.66699 -28.166 11.5 -44.499 14.5s-33.333 4.5 -51 4.5s-35.334 -1.16699 -53.001 -3.5s-34.5 -5.5 -50.5 -9.5
c-15.333 -3.33301 -34.166 -9.33301 -56.499 -18s-44.5 -18.667 -66.5 -30s-42.333 -23.666 -61 -36.999s-32 -26.333 -40 -39c-9.33301 18 -11.833 35 -7.5 51s12.833 30.833 25.5 44.5s28.167 26.167 46.5 37.5s37.333 21.166 57 29.499s38.5 15.333 56.5 21
s33 9.83398 45 12.501c41.333 9.33301 79.333 13.333 114 12s68.334 -10.333 101.001 -27c14.667 -6.66699 27.167 -15.667 37.5 -27s18.166 -23.833 23.499 -37.5s8.16602 -27.834 8.49902 -42.501s-2.5 -28.334 -8.5 -41.001
c-15.333 -33.333 -34.833 -63.666 -58.5 -90.999s-50.167 -51.666 -79.5 -72.999s-60.5 -40 -93.5 -56s-65.833 -29 -98.5 -39c-2 -1.33301 -4.16699 -2.16602 -6.5 -2.49902s-4.5 -1.16602 -6.5 -2.49902c-1.33301 0 -2 -0.666992 -2 -2v-4c0 -22 3.5 -46.167 10.5 -72.5
s16.333 -52.5 28 -78.5s24.834 -50.333 39.501 -73s29.667 -41.667 45 -57c22.667 -22 48.334 -40.5 77.001 -55.5s58.667 -26 90 -33s62.833 -9.66699 94.5 -8s61.5 8.16699 89.5 19.5c0.666992 0 1 -0.666992 1 -2c1.33301 -2.66699 1.66602 -5.33398 0.999023 -8.00098
c-4 -16.667 -13.5 -30.834 -28.5 -42.501s-32.333 -20.834 -52 -27.501s-40.667 -11.167 -63 -13.5s-42.833 -2.16602 -61.5 0.500977c-50 6.66699 -96.333 24 -139 52s-79.834 62.333 -111.501 103s-57.167 85.5 -76.5 134.5s-30.666 98.167 -33.999 147.5h-23
c-5.33301 0 -8 -1.33301 -8 -4c-11.333 -18 -20.666 -36.833 -27.999 -56.5s-14.166 -39.334 -20.499 -59.001l-19.5 -59c-6.66699 -19.667 -14.667 -38.834 -24 -57.501c-6.66699 -12.667 -13.667 -12.667 -21 0c-7.33301 10.667 -12 24.334 -14 41.001
c-4 40 -3.66699 76.333 1 109s14.667 65.334 30 98.001l-17.5 6c-5.66699 2 -11.5 3.66699 -17.5 5c-6 2 -11.5 4.66699 -16.5 8s-9.16699 8 -12.5 14z" />
    <glyph glyph-name="S" unicode="S" horiz-adv-x="503" 
d="M194 270c-24.667 -17.333 -47.665 -38.502 -68.998 -63.502s-38.666 -50 -51.999 -75s-21.166 -47.833 -23.499 -68.5s3.5 -35.334 17.5 -44.001c11.333 -7.33301 27.333 -7.83301 48 -1.5s43 17 67 32s48.5 33 73.5 54s47.833 42.5 68.5 64.5s37.667 43.167 51 63.5
s20.666 37.5 21.999 51.5c2 14.667 -1 27.167 -9 37.5s-19.167 19.333 -33.5 27s-30.5 14.334 -48.5 20.001s-36.167 11 -54.5 16s-35.833 10.167 -52.5 15.5s-30.667 11.666 -42 18.999c-12.667 8 -22.667 17.5 -30 28.5s-12.666 22.5 -15.999 34.5
s-4.83301 24.333 -4.5 37s2.16602 24.667 5.49902 36c5.33301 22 17.5 43.333 36.5 64s40.833 38.834 65.5 54.501s50.334 27.667 77.001 36s50.667 11.166 72 8.49902c20 -3.33301 36.667 -9 50 -17s23.333 -21.667 30 -41c4.66699 -16 4.66699 -33 0 -51
s-11.834 -35.167 -21.501 -51.5s-20.834 -31.333 -33.501 -45s-24.667 -24.167 -36 -31.5c-5.33301 -4 -11 -7 -17 -9s-11.667 -3.33301 -17 -4s-9.5 -0.333984 -12.5 0.999023s-3.83301 3.33301 -2.5 6c8 14 16.5 29.667 25.5 47s17.5 34.5 25.5 51.5
s14.667 32.833 20 47.5s8.66602 26.334 9.99902 35.001c1.33301 7.33301 -0.5 11.333 -5.5 12s-11.167 0 -18.5 -2c-12.667 -4 -27.834 -10.333 -45.501 -19s-35 -18.5 -52 -29.5s-32 -22.667 -45 -35s-20.833 -23.833 -23.5 -34.5
c-3.33301 -6.66699 -4.16602 -13 -2.49902 -19s4.33398 -11.5 8.00098 -16.5s8 -9.33301 13 -13s9.5 -6.83398 13.5 -9.50098c18 -11.333 36 -21.166 54 -29.499s35.5 -17 52.5 -26s33.5 -18.667 49.5 -29s31 -22.833 45 -37.5c21.333 -22.667 34.833 -47.667 40.5 -75
s3.83398 -54.333 -5.49902 -81c-10.667 -33.333 -28.5 -66.166 -53.5 -98.499s-53.833 -60.833 -86.5 -85.5s-66.834 -43.667 -102.501 -57s-69.167 -18 -100.5 -14c-32 4.66699 -58 15.334 -78 32.001s-33.333 40 -40 70c-5.33301 26.667 -5 52 1 76s16 46 30 66
s30.667 38 50 54s39.666 29 60.999 39c12.667 6.66699 25.667 11.834 39 15.501s26.666 6.5 39.999 8.5c12.667 2.66699 19 2.16699 19 -1.5s-3 -8.5 -9 -14.5s-13.167 -12.167 -21.5 -18.5z" />
    <glyph glyph-name="T" unicode="T" horiz-adv-x="413" 
d="M413 622c-1.33301 -3.33301 -0.676758 -7.00195 1.99023 -11.002s5.33398 -8.33301 8.00098 -13s4.5 -9.5 5.5 -14.5s-0.166992 -9.83301 -3.5 -14.5c-38.667 -72 -73.667 -150.5 -105 -235.5s-63 -181.833 -95 -290.5l-5.5 -20c-1.66699 -6 -3.5 -12 -5.5 -18l-6.5 -20
c-2.33301 -7.33301 -4.83301 -16 -7.5 -26c-4 -8.66699 -9.33301 -11.334 -16 -8.00098c-9.33301 4 -15.666 13.833 -18.999 29.5s-5.33301 32.834 -6 51.501s-0.333984 36.5 0.999023 53.5s2.66602 28.833 3.99902 35.5c6 38 14.667 78.833 26 122.5s25 87.167 41 130.5
s33.833 85.166 53.5 125.499s41.167 76.833 64.5 109.5c3.33301 3.33301 5.33301 5.66602 6 6.99902c-4.66699 2 -16 2.5 -34 1.5s-37.833 -2.66699 -59.5 -5s-43 -5.33301 -64 -9s-36.833 -7.16699 -47.5 -10.5c2.66699 -3.33301 8.33398 -8.66602 17.001 -15.999
s16.834 -14.666 24.501 -21.999s12.334 -13.833 14.001 -19.5s-3.16602 -8.5 -14.499 -8.5c-15.333 0 -30.166 1.83301 -44.499 5.5s-27.833 8.83398 -40.5 15.501l-22.5 11.5c-8.33301 4.33301 -16.166 9 -23.499 14s-13.666 10.5 -18.999 16.5s-8 12.667 -8 20
c0 18.667 9 32.667 27 42c38.667 18.667 86.334 33 143.001 43s116.834 16.167 180.501 18.5s128 1.16602 193 -3.50098s124.833 -12 179.5 -22c3.33301 -0.666992 8.5 -2.33398 15.5 -5.00098s14.5 -6 22.5 -10s15.667 -8.16699 23 -12.5s12.833 -8.66602 16.5 -12.999
s4.66699 -8.16602 3 -11.499s-7.16699 -5.66602 -16.5 -6.99902s-18.666 -2 -27.999 -2h-28h-176.5c-59 0 -117.167 -1.66699 -174.5 -5z" />
    <glyph glyph-name="U" unicode="U" horiz-adv-x="558" 
d="M67 483c-4 -2 -9.33496 -1.33496 -16.002 1.99805s-13.167 8.33301 -19.5 15s-11.5 14.167 -15.5 22.5s-5.33301 16.166 -4 23.499c4.66699 26.667 15.5 50.167 32.5 70.5s36.333 37.5 58 51.5s43.667 25.167 66 33.5s40.833 13.5 55.5 15.5
c14 2.66699 26.333 2.33398 37 -0.999023s19.334 -8.83301 26.001 -16.5s11 -16.667 13 -27s1.66699 -20.833 -1 -31.5c-2 -16 -9.83301 -39.5 -23.5 -70.5s-30.334 -66 -50.001 -105l-61.5 -122.5c-21.333 -42.667 -40.5 -83.167 -57.5 -121.5s-30.167 -72.5 -39.5 -102.5
s-11 -52 -5 -66c2.66699 -6 6.33398 -7.66699 11.001 -5s10 5.33398 16 8.00098c26.667 11.333 54.834 32.833 84.501 64.5s59.5 68.667 89.5 111s59.667 87.666 89 135.999l82.5 140l70 122.5c21 36.667 38.167 64.667 51.5 84c8.66699 10 18 14.333 28 13
s18.667 -6.16602 26 -14.499s12.333 -18.666 15 -30.999s1 -24.5 -5 -36.5l-41 -75.5c-13.333 -25 -25 -50.5 -35 -76.5c-14.667 -38.667 -28.5 -79.167 -41.5 -121.5s-24.167 -85.333 -33.5 -129s-16.166 -87.334 -20.499 -131.001s-4.83301 -85.834 -1.5 -126.501
c1.33301 -23.333 -0.833984 -37.666 -6.50098 -42.999s-16.167 -0.333008 -31.5 15c-14 14 -24.5 29.5 -31.5 46.5s-11.5 35 -13.5 54s-2 38.833 0 59.5s5 42 9 64c7.33301 40.667 16.166 80.667 26.499 120l31.5 120c-6.66699 -12 -16 -30.5 -28 -55.5
s-26.167 -52.833 -42.5 -83.5s-34.5 -62.667 -54.5 -96s-41.333 -64 -64 -92s-46.167 -51.833 -70.5 -71.5s-49.166 -31.5 -74.499 -35.5c-14.667 -4 -28.334 -1.16699 -41.001 8.5s-23.5 21.834 -32.5 36.501s-15.667 30.334 -20 47.001s-5.5 30 -3.5 40
c8.66699 42 20 85.667 34 131s29.833 90.166 47.5 134.499s36.5 87.666 56.5 129.999s40.333 81.5 61 117.5c-16 -10 -30.167 -19.833 -42.5 -29.5s-23.666 -20 -33.999 -31s-20 -23.667 -29 -38s-17.833 -31.166 -26.5 -50.499z" />
    <glyph glyph-name="V" unicode="V" horiz-adv-x="413" 
d="M58 3c-11.333 15.333 -21.3359 32.3369 -30.0029 51.0039s-15.667 37.667 -21 57c-11.333 85.333 -11.666 168.166 -0.999023 248.499s28 159.5 52 237.5c4 8.66699 12.667 13 26 13s26.666 -3 39.999 -9s24.333 -14 33 -24s10.667 -20.333 6 -31
c-7.33301 -16 -14.666 -37.5 -21.999 -64.5s-14.333 -56.833 -21 -89.5s-12.5 -66.834 -17.5 -102.501s-8.66699 -69.834 -11 -102.501s-2.83301 -62.167 -1.5 -88.5s5.33301 -47.166 12 -62.499c31.333 42 60 85.5 86 130.5s50.5 90.667 73.5 137
s44.833 93.166 65.5 140.499l61 140c10 23.333 19.833 48 29.5 74s22.5 48.333 38.5 67c6.66699 6 11.834 8 15.501 6s6.16699 -5.83301 7.5 -11.5s2 -11.667 2 -18v-14.5c-4.66699 -30.667 -8.66699 -61 -12 -91s-10.333 -59 -21 -87l-53.5 -131
c-18.333 -43.333 -38 -86 -59 -128s-43.667 -82.833 -68 -122.5s-50.833 -77.5 -79.5 -113.5c-22.667 -28.667 -45.167 -43.834 -67.5 -45.501s-43.166 9.83301 -62.499 34.5z" />
    <glyph glyph-name="W" unicode="W" horiz-adv-x="662" 
d="M291 305c-7.33301 -10 -15.3301 -25.666 -23.9971 -46.999s-17.834 -45.333 -27.501 -72l-31.5 -83c-11.333 -28.667 -23 -55.334 -35 -80.001s-24.5 -45.667 -37.5 -63s-26.5 -27.666 -40.5 -30.999c-6 -1.33301 -12.333 -1.5 -19 -0.5s-13.167 3 -19.5 6
s-12.333 6.5 -18 10.5s-10.167 8 -13.5 12c-16 20 -26.833 46.167 -32.5 78.5s-7.83398 67.5 -6.50098 105.5s5.5 77.833 12.5 119.5s14.667 82 23 121s16.833 75.167 25.5 108.5s15.667 61.333 21 84c3.33301 12.667 10.5 19.667 21.5 21s22 -0.833984 33 -6.50098
s20.5 -13.834 28.5 -24.501s10.667 -22 8 -34l-15 -60l-22.5 -87l-25.5 -101.5c-8.66699 -35.667 -16.334 -70.167 -23.001 -103.5s-11.5 -64 -14.5 -92s-3.16699 -50.333 -0.5 -67c0.666992 -4 2.33398 -9.33301 5.00098 -16s5.83398 -12.5 9.50098 -17.5
s7.83398 -8.16699 12.501 -9.5s9.66699 1.66699 15 9c8 11.333 17.833 31.333 29.5 60l38 97l42 111c14.333 38 28.166 71.667 41.499 101c12 26.667 25 51.334 39 74.001s30.333 42.667 49 60c2.66699 2.66699 5.83398 4.5 9.50098 5.5s7.16699 0.5 10.5 -1.5
c9.33301 -5.33301 18.5 -12.333 27.5 -21s12.833 -20.667 11.5 -36c-2 -16.667 -4.5 -36.334 -7.5 -59.001s-6 -47 -9 -73s-5.66699 -52.667 -8 -80s-4 -53.5 -5 -78.5s-0.833008 -48.167 0.5 -69.5s4.33301 -38.666 9 -51.999c2 -8 4.83301 -12.667 8.5 -14
s7.83398 -0.666016 12.501 2.00098c7.33301 5.33301 14.333 12.833 21 22.5s13 20.167 19 31.5c18.667 38.667 37.167 82.5 55.5 131.5s35.5 98.667 51.5 149s30.667 99.166 44 146.499s24 88.666 32 123.999l5.5 24c2.33301 10 5.16602 19.833 8.49902 29.5
s7.16602 18 11.499 25s9.5 10.5 15.5 10.5c8 -2.66699 14.167 -8.66699 18.5 -18s7.66602 -19.666 9.99902 -30.999s3.5 -22.666 3.5 -33.999s-0.333008 -20.333 -1 -27c-7.33301 -44 -17.333 -91.167 -30 -141.5s-28.334 -101.5 -47.001 -153.5l-28 -75
c-10.667 -28.667 -22.667 -57.334 -36 -86.001s-27.833 -55.167 -43.5 -79.5s-32.5 -42.833 -50.5 -55.5c-12.667 -9.33301 -26 -16 -40 -20s-27.5 -5.33301 -40.5 -4s-25.167 5.83301 -36.5 13.5s-20.333 18.834 -27 33.501c-9.33301 19.333 -16 42 -20 68
s-6.5 52.167 -7.5 78.5s-1 51.166 0 74.499s2.16699 42.333 3.5 57z" />
    <glyph glyph-name="X" unicode="X" horiz-adv-x="567" 
d="M322 337c2.66699 -17.333 7.99805 -38.167 15.998 -62.5s17.833 -49.833 29.5 -76.5s24.667 -53.5 39 -80.5s29.5 -52 45.5 -75s32.5 -42.5 49.5 -58.5s33.5 -26.333 49.5 -31c7.33301 -2 9.33301 -5.83301 6 -11.5s-7.66602 -8.5 -12.999 -8.5
c-29.333 0 -56.666 6.66699 -81.999 20s-48.666 30.5 -69.999 51.5s-40.666 44.333 -57.999 70s-32.5 51 -45.5 76s-24 48.333 -33 70s-15.5 38.834 -19.5 51.501c-19.333 -16 -37.5 -33.333 -54.5 -52s-34 -38.834 -51 -60.501l-52 -69.5l-57.5 -79
c-9.33301 -12.667 -17 -17 -23 -13s-6 12 0 24c14 28 30.5 56.333 49.5 85s38.667 56.5 59 83.5s40.833 52.5 61.5 76.5l58 65c-18.667 56.667 -33.834 114.334 -45.501 173.001s-16.834 117.667 -15.501 177c2 16 8.66699 25.833 20 29.5s23.666 3.5 36.999 -0.5
s25.166 -10.5 35.499 -19.5s15.5 -17.833 15.5 -26.5c0 -16 0.5 -34.333 1.5 -55s2.5 -42.334 4.5 -65.001s4.66699 -45.167 8 -67.5s7 -43.5 11 -63.5c10.667 14 25 30.833 43 50.5l59.5 62.5l68 66c23.667 22 46.667 42.333 69 61s42.833 34.667 61.5 48s34 22.333 46 27
c8.66699 3.33301 17.5 2.83301 26.5 -1.5s16.333 -10 22 -17s8.66699 -14.5 9 -22.5s-3.5 -14 -11.5 -18c-15.333 -8 -33.666 -19.833 -54.999 -35.5s-43.833 -33.5 -67.5 -53.5l-72 -64l-69.5 -67l-60.5 -62.5c-18.333 -19.667 -33.166 -36.5 -44.499 -50.5z" />
    <glyph glyph-name="Y" unicode="Y" horiz-adv-x="519" 
d="M154 171c-14 -13.333 -25.8223 -32.334 -35.4893 -57.001s-15.834 -48.834 -18.501 -72.501s-1.33398 -43.667 3.99902 -60s16.666 -23.166 33.999 -20.499c11.333 0.666992 25.833 9.66699 43.5 27s36.667 40.166 57 68.499s41.166 60.666 62.499 96.999
s41.333 74 60 113s34.834 78.167 48.501 117.5s23.167 75.666 28.5 108.999l-44 -72c-16 -26 -34 -50.333 -54 -73s-42 -41.5 -66 -56.5s-50.333 -22.833 -79 -23.5c-20.667 0.666992 -38.334 5.16699 -53.001 13.5s-27.334 19.166 -38.001 32.499
c-12 15.333 -16.167 37.333 -12.5 66s11.334 59 23.001 91s25 63.5 40 94.5l38.5 77.5c-16.667 -6 -32 -14.833 -46 -26.5s-27 -24.167 -39 -37.5s-22.833 -26.333 -32.5 -39s-17.834 -23 -24.501 -31c-3.33301 -5.33301 -6.83301 -7.83301 -10.5 -7.5s-7 2.5 -10 6.5
s-5.33301 9.5 -7 16.5s-1.83398 15.167 -0.500977 24.5c4.66699 28.667 16.167 54.834 34.5 78.501s40.166 43.167 65.499 58.5s52.5 26 81.5 32s56.5 5.66699 82.5 -1c2 0 4 -0.5 6 -1.5s3.66699 -2.16699 5 -3.5c6 -4.66699 9.16699 -8.83398 9.5 -12.501
s-1.83398 -8.16699 -6.50098 -13.5c-3.33301 -4 -5.33301 -8 -6 -12l-25 -52c-10.667 -22 -21.5 -46 -32.5 -72s-21.667 -52.833 -32 -80.5s-18.166 -53.5 -23.499 -77.5s-7.5 -44.5 -6.5 -61.5s7.16699 -27.833 18.5 -32.5c8 -1.33301 19.333 5.16699 34 19.5
s31 32.833 49 55.5s36.5 48.5 55.5 77.5s37 57.833 54 86.5s31.833 55.667 44.5 81s21.667 46 27 62c2.66699 6.66699 5.66699 12.834 9 18.501s7.66602 8.5 12.999 8.5c6 0 13.5 -2.33301 22.5 -7s17.5 -10.334 25.5 -17.001s14.667 -13.167 20 -19.5
s7.66602 -11.5 6.99902 -15.5c-1.33301 -29.333 -4.5 -57.833 -9.5 -85.5s-11.167 -55.667 -18.5 -84s-15.5 -57.333 -24.5 -87l-28.5 -92.5c-12 -31.333 -26.167 -66.166 -42.5 -104.499s-35.5 -75.666 -57.5 -111.999s-46.833 -69.333 -74.5 -99s-58.5 -51.5 -92.5 -65.5
c-13.333 -6 -27 -8.83301 -41 -8.5s-27.833 2.5 -41.5 6.5s-26.334 9.66699 -38.001 17s-21.5 15 -29.5 23c-18.667 20 -29.334 43.833 -32.001 71.5s0.5 54.167 9.5 79.5s22.667 47.333 41 66s38.833 29.334 61.5 32.001c12 0 20 -1.16699 24 -3.5
s5.83301 -5.16602 5.5 -8.49902s-2 -7.16602 -5 -11.499z" />
    <glyph glyph-name="Z" unicode="Z" horiz-adv-x="642" 
d="M493 678c-44 -4.66699 -88.0049 -13.1758 -132.005 -25.5088s-84 -29.5 -120 -51.5c-8.66699 -7.33301 -15.834 -9.5 -21.501 -6.5s-9.16699 8.66699 -10.5 17s-0.666016 18.166 2.00098 29.499s7.66699 22 15 32c12 15.333 28.833 27.333 50.5 36
s44.834 14.834 69.501 18.501s49 5.33398 73 5.00098s44.667 -1.5 62 -3.5c12.667 -2 26 -6.16699 40 -12.5s26 -14.166 36 -23.499s17.333 -20 22 -32s4 -24.667 -2 -38c-6.66699 -16 -17 -31 -31 -45s-29.333 -27 -46 -39s-33.667 -22.833 -51 -32.5l-47 -25.5
c24.667 -1.33301 48.667 -5 72 -11s44 -14.833 62 -26.5s32.5 -26.334 43.5 -44.001s17.167 -38.5 18.5 -62.5v-20c0 -6.66699 -0.333008 -13.334 -1 -20.001l-4 -18.5c-1.33301 -6.33301 -3.33301 -12.166 -6 -17.499c-8.66699 -22 -21.167 -44.667 -37.5 -68
s-35.666 -46.333 -57.999 -69s-46.666 -44.5 -72.999 -65.5s-53.666 -39.5 -81.999 -55.5s-57 -29.167 -86 -39.5s-56.833 -16.5 -83.5 -18.5c-15.333 -1.33301 -31.833 -0.5 -49.5 2.5s-34.5 9.5 -50.5 19.5s-30.167 23.833 -42.5 41.5s-20.5 41.167 -24.5 70.5
c-4 28.667 2.16699 55.834 18.5 81.501s37.666 48.334 63.999 68.001s55 35.667 86 48s59.167 19.5 84.5 21.5c31.333 2.66699 62.666 1 93.999 -5c10.667 -2 16 -4.16699 16 -6.5s-2.66699 -4.83301 -8 -7.5s-11.666 -5 -18.999 -7s-13 -3.33301 -17 -4
c-24 -8 -47.833 -18.167 -71.5 -30.5s-46.834 -26.166 -69.501 -41.499s-44 -31.833 -64 -49.5s-38 -35.834 -54 -54.501c-16 -22.667 -13.333 -40.667 8 -54c9.33301 -7.33301 24.5 -9.66602 45.5 -6.99902s45.167 9.33398 72.5 20.001s56.333 24.5 87 41.5
s60.5 35.667 89.5 56s55.833 41.833 80.5 64.5s44.5 44.834 59.5 66.501s24 42.5 27 62.5s-2.5 37.333 -16.5 52c-13.333 13.333 -32.666 22.5 -57.999 27.5s-52 7.5 -80 7.5s-54.333 -1.33301 -79 -4s-42.667 -4.66699 -54 -6
c-7.33301 -3.33301 -15.666 -4.66602 -24.999 -3.99902s-15.666 4.33398 -18.999 11.001c-2 5.33301 -1.66699 9.83301 1 13.5s5.66699 7.16699 9 10.5c5.33301 6.66699 15.333 15.334 30 26.001s31.667 22.167 51 34.5l61 38.5l61.5 39l53.5 35.5
c16 11 27.667 20.167 35 27.5s11 13.5 11 18.5s-6 7.83301 -18 8.5z" />
    <glyph glyph-name="bracketleft" unicode="[" horiz-adv-x="285" 
d="M203 701c-1.33301 2.66699 -2.50293 4.6709 -3.50293 6.00391s-2.16699 2.66602 -3.5 3.99902c-3.33301 5.33301 -5.5 11.166 -6.5 17.499s-0.833008 12 0.5 17s4.33301 8.83301 9 11.5s10.667 3.66699 18 3c21.333 -3.33301 41.833 -5 61.5 -5s39.167 -2.33301 58.5 -7
c11.333 -1.33301 17.833 -4.33301 19.5 -9s-0.166016 -10 -5.49902 -16c-6.66699 -7.33301 -13 -12.5 -19 -15.5s-12.333 -4.83301 -19 -5.5s-13.5 -0.666992 -20.5 0s-14.5 1 -22.5 1l-50 -174.5l-49.5 -183.5l-48 -184.5l-45.5 -176.5
c8 -1.33301 17.667 -3.16602 29 -5.49902s22.166 -5.5 32.499 -9.5s19 -9.16699 26 -15.5s9.83301 -13.833 8.5 -22.5c-2 -9.33301 -9.83301 -15.333 -23.5 -18s-29 -3.83398 -46 -3.50098s-33.333 1.33301 -49 3s-26.834 2.5 -33.501 2.5c-7.33301 0 -12.5 2.66699 -15.5 8
s-4.5 11.5 -4.5 18.5s1.5 13.833 4.5 20.5s6.83301 11.334 11.5 14.001c1.33301 1.33301 2.83301 2.16602 4.5 2.49902s3.5 1.16602 5.5 2.49902c-1.33301 34 1.33398 72.5 8.00098 115.5s15.334 87.667 26.001 134s22.834 92.833 36.501 139.5l40.5 133l37.5 114.5
c11.667 34.333 20.834 62.166 27.501 83.499z" />
    <glyph glyph-name="backslash" unicode="\" horiz-adv-x="380" 
d="M369 -63c5.33301 -14.667 4.6709 -23.334 -1.99609 -26.001s-14.667 2 -24 14l-21 27.5c-6.66699 9 -13.334 18.5 -20.001 28.5c-30 50 -61.167 105 -93.5 165l-97 184l-94.5 185.5l-86 171.5c-1.33301 3.33301 -2.5 6.5 -3.5 9.5l-3.5 10.5
c-0.666992 4 -0.833984 8 -0.500977 12s1.5 7.5 3.5 10.5s5.16699 4.83301 9.5 5.5s10.166 -1 17.499 -5s13.666 -8.83301 18.999 -14.5s10.333 -11.5 15 -17.5c33.333 -44.667 67 -95 101 -151s66.667 -114 98 -174s60.666 -120.5 87.999 -181.5s51 -118.833 71 -173.5
c4.66699 -13.333 8.83398 -26.666 12.501 -39.999s7.16699 -27 10.5 -41z" />
    <glyph glyph-name="bracketright" unicode="]" horiz-adv-x="298" 
d="M280 701c-4 -21.333 -8.82715 -49.1689 -14.4941 -83.502s-12.334 -72.5 -20.001 -114.5s-16.5 -86.333 -26.5 -133s-21.167 -93.167 -33.5 -139.5s-26 -91 -41 -134s-31.5 -81.5 -49.5 -115.5c1.33301 -1.33301 2.66602 -2.16602 3.99902 -2.49902
s2.66602 -1.16602 3.99902 -2.49902c3.33301 -2.66699 4.66602 -7.33398 3.99902 -14.001s-2.66699 -13.5 -6 -20.5s-7.83301 -13.167 -13.5 -18.5s-12.167 -8 -19.5 -8c-6.66699 0 -18.167 -0.833008 -34.5 -2.5s-33 -2.66699 -50 -3s-31.5 0.833984 -43.5 3.50098
s-17 8.66699 -15 18c3.33301 8.66699 10 16.167 20 22.5s21.167 11.5 33.5 15.5s24.666 7.16699 36.999 9.5s22.833 4.16602 31.5 5.49902l43 176.5l44 184.5l42.5 183.5c13.667 60.333 26.167 118.5 37.5 174.5c-8 0 -15.833 -0.333008 -23.5 -1s-14.5 -0.666992 -20.5 0
s-11.333 2.5 -16 5.5s-8.33398 8.16699 -11.001 15.5c-6 13.333 2.66699 21.666 26 24.999c22 4.66699 42.833 7 62.5 7s40.834 1.66699 63.501 5c8 0.666992 13.5 -0.333008 16.5 -3s4.16699 -6.5 3.5 -11.5s-3.16699 -10.667 -7.5 -17s-9.5 -12.166 -15.5 -17.499
c-2 -1.33301 -3.83301 -2.66602 -5.5 -3.99902s-3.83398 -3.33301 -6.50098 -6z" />
    <glyph glyph-name="asciicircum" unicode="^" horiz-adv-x="310" 
d="M218 594c-7.33301 5.33301 -14.165 14.4971 -20.498 27.4971s-14.833 25.833 -25.5 38.5c-13.333 -13.333 -25.5 -27 -36.5 -41s-23.167 -26.667 -36.5 -38c-6 -5.33301 -12 -7.33301 -18 -6s-11 4.33301 -15 9s-6.5 10.334 -7.5 17.001s0.833008 12.667 5.5 18
c10 11.333 19.667 22.833 29 34.5s19 23.167 29 34.5c10.667 13.333 23.667 20.333 39 21s28.666 -7.66602 39.999 -24.999c9.33301 -13.333 17.166 -27.666 23.499 -42.999s10.833 -30.333 13.5 -45c2 -5.33301 2.66699 -8.83301 2 -10.5s-2.16699 -2.16699 -4.5 -1.5
s-5 2 -8 4s-6.16699 4 -9.5 6z" />
    <glyph glyph-name="underscore" unicode="_" horiz-adv-x="541" 
d="M426 -53c-52.667 -6 -104.669 -7.83203 -156.002 -5.49902s-103 3.5 -155 3.5c-10 0 -20.333 0.333008 -31 1s-20.5 2 -29.5 4s-16.333 4.83301 -22 8.5s-8.5 8.5 -8.5 14.5c0 11.333 8.33301 18 25 20c31.333 2.66699 63.5 4.5 96.5 5.5s66 0.666992 99 -1
s65.333 -4.83398 97 -9.50098s61.834 -11 90.501 -19c14 -3.33301 20.833 -7.83301 20.5 -13.5s-9.16602 -8.5 -26.499 -8.5z" />
    <glyph glyph-name="grave" unicode="`" horiz-adv-x="287" 
d="M163 624c-6.66699 4 -15.1631 9.49902 -25.4961 16.499s-20.5 14.833 -30.5 23.5s-18.5 17.5 -25.5 26.5s-10.5 17.167 -10.5 24.5c0 6 2.66699 10.667 8 14s10.666 2.66602 15.999 -2.00098c20 -15.333 38.333 -31.666 55 -48.999
c7.33301 -7.33301 14.666 -15.166 21.999 -23.499l22 -25.5c8 -12 11.667 -19.333 11 -22s-3.33398 -3.16699 -8.00098 -1.5s-10.334 4.5 -17.001 8.5z" />
    <glyph glyph-name="a" unicode="a" 
d="M119 61l-19.999 -15.498c-7.33301 -5.66699 -15.333 -10.667 -24 -15s-17.834 -7.66602 -27.501 -9.99902s-19.834 -2.5 -30.501 -0.5c-8 1.33301 -15.333 4.16602 -22 8.49902s-13 9.5 -19 15.5s-9.66699 14.667 -11 26s-1.66602 20.333 -0.999023 27
c3.33301 17.333 8 35.666 14 54.999s13.333 38.333 22 57c14.667 30.667 33.334 58 56.001 82s50 39.333 82 46c10.667 2.66699 21.834 3.16699 33.501 1.5s21.834 -5.5 30.501 -11.5s15.334 -13.5 20.001 -22.5s5.66699 -18.833 3 -29.5c-1.33301 -4 -2.83301 -8 -4.5 -12
s-3.66699 -7.33301 -6 -10s-4.5 -4.16699 -6.5 -4.5s-4 1.5 -6 5.5c-0.666992 2 -1.5 4.83301 -2.5 8.5s-2.5 7.33398 -4.5 11.001s-4.83301 7 -8.5 10s-8.5 4.5 -14.5 4.5c-12.667 0 -27 -7.83301 -43 -23.5s-31.333 -34 -46 -55s-27.334 -42 -38.001 -63
s-17.334 -36.833 -20.001 -47.5c-4 -17.333 -3.66699 -26.5 1 -27.5s12 2.66699 22 11s21.333 19.833 34 34.5l36 43.5l29.5 38c8.33301 11 12.833 16.833 13.5 17.5c8.66699 6.66699 17.334 9.66699 26.001 9s16.167 -3.83398 22.5 -9.50098s10.666 -12.667 12.999 -21
s1.5 -16.833 -2.5 -25.5c-4.66699 -10.667 -10.834 -23.334 -18.501 -38.001s-12.5 -27.667 -14.5 -39c-2 -17.333 0 -28.666 6 -33.999s17 -5 33 1c12.667 5.33301 26 14.833 40 28.5s27.833 28.167 41.5 43.5l38.5 44c12 14 22 24.333 30 31c2 2 4.5 4.16699 7.5 6.5
s5.5 2.83301 7.5 1.5c3.33301 -1.33301 5.16602 -3.16602 5.49902 -5.49902s0.5 -4.83301 0.5 -7.5c-8.66699 -21.333 -19 -42.333 -31 -63s-25.5 -39.834 -40.5 -57.501s-31.667 -33.334 -50 -47.001s-38.166 -24.5 -59.499 -32.5
c-13.333 -4.66699 -25.333 -6.16699 -36 -4.5s-20.334 5.5 -29.001 11.5s-15.667 13.667 -21 23s-9 19.333 -11 30z" />
    <glyph glyph-name="b" unicode="b" horiz-adv-x="381" 
d="M96 118c13.333 -9.33301 27.3301 -13.333 41.9971 -12s28.334 6 41.001 14s23.334 18.667 32.001 32s13.667 27.333 15 42c-22.667 -10 -45.167 -21.833 -67.5 -35.5s-43.166 -27.167 -62.499 -40.5zM47.9971 126c8 0 14.001 1.83203 18.001 5.49902
s8.33301 7.16699 13 10.5c15.333 16 32.5 30.167 51.5 42.5s38.833 23.5 59.5 33.5c10 4 18.333 8.33301 25 13h-8c-2 -1.33301 -4 -2.16602 -6 -2.49902s-4.66699 -1.16602 -8 -2.49902c-50.667 -18 -96 -46.667 -136 -86c-2 -1.33301 -3.33301 -3.33301 -4 -6
s-2.33398 -5.33398 -5.00098 -8.00098zM73.998 203.999c12.667 9.33301 25.165 17.3379 37.498 24.0049l36.5 20c10.667 6 23 11.167 37 15.5s27.5 6.66602 40.5 6.99902s24.833 -2.16699 35.5 -7.5s18.667 -15 24 -29c0 -4 0.666992 -6.33301 2 -7s3.33301 -1 6 -1
c22.667 0 45.5 -1.83301 68.5 -5.5s41.5 -10.5 55.5 -20.5c4.66699 -3.33301 6.66699 -5.66602 6 -6.99902s-2.5 -2.33301 -5.5 -3s-6.5 -1 -10.5 -1h-7c-15.333 1.33301 -29.833 3.16602 -43.5 5.49902s-27.5 3.5 -41.5 3.5h-22
c-3.33301 -20.667 -9.33301 -42.334 -18 -65.001s-20 -43.5 -34 -62.5s-30.667 -34.5 -50 -46.5s-41 -17.333 -65 -16c-16 -0.666992 -29.167 1.66602 -39.5 6.99902s-18.666 12.166 -24.999 20.499s-11.333 17.5 -15 27.5s-6.5 19.333 -8.5 28
c0 -1.33301 -0.666992 -2.5 -2 -3.5s-2 -2.16699 -2 -3.5l-14 -40l-15.5 -42.5l-19 -48l-23.5 -56.5c-1.33301 -3.33301 -2.66602 -5.33301 -3.99902 -6s-3 -1.66699 -5 -3c-3.33301 -2.66699 -6.83301 -3.66699 -10.5 -3s-6.16699 2.66699 -7.5 6c-2 32 -0.5 64.5 4.5 97.5
s11.667 65.833 20 98.5s17.666 64.667 27.999 96s19.833 61.666 28.5 90.999c23.333 67.333 48 129.833 74 187.5s53.667 114.834 83 171.501l35.5 65c11.667 21.333 25.167 40.666 40.5 57.999c4.66699 6 10.5 10.333 17.5 13s14.167 2.33398 21.5 -0.999023
c14.667 -6.66699 21 -19 19 -37c-3.33301 -25.333 -7.83301 -50.833 -13.5 -76.5s-13.5 -50.834 -23.5 -75.501c-20 -48 -42.333 -93.833 -67 -137.5s-53 -85.167 -85 -124.5c-4 -4 -8 -11 -12 -21s-7.83301 -20.667 -11.5 -32l-10.5 -33.5
c-3.33301 -11 -6.66602 -19.833 -9.99902 -26.5zM285.996 684.004c-28.667 -48 -54.333 -97.332 -77 -147.999l-68 -152c6 6 13.5 16.167 22.5 30.5s18.5 30.666 28.5 48.999s20 38.166 30 59.499l28 62c8.66699 20 16.167 38.833 22.5 56.5s10.833 31.834 13.5 42.501z" />
    <glyph glyph-name="c" unicode="c" horiz-adv-x="286" 
d="M297 198c7.33301 3.33301 11.833 3.16992 13.5 -0.49707s1.16699 -8.16699 -1.5 -13.5c-4 -8 -9 -15.333 -15 -22s-12.667 -13 -20 -19l-38.5 -34.5c-10.333 -9 -19 -16.167 -26 -21.5l-17.5 -13l-13 -9l-45.5 -27c-15 -8.66699 -29.167 -15 -42.5 -19
c-20.667 -6 -40.834 -6.16699 -60.501 -0.5s-34.5 17.5 -44.5 35.5c-11.333 20.667 -16 44.5 -14 71.5s8.83301 53 20.5 78s27.167 46.333 46.5 64s40.666 27.167 63.999 28.5c7.33301 1.33301 14.833 -0.833984 22.5 -6.50098s12.5 -12.167 14.5 -19.5
c2 -6 2.33301 -12.667 1 -20s-3.16602 -15.5 -5.49902 -24.5l-7.5 -29.5c-2.66699 -10.667 -5 -21.667 -7 -33c-1.33301 -4 -3.16602 -6.16699 -5.49902 -6.5s-4.5 1.16699 -6.5 4.5c-7.33301 11.333 -11.833 22.166 -13.5 32.499s-3.5 20.166 -5.5 29.499
c-4 0 -9.16699 -3.83301 -15.5 -11.5s-12.5 -17.167 -18.5 -28.5s-11 -23.5 -15 -36.5s-6 -24.5 -6 -34.5c0 -13.333 2 -23.333 6 -30s9 -10.667 15 -12s13 -1 21 1s16 5 24 9c35.333 16.667 69.333 34.5 102 53.5s64 40.5 94 64.5z" />
    <glyph glyph-name="d" unicode="d" horiz-adv-x="458" 
d="M204 277c0 1.33301 0.326172 2.32812 0.993164 2.99512c0 0.666992 0.333008 1 1 1l61.5 127.5c20.333 41 41 80.5 62 118.5s43 74.667 66 110s47.5 69.666 73.5 102.999c14.667 16.667 26.5 24 35.5 22s15.667 -8.83301 20 -20.5s6.83301 -25.5 7.5 -41.5
s0.333984 -29 -0.999023 -39c-10 -41.333 -23.5 -82.666 -40.5 -123.999s-36.167 -82.5 -57.5 -123.5s-44.333 -81.833 -69 -122.5l-75 -122c-3.33301 -4 -5.83301 -8.16699 -7.5 -12.5s-3.16699 -9.16602 -4.5 -14.499c-1.33301 -6 -2.83301 -14.5 -4.5 -25.5
s-2.66699 -22.5 -3 -34.5s0.5 -23 2.5 -33s5.66699 -16.333 11 -19c8 -4 19.667 -3.16699 35 2.5s31.666 14.167 48.999 25.5s34.833 24.333 52.5 39s32.834 28.667 45.501 42c1.33301 1.33301 3.33301 1.16602 6 -0.500977s4.83398 -4.16699 6.50098 -7.5
s2.33398 -7.16602 2.00098 -11.499s-2.83301 -8.5 -7.5 -12.5l-56.5 -50.5c-22.333 -20.333 -45.666 -39.166 -69.999 -56.499s-48.166 -30.5 -71.499 -39.5s-43.333 -9.16699 -60 -0.5c-15.333 8 -26.166 20.833 -32.499 38.5s-9.83301 37 -10.5 58
s0.166016 41.667 2.49902 62s4.5 36.5 6.5 48.5c-1.33301 -1.33301 -2.5 -3.16602 -3.5 -5.49902s-2.16699 -4.5 -3.5 -6.5c-9.33301 -10.667 -20 -23.5 -32 -38.5s-25.167 -28.833 -39.5 -41.5s-29.5 -22.334 -45.5 -29.001s-32.333 -7 -49 -1
c-9.33301 5.33301 -17.5 11.833 -24.5 19.5s-10.5 17.834 -10.5 30.501c0 24.667 4.83301 49.667 14.5 75s22.834 47.833 39.501 67.5s36.334 35.334 59.001 47.001s47 16.5 73 14.5c7.33301 -1.33301 14.833 -3.16602 22.5 -5.49902s14.167 -6.5 19.5 -12.5z
M495.993 624.995c-42 -64.667 -79.332 -131.002 -111.999 -199.002s-61.334 -138.333 -86.001 -211l54.5 96l61.5 110.5c20 37.667 37.667 74.334 53 110.001s25 66.834 29 93.501zM46.9941 125.993l1.99902 -3l68.5 53.5l71.5 52.5c-14 6.66699 -29.167 7.5 -45.5 2.5
s-31.666 -13.333 -45.999 -25s-26.333 -25 -36 -40s-14.5 -28.5 -14.5 -40.5z" />
    <glyph glyph-name="e" unicode="e" horiz-adv-x="266" 
d="M-27 89c-1.33301 25.333 1.33301 51.667 8 79s16.667 52.5 30 75.5s30.166 41.833 50.499 56.5s44.166 22.334 71.499 23.001c14 -3.33301 24.833 -10.333 32.5 -21s9.83398 -23.667 6.50098 -39c-2.66699 -14.667 -6.5 -27.167 -11.5 -37.5s-13.5 -21.166 -25.5 -32.499
c-6 -5.33301 -14.333 -12.333 -25 -21s-21 -17.667 -31 -27s-18.667 -18.833 -26 -28.5s-11 -17.834 -11 -24.501c-2 -17.333 0.666992 -28.5 8 -33.5s16.833 -7 28.5 -6s23.5 4.16699 35.5 9.5s21.667 10 29 14c8.66699 6 18.334 13.5 29.001 22.5s21.334 18.5 32.001 28.5
l31 29l25 23l14.5 15c4.33301 4.66699 9.5 8.66699 15.5 12c5.33301 1.33301 9.5 1.66602 12.5 0.999023s2.5 -5.66699 -1.5 -15c-5.33301 -11.333 -11.833 -22 -19.5 -32s-15.834 -20 -24.501 -30l-38.5 -42c-13.667 -14.667 -28 -28.167 -43 -40.5s-30.667 -23 -47 -32
s-33.166 -14.833 -50.499 -17.5c-30.667 -2 -55.834 4.33301 -75.501 19s-29.5 38.667 -29.5 72zM132.999 277.001c-18 -6.66699 -32.168 -15.332 -42.501 -25.999s-17.833 -26.334 -22.5 -47.001c14.667 10.667 27.834 21.5 39.501 32.5s20.167 24.5 25.5 40.5z" />
    <glyph glyph-name="f" unicode="f" horiz-adv-x="253" 
d="M85 164c33.333 -8.66699 65.999 -12.498 97.999 -11.498s65 2.83301 99 5.5c6.66699 0 9.66699 -1.5 9 -4.5s-1.66699 -4.83301 -3 -5.5c-30.667 -16.667 -61.167 -27.334 -91.5 -32.001s-62.166 -3.33398 -95.499 3.99902c3.33301 -18 6.16602 -38.667 8.49902 -62
s3.33301 -47.5 3 -72.5s-1.83301 -49.667 -4.5 -74s-7.16699 -46.666 -13.5 -66.999s-14.666 -37.833 -24.999 -52.5s-22.833 -24.334 -37.5 -29.001c-11.333 -0.666992 -22.166 0 -32.499 2s-18.5 8.66699 -24.5 20c-15.333 30 -22.833 60.333 -22.5 91s1.83301 61 4.5 91
c8 56 19.167 112.667 33.5 170s31.166 113.166 50.499 167.499s40.833 105.833 64.5 154.5s49.167 92.667 76.5 132c6 7.33301 12.667 13.833 20 19.5s16 7.83398 26 6.50098c9.33301 0 16.5 -3.5 21.5 -10.5s5.83301 -14.833 2.5 -23.5v-16
c0 -17.333 -0.5 -35.333 -1.5 -54s-4.16699 -37 -9.5 -55c-16 -58 -37.667 -109.833 -65 -155.5s-57.333 -90.167 -90 -133.5c0 -1.33301 -0.333008 -3 -1 -5zM94.999 226.002c16.667 20 32.668 43.499 48.001 70.499s29.166 55 41.499 84s22.833 57.833 31.5 86.5
s15 55.334 19 80.001c-12 -15.333 -25.167 -38 -39.5 -68s-28.166 -61.333 -41.499 -94s-25.333 -63.667 -36 -93s-18.334 -51.333 -23.001 -66zM24 -124.999c6 -2 11.501 1.49805 16.501 10.498s9.16699 21.167 12.5 36.5s5.83301 32.5 7.5 51.5s2.66699 37.333 3 55
s-0.333984 33.334 -2.00098 47.001s-4.16699 22.834 -7.5 27.501l-21.5 -112.5c-7 -37 -9.83301 -75.5 -8.5 -115.5z" />
    <glyph glyph-name="g" unicode="g" horiz-adv-x="407" 
d="M58 99c4 -4 11.5 -2.83203 22.5 3.50098s23 14.5 36 24.5l40.5 31.5c14 11 26 19.5 36 25.5c4 2.66699 10.5 6 19.5 10s18.333 7 28 9s18.5 2.33301 26.5 1s12.667 -6 14 -14c1.33301 -12 2.16602 -24 2.49902 -36s1.16602 -24.667 2.49902 -38v-10
c13.333 10 27.166 19.5 41.499 28.5l41.5 25.5l44.5 25.5c14.333 8.33301 29.166 15.166 44.499 20.499l2 -1v-1c-1.33301 -1.33301 -2.16602 -2.33301 -2.49902 -3s-1.16602 -1.66699 -2.49902 -3c-12 -13.333 -23.833 -25.5 -35.5 -36.5l-35.5 -33.5
c-14 -14 -27.167 -26.167 -39.5 -36.5l-40.5 -35.5c-10.667 -10.667 -18.167 -21.334 -22.5 -32.001s-8.16602 -23 -11.499 -37l-41.5 -139c-14.333 -49.333 -31.5 -97.166 -51.5 -143.499s-44.167 -88.833 -72.5 -127.5s-62.5 -68.667 -102.5 -90
c-10 -1.33301 -19.833 -1.16602 -29.5 0.500977s-18.834 6.16699 -27.501 13.5c-14 12 -23.333 26.333 -28 43s-6.5 34.167 -5.5 52.5s4.16699 36.5 9.5 54.5s11 33.667 17 47c16.667 38 35.834 73.833 57.501 107.5s45 65.5 70 95.5s51.5 58.5 79.5 85.5
s56.667 53.167 86 78.5c2.66699 2.66699 5.16699 8.5 7.5 17.5s4 17.667 5 26s0.833008 15 -0.5 20s-4.66602 4.83301 -9.99902 -0.5c-13.333 -10.667 -27.5 -21.334 -42.5 -32.001s-30.5 -20 -46.5 -28s-32.333 -14.333 -49 -19s-33.334 -6 -50.001 -4
c-15.333 2.66699 -27.333 8.16699 -36 16.5s-14.834 18 -18.501 29s-5.5 23 -5.5 36s1.66699 25.5 5 37.5c6 24.667 16.333 46.667 31 66s34.334 32.666 59.001 39.999c38 12 74.667 10.667 110 -4c7.33301 -3.33301 13.833 -6.66602 19.5 -9.99902s9.5 -8.33301 11.5 -15
c6.66699 -14.667 1.33398 -21 -15.999 -19c-7.33301 1.33301 -14.833 2.33301 -22.5 3s-14.834 1 -21.501 1c-20.667 0 -38.167 -5.16699 -52.5 -15.5s-25.666 -22.5 -33.999 -36.5s-13.833 -28 -16.5 -42s-2.66699 -25 0 -33zM187 -31.999l-62.501 -68.501
c-21 -23 -40.667 -46.5 -59 -70.5s-35.166 -49.167 -50.499 -75.5s-28 -54.166 -38 -83.499c-6 -19.333 -10.167 -37.833 -12.5 -55.5s-1.16602 -35.834 3.50098 -54.501c13.333 6.66699 26.666 18.334 39.999 35.001s25.833 35 37.5 55s22.167 39.5 31.5 58.5l23 46.5
l21.5 44.5l29 64c9.66699 22.333 18.167 43.333 25.5 63s11 33.5 11 41.5z" />
    <glyph glyph-name="h" unicode="h" horiz-adv-x="450" 
d="M222 207l-73.5 -56.499c-23.667 -18.333 -45.167 -39.166 -64.5 -62.499c-11.333 -14 -21.833 -28.5 -31.5 -43.5s-17.5 -30.167 -23.5 -45.5c-5.33301 -6.66699 -11.666 -8 -18.999 -4c-16 12 -27 27.333 -33 46s-8.83301 38.5 -8.5 59.5s2.66602 41.667 6.99902 62
s8.83301 38.166 13.5 53.499c10.667 38.667 22.834 78.5 36.501 119.5s28.334 81.5 44.001 121.5s32 78.667 49 116l49.5 104c8.66699 16.667 18 31.334 28 44.001s20.333 23 31 31c6 4.66699 12.167 7.16699 18.5 7.5s12.166 -0.833984 17.499 -3.50098
s9.83301 -6.5 13.5 -11.5s5.83398 -10.167 6.50098 -15.5c4 -28.667 1 -61.667 -9 -99s-23.667 -74.833 -41 -112.5s-36.5 -73 -57.5 -106s-40.833 -59.167 -59.5 -78.5c-2.66699 -2.66699 -4 -4.66699 -4 -6c-10.667 -28 -20 -55.333 -28 -82s-16.667 -53.334 -26 -80.001
c-1.33301 -7.33301 -2.83301 -15 -4.5 -23s-2.5 -16 -2.5 -24c7.33301 10 16 19.667 26 29c20.667 20 42.334 39 65.001 57s47 33.667 73 47c10.667 5.33301 21.167 9.5 31.5 12.5s20.833 2.83301 31.5 -0.5c8.66699 -2 17.334 -5.33301 26.001 -10
c9.33301 -6.66699 14.166 -13.667 14.499 -21s-0.833984 -15.666 -3.50098 -24.999c-6.66699 -24.667 -15.167 -51.667 -25.5 -81l-29.5 -83.5l-24 -68c-6.66699 -19 -9.33398 -30.5 -8.00098 -34.5c3.33301 -6.66699 9.83301 -7 19.5 -1s21.334 15.667 35.001 29
s28.667 29.333 45 48l49 56.5l47.5 54c15.333 17 28.333 30.5 39 40.5c8.66699 8.66699 16 12.334 22 11.001s7 -8.33301 3 -21c-5.33301 -9.33301 -14 -22.833 -26 -40.5s-26.167 -37.167 -42.5 -58.5s-33.833 -43 -52.5 -65s-37.167 -42 -55.5 -60
s-35.833 -32.833 -52.5 -44.5s-31 -17.5 -43 -17.5s-23.167 2.33301 -33.5 7s-19.166 11.167 -26.499 19.5s-12.833 18 -16.5 29s-4.83398 23.167 -3.50098 36.5c0.666992 5.33301 1.66699 10.833 3 16.5l5 20.5c7.33301 19.333 14.166 38.666 20.499 57.999
s13.166 38.666 20.499 57.999c10.667 28 24.667 57 42 87v2c0 1.33301 -1.66699 2 -5 2zM120 368.001c6 4.66699 14.499 14.6689 25.499 30.002s22.333 33.666 34 54.999s23.334 44.166 35.001 68.499s21.667 47.833 30 70.5s14.333 43 18 61s3.16699 31.333 -1.5 40
l-30.5 -68.5l-40.5 -93.5l-40.5 -94z" />
    <glyph glyph-name="i" unicode="i" horiz-adv-x="215" 
d="M226 211l12 12h1v-2c1.33301 -15.333 0 -26.833 -4 -34.5s-6 -11.834 -6 -12.501c-6.66699 -10 -15.667 -22.833 -27 -38.5l-35.5 -48l-35.5 -45c-11.333 -13.667 -20.333 -23.5 -27 -29.5c-8 -9.33301 -16.667 -18 -26 -26c-3.33301 -2.66699 -7.83301 -5 -13.5 -7
s-11.5 -3.5 -17.5 -4.5s-11.833 -1.16699 -17.5 -0.5s-10.167 2.33398 -13.5 5.00098c-11.333 7.33301 -20.166 16.166 -26.499 26.499s-9.5 21.5 -9.5 33.5c-2 36.667 1.16699 74.167 9.5 112.5s18.166 73.166 29.499 104.499c3.33301 9.33301 8 19 14 29
c6 6 13 7.66699 21 5s15.167 -8.16699 21.5 -16.5s11 -18.5 14 -30.5s2.5 -24 -1.5 -36c-3.33301 -11.333 -6.33301 -22.166 -9 -32.499s-5.66699 -21.166 -9 -32.499c-1.33301 -5.33301 -3.5 -13 -6.5 -23l-9.5 -31.5c-3.33301 -11 -6.33301 -21.5 -9 -31.5
s-4.33398 -17.667 -5.00098 -23c-1.33301 -10 1.33398 -12.667 8.00098 -8s15.667 12.667 27 24l78 81.5zM86 331c-4.66699 -4.66699 -7.99707 -4.66797 -9.99707 -0.000976562c-8.66699 13.333 -14.334 27.333 -17.001 42s-1.33398 29.334 3.99902 44.001
c2.66699 8.66699 8.5 15.834 17.5 21.501s17.167 7.5 24.5 5.5c4 -1.33301 8.33301 -3.5 13 -6.5s7.66699 -6.5 9 -10.5c4.66699 -18 2.16699 -35.333 -7.5 -52s-20.834 -31.334 -33.501 -44.001z" />
    <glyph glyph-name="j" unicode="j" horiz-adv-x="181" 
d="M215 224c-21.333 -27.333 -44.6719 -51.835 -70.0049 -73.502s-50 -44.5 -74 -68.5c-2.66699 -3.33301 -5.16699 -6.66602 -7.5 -9.99902s-3.5 -7.33301 -3.5 -12c-8 -78 -22 -154.167 -42 -228.5s-48.333 -145.5 -85 -213.5c-11.333 -22 -24.333 -42.667 -39 -62
s-31.667 -36 -51 -50c-16.667 -11.333 -33.667 -19.666 -51 -24.999s-35.666 -7 -54.999 -5c-13.333 2 -26 7.33301 -38 16s-21.333 18.334 -28 29.001c-13.333 25.333 -18 53.666 -14 84.999s13.333 63.333 28 96s33 65.167 55 97.5s44.5 62.666 67.5 90.999
s44.833 53.5 65.5 75.5l48 51l33.5 34.5l31.5 34.5c4 5.33301 6.83301 16.166 8.5 32.499s2.83398 34 3.50098 53s0.833984 37.167 0.500977 54.5s-0.5 30 -0.5 38c3.33301 9.33301 9.33301 14.5 18 15.5s17.667 -1 27 -6s17.833 -12 25.5 -21s12.167 -18.5 13.5 -28.5
c0.666992 -7.33301 0.833984 -13.166 0.500977 -17.499s-1.16602 -8.5 -2.49902 -12.5s-2.5 -8.16699 -3.5 -12.5s-1.5 -9.83301 -1.5 -16.5c5.33301 3.33301 9.83301 6.5 13.5 9.5s7.5 5.83301 11.5 8.5l45 30c15.333 10.667 30.333 20.334 45 29.001
c5.33301 2.66699 11.166 5 17.499 7s11.333 2.66699 15 2s5.33398 -3 5.00098 -7s-4.5 -10.667 -12.5 -20zM-60.0059 -32.002c0 -1.33301 -0.663086 -2.00195 -1.99609 -2.00195c-20.667 -28 -41.834 -55.167 -63.501 -81.5s-42.5 -53.166 -62.5 -80.499
s-38.333 -55.666 -55 -84.999s-30 -60.666 -40 -93.999c-5.33301 -16 -7.33301 -29.333 -6 -40s5 -18.167 11 -22.5s14 -5 24 -2s21 10.5 33 22.5c27.333 24.667 49.666 52.667 66.999 84s31.666 64.166 42.999 98.499s20.666 68.833 27.999 103.5s15 67.667 23 99z
M51.998 311.996c-2.66699 -2.66699 -5.5 -3.83008 -8.5 -3.49707s-5.16699 2.16602 -6.5 5.49902c-6 10.667 -11.167 20.667 -15.5 30s-6.5 18.333 -6.5 27c1.33301 9.33301 4.83301 17.666 10.5 24.999s12.834 13.333 21.501 18c10.667 4.66699 21 4.33398 31 -0.999023
s15.667 -13 17 -23s0.666016 -18.833 -2.00098 -26.5s-6.16699 -14.834 -10.5 -21.501s-9.33301 -12.334 -15 -17.001z" />
    <glyph glyph-name="k" unicode="k" horiz-adv-x="356" 
d="M76 182c3.33301 5.33301 9.50586 13.3311 18.5059 23.998s19.833 22.334 32.5 35.001s26.334 25.5 41.001 38.5s29 24.667 43 35s27 18.833 39 25.5s21.667 9.66699 29 9c6 0 11.167 -1.5 15.5 -4.5s7.66602 -6.33301 9.99902 -10s3.16602 -7 2.49902 -10
s-3.33398 -4.83301 -8.00098 -5.5c-7.33301 -1.33301 -18.333 -7.33301 -33 -18s-29.667 -23 -45 -37s-29.333 -27.667 -42 -41s-20.334 -22.666 -23.001 -27.999c10.667 -4.66699 18.167 -14.5 22.5 -29.5s7 -32.667 8 -53s1 -41.5 0 -63.5s-1.16699 -42.333 -0.5 -61
s2.83398 -34 6.50098 -46s10.167 -17.667 19.5 -17c4 0 10.167 4.16699 18.5 12.5s17.666 19 27.999 32s21.166 27.5 32.499 43.5l32.5 47.5c10.333 15.667 19.5 30.167 27.5 43.5l19 32c4.66699 8.66699 8.66699 12.334 12 11.001s4.33301 -5 3 -11
c-2.66699 -12.667 -6.33398 -24.667 -11.001 -36s-10 -22 -16 -32l-19.5 -34.5c-8.33301 -14.333 -18 -29.333 -29 -45s-22.667 -31.167 -35 -46.5s-25.333 -28.333 -39 -39s-27.334 -18 -41.001 -22s-26.834 -2.33301 -39.501 5
c-12.667 3.33301 -22.167 11.166 -28.5 23.499s-10.666 27 -12.999 44s-3.33301 35.167 -3 54.5s1.16602 38.333 2.49902 57s2.5 36 3.5 52s0.833008 28.333 -0.5 37c-12.667 -6.66699 -24.5 -19.334 -35.5 -38.001s-20.667 -38.834 -29 -60.501
s-15.166 -42.334 -20.499 -62.001s-8.66602 -33.5 -9.99902 -41.5c-0.666992 -3.33301 -1 -6.33301 -1 -9s-0.666992 -5.66699 -2 -9c-2 -7.33301 -4.66699 -11.833 -8 -13.5s-6.66602 -1.66699 -9.99902 0s-6.33301 4.66699 -9 9s-5 8.5 -7 12.5
c-4 10.667 -6.83301 23.5 -8.5 38.5s-2.5 30.167 -2.5 45.5s0.333008 29.833 1 43.5s1.66699 24.167 3 31.5c3.33301 25.333 9 56 17 92s18.167 74.333 30.5 115s26.166 82.334 41.499 125.001s32.166 83.834 50.499 123.501s37.5 76.5 57.5 110.5s40.667 62.333 62 85
c6.66699 6.66699 14.5 9.16699 23.5 7.5s17.167 -5.66699 24.5 -12s12.833 -14.166 16.5 -23.499s3.5 -18 -0.5 -26c-6.66699 -14 -14.167 -34.5 -22.5 -61.5s-19.833 -59.5 -34.5 -97.5s-33.5 -80.833 -56.5 -128.5s-52.167 -98.5 -87.5 -152.5
c-6.66699 -13.333 -11.667 -25.833 -15 -37.5s-6 -24.5 -8 -38.5zM107.006 294.998c10 15.333 20.668 34.3311 32.001 56.998l35 72.5l35 78l31 75c9.33301 23.667 17.166 44.834 23.499 63.501s10.833 33 13.5 43c-13.333 -24 -27.333 -50.833 -42 -80.5l-44.5 -94
c-15 -33 -29.667 -67.667 -44 -104s-27.5 -73.166 -39.5 -110.499z" />
    <glyph glyph-name="l" unicode="l" horiz-adv-x="261" 
d="M42 -24c3.33301 -6.66699 7.83301 -10.168 13.5 -10.501s11.167 1.16699 16.5 4.5c20 17.333 39 36 57 56s35.167 40 51.5 60l48 58.5c15.667 19 30.834 36.167 45.501 51.5c5.33301 5.33301 9.5 6.5 12.5 3.5s3.5 -7.5 1.5 -13.5l-28 -44.5l-29 -43.5l-63.5 -94
c-21.667 -33.333 -45.5 -61.666 -71.5 -84.999c-16 -14.667 -33.333 -23 -52 -25c-17.333 0.666992 -33.666 6.16699 -48.999 16.5s-24.333 24.166 -27 41.499c-4 40.667 -3.33301 81.667 2 123c6 48 15.667 97.667 29 149s29.5 102.333 48.5 153s39.833 100 62.5 148
s46.334 92.667 71.001 134l34 51.5c11.333 16.333 23.333 31.5 36 45.5c4.66699 6 10.5 10.333 17.5 13s14.167 2.33398 21.5 -0.999023c14.667 -6.66699 21 -19 19 -37c-4.66699 -39.333 -12.834 -77.666 -24.501 -114.999s-25.834 -73.333 -42.501 -108
s-35.334 -68 -56.001 -100s-42.667 -62.333 -66 -91c-2 -2 -3.5 -4.33301 -4.5 -7s-2.16699 -5.33398 -3.5 -8.00098c-10 -26.667 -19.833 -56 -29.5 -88s-18 -63.167 -25 -93.5s-12 -58.5 -15 -84.5s-3.16699 -46 -0.5 -60zM288 683.999
c-28.667 -48 -54.334 -97.332 -77.001 -147.999l-68 -152c6 6 13.5 16.167 22.5 30.5s18.5 30.666 28.5 48.999s20 38.166 30 59.499l28 62c8.66699 20 16.334 38.833 23.001 56.5s11 31.834 13 42.501z" />
    <glyph glyph-name="m" unicode="m" horiz-adv-x="555" 
d="M163 214c-28 -31.333 -54.1592 -63 -78.4922 -95l-71.5 -96c-5.33301 -4.66699 -10 -6.66699 -14 -6s-7.5 2.66699 -10.5 6s-5.33301 7.5 -7 12.5s-2.83398 9.5 -3.50098 13.5c-1.33301 12 -1.33301 25.167 0 39.5s2.66602 23.5 3.99902 27.5
c2.66699 11.333 6.16699 24.333 10.5 39l13.5 44.5l13.5 44c4.33301 14.333 8.5 27.166 12.5 38.499c2.66699 8 7.33398 12.833 14.001 14.5s13.167 0.666992 19.5 -3s11.333 -9.83398 15 -18.501s4.16699 -19.667 1.5 -33s-5.66699 -26.666 -9 -39.999
s-6.33301 -26.333 -9 -39l57.5 66.5l55.5 68.5c8.66699 6 17.667 7.33301 27 4s16.333 -10.666 21 -21.999c5.33301 -12 7.66602 -24.333 6.99902 -37s-2.33398 -24.667 -5.00098 -36c19.333 20 42 39.667 68 59s51.333 34 76 44c12 4.66699 23 5.33398 33 2.00098
s18.667 -9.5 26 -18.5s12.833 -20 16.5 -33s5.16699 -26.5 4.5 -40.5l-23 -48.5c-7.33301 -15.667 -14 -31.167 -20 -46.5s-10.833 -30.666 -14.5 -45.999s-5.16699 -31 -4.5 -47c4.66699 -3.33301 12.5 -1.33301 23.5 6s23.5 17 37.5 29l43.5 38l39.5 34
c32.667 26 50.667 37 54 33s-6 -19 -28 -45c-21.333 -25.333 -43.833 -50.333 -67.5 -75s-48.834 -46 -75.501 -64c-8.66699 -6 -18.667 -9.16699 -30 -9.5s-22.5 1.66699 -33.5 6s-20.5 11 -28.5 20s-12.667 20.167 -14 33.5c-2 17.333 -0.833008 35.666 3.5 54.999
s10.166 38.5 17.499 57.5s15.666 37.5 24.999 55.5l26 50c-2 5.33301 -9.5 3.5 -22.5 -5.5s-28.833 -21.5 -47.5 -37.5s-38.334 -34 -59.001 -54l-57 -55c-7.33301 -6.66699 -12.833 -10.834 -16.5 -12.501s-6.83398 -2.5 -9.50098 -2.5c-6.66699 0 -11 5.5 -13 16.5
s-2.83301 23.667 -2.5 38s1.5 28.333 3.5 42s3.66699 23.167 5 28.5z" />
    <glyph glyph-name="n" unicode="n" horiz-adv-x="342" 
d="M7 32c-2.66699 -5.33301 -4.66699 -8.66895 -6 -10.002c-10.667 -7.33301 -18 -5.33301 -22 6c-1.33301 5.33301 -2.33301 10.333 -3 15s-1 9.66699 -1 15c-0.666992 14.667 -0.666992 29.334 0 44.001c2 16.667 6 34.834 12 54.501s13.167 39.167 21.5 58.5
s17 37.5 26 54.5s17.5 30.833 25.5 41.5c4 6 9.5 9.33301 16.5 10s13.833 -1 20.5 -5s12 -9.66699 16 -17s5 -15.666 3 -24.999c-0.666992 -0.666992 -2 -2.66699 -4 -6s-4 -7 -6 -11l-6 -11.5c-2 -3.66699 -3.33301 -5.83398 -4 -6.50098
c7.33301 5.33301 14.666 11.333 21.999 18s14.833 13 22.5 19s15.5 11.167 23.5 15.5s16.667 6.5 26 6.5c11.333 0 21.333 -3.16699 30 -9.5s15.834 -14 21.501 -23s9.16699 -18.667 10.5 -29s0.666016 -20.166 -2.00098 -29.499c-6 -18 -14.333 -35.5 -25 -52.5
l-32.5 -50.5c-11 -16.667 -21.167 -33.5 -30.5 -50.5s-16 -34.5 -20 -52.5c-4 -14 -4.16699 -22.667 -0.5 -26s8.5 -4 14.5 -2s12.167 5.33301 18.5 10l13.5 10c27.333 21.333 53 44.833 77 70.5l71 73.5c20 20 32.5 30.833 37.5 32.5s5.66699 -1.66602 2 -9.99902
s-9.66699 -19.5 -18 -33.5l-22.5 -37c-8 -13.333 -19 -29.5 -33 -48.5s-29.5 -37.333 -46.5 -55s-34.5 -32.667 -52.5 -45s-34.667 -18.5 -50 -18.5c-11.333 0 -21.333 2.5 -30 7.5s-16 11.167 -22 18.5s-10.5 15.666 -13.5 24.999s-4.5 18.666 -4.5 27.999
c0 33.333 6.83301 66 20.5 98s28.167 61.333 43.5 88c7.33301 14 9.33301 23.667 6 29s-13 4.33301 -29 -3c-13.333 -6 -25.666 -16.833 -36.999 -32.5s-21.833 -32.667 -31.5 -51s-18.5 -36.5 -26.5 -54.5s-15.333 -32.333 -22 -43z" />
    <glyph glyph-name="o" unicode="o" horiz-adv-x="297" 
d="M210 197c8 0.666992 16.667 2.66406 26 5.99707s18 6 26 8c9.33301 2.66699 19.166 5.83398 29.499 9.50098s20.166 6.5 29.499 8.5c6.66699 0 9.33398 -1.83301 8.00098 -5.5s-4.5 -8 -9.5 -13s-10.667 -9.83301 -17 -14.5s-11.166 -8 -14.499 -10
c-16 -7.33301 -31.833 -13 -47.5 -17s-30.5 -9.66699 -44.5 -17l-25 -42.5c-10.667 -17.667 -22.5 -34.834 -35.5 -51.501s-26.667 -31 -41 -43s-28.166 -18 -41.499 -18c-18.667 0 -34.667 5.33301 -48 16c-10 6.66699 -17.5 17 -22.5 31s-8 29.167 -9 45.5
s-0.5 32.333 1.5 48s4.33301 28.5 7 38.5c0.666992 4.66699 1.66699 7.83398 3 9.50098s2.66602 2.83398 3.99902 3.50098s2.83301 1.33398 4.5 2.00098s3.16699 2 4.5 4l6 23c2 8 5 15.333 9 22c11.333 20 25.833 38.5 43.5 55.5s38.167 26.833 61.5 29.5
c14.667 2.66699 28.167 2 40.5 -2s23.166 -11.667 32.499 -23c8 -8.66699 13.667 -18.167 17 -28.5s5.33301 -20.333 6 -30s0.333984 -18.5 -0.999023 -26.5zM153 186.997c1.33301 0 2.66504 0.668945 3.99805 2.00195s2 2.66602 2 3.99902
c5.33301 12.667 7.83301 26.667 7.5 42s-5.16602 27.666 -14.499 36.999c-4.66699 5.33301 -10.667 8.33301 -18 9s-14.333 -0.666016 -21 -3.99902c-13.333 -8 -24 -17.333 -32 -28s-15.667 -21.667 -23 -33c0 -3.33301 0.666992 -5.66602 2 -6.99902
c6.66699 -6 9.66699 -12.667 9 -20c0 -3.33301 3.83301 -5.33301 11.5 -6s16.334 -0.833984 26.001 -0.500977s19 1.16602 28 2.49902s15.167 2 18.5 2zM63.999 32.999c6.66699 1.33301 14.1641 6.16504 22.4971 14.498s16.333 17.833 24 28.5s14.334 21.5 20.001 32.5
s9.5 20.167 11.5 27.5c-13.333 -1.33301 -27.666 -2 -42.999 -2s-29.666 1.33301 -42.999 4c-2 -6 -3.33301 -13.833 -4 -23.5s-0.666992 -19.667 0 -30s2 -20.166 4 -29.499s4.66699 -16.666 8 -21.999z" />
    <glyph glyph-name="p" unicode="p" horiz-adv-x="417" 
d="M66 134c-19.333 -43.333 -36.835 -85.1709 -52.502 -125.504l-44.5 -119l-41.5 -117c-13.667 -39 -28.5 -79.167 -44.5 -120.5c-0.666992 -2 -1.5 -4.66699 -2.5 -8s-2.83301 -6.66602 -5.5 -9.99902c-4 -5.33301 -7.16699 -8 -9.5 -8s-4.16602 1 -5.49902 3
c-8 10.667 -13.167 25 -15.5 43s-1.83301 35.667 1.5 53c6 32 14.167 65.667 24.5 101s21.666 71.166 33.999 107.499s25.5 73 39.5 110l42 108.5l47 111l44 100c5.33301 8 12.333 11.167 21 9.5s16.667 -6.16699 24 -13.5s13 -16.333 17 -27s4.66699 -20.667 2 -30
c-8 -21.333 -16.833 -41 -26.5 -59s-18.167 -36.667 -25.5 -56l70 65c23.333 20.667 50 34.667 80 42c13.333 2 24.166 1.33301 32.499 -2s15 -8.33301 20 -15s8.66699 -14.667 11 -24s4.16602 -18.666 5.49902 -27.999c0.666992 1.33301 1.83398 1.83301 3.50098 1.5
s3.16699 0.166992 4.5 1.5c21.333 6 43 10.333 65 13s43.667 4 65 4c10.667 1.33301 18.334 -0.333984 23.001 -5.00098s1.66699 -8.66699 -9 -12c-12 -3.33301 -24.667 -6.5 -38 -9.5s-26.666 -6.33301 -39.999 -10s-26.166 -7.5 -38.499 -11.5s-23.166 -9 -32.499 -15
c-8.66699 -5.33301 -16.334 -15.333 -23.001 -30c-8 -19.333 -19.667 -38.166 -35 -56.499s-32.5 -34.5 -51.5 -48.5s-39 -24.667 -60 -32s-41.5 -9.33301 -61.5 -6c-12 3.33301 -20 10.5 -24 21.5s-6.66699 22.167 -8 33.5c0 12 5 18 15 18c3.33301 2 6 3.5 8 4.5
s4 3.16699 6 6.5c6.66699 12 15.334 23 26.001 33c21.333 18 43.833 33.333 67.5 46s47.167 23.334 70.5 32.001c9.33301 2.66699 14.666 5 15.999 7s2.66602 7.66699 3.99902 17c-1.33301 13.333 -7.16602 22.333 -17.499 27s-26.166 1.33398 -47.499 -9.99902
c-10 -6 -20.833 -13.667 -32.5 -23s-23.334 -19.166 -35.001 -29.499l-33.5 -31zM95.998 84.9951c6.66699 -3.33301 16.333 -3.33203 29 0.000976562s25.667 8.66602 39 15.999s25.833 16 37.5 26s20.5 20 26.5 30c-23.333 -9.33301 -45.833 -19.833 -67.5 -31.5
s-43.167 -25.167 -64.5 -40.5z" />
    <glyph glyph-name="q" unicode="q" horiz-adv-x="360" 
d="M136 -47c-2.66699 -46 -7.99609 -94.8359 -15.9961 -146.503s-18.5 -99.5 -31.5 -143.5s-28.333 -80.833 -46 -110.5s-37.5 -45.5 -59.5 -47.5c-18 -1.33301 -32.667 2.66699 -44 12s-17.666 22.666 -18.999 39.999c-2 32 1.66699 67.167 11 105.5
s21.666 76.666 36.999 114.999s32 75 50 110s34.333 65.5 49 91.5l9.5 19l14 27.5l14 28c4.33301 9 7.83301 15.5 10.5 19.5c-9.33301 -2 -19.166 -4 -29.499 -6s-20.333 -2.66699 -30 -2s-18.834 3 -27.501 7s-16 10.667 -22 20c-11.333 20 -14.833 43.167 -10.5 69.5
s14.166 51.333 29.499 75s35.166 43.334 59.499 59.001s50.5 23.167 78.5 22.5c16.667 -0.666992 31.167 -4.16699 43.5 -10.5s21.333 -13 27 -20s8 -13.167 7 -18.5s-6.5 -7 -16.5 -5c-25.333 4.66699 -49.333 1.83398 -72 -8.49902s-42 -24 -58 -41s-28 -34.833 -36 -53.5
s-10 -33.667 -6 -45c2 -3.33301 5.16699 -4.66602 9.5 -3.99902s8.83301 1.66699 13.5 3c12 4.66699 23.5 11.334 34.5 20.001s21.333 18.167 31 28.5s18.667 21 27 32l22.5 30.5c2.66699 4.66699 7 9.83398 13 15.501s12.333 10 19 13s12.834 3.66699 18.501 2
s9.5 -7.5 11.5 -17.5c1.33301 -14.667 0.666016 -29.334 -2.00098 -44.001s-8.33398 -29.667 -17.001 -45c-6.66699 -10 -13.834 -21.333 -21.501 -34l-23 -39.5c-7.66699 -13.667 -14.667 -27.167 -21 -40.5s-11.166 -25.333 -14.499 -36c33.333 14 70.5 38.5 111.5 73.5
s80.833 74.833 119.5 119.5c4.66699 6 7.66699 7 9 3s1.5 -9.5 0.5 -16.5s-2.83301 -14.167 -5.5 -21.5s-5 -11.666 -7 -12.999c-31.333 -46.667 -68.333 -86.667 -111 -120s-87.334 -57.333 -134.001 -72zM-5.99609 -454.003c11.333 2.66699 22.3369 13.166 33.0039 31.499
s20.667 40.5 30 66.5s17.666 54 24.999 84s13.666 58.167 18.999 84.5s9.16602 49 11.499 68s3.16602 30.5 2.49902 34.5c0 2.66699 -0.666992 3.33398 -2 2.00098c-5.33301 -10 -12 -25.833 -20 -47.5s-16.5 -46 -25.5 -73l-27 -83.5l-24.5 -79.5
c-7.33301 -24.333 -13 -44.5 -17 -60.5s-5.66699 -25 -5 -27z" />
    <glyph glyph-name="r" unicode="r" horiz-adv-x="351" 
d="M241 287c-25.333 -11.333 -48.666 -28.1709 -69.999 -50.5039s-41.5 -47.166 -60.5 -74.499s-37.5 -55.666 -55.5 -84.999s-36 -56.666 -54 -81.999c-5.33301 -6 -11.666 -7.66699 -18.999 -5s-12 7.83398 -14 15.501s-1.33301 15.834 2 24.501
c4.66699 16 9.16699 34 13.5 54s8.5 41 12.5 63l12.5 66c4.33301 22 8.83301 43 13.5 63c1.33301 5.33301 4.5 9.5 9.5 12.5s10.5 4.66699 16.5 5s11.333 -0.833984 16 -3.50098s7.66699 -6.66699 9 -12c2.66699 -13.333 1.83398 -29.333 -2.49902 -48
s-9.16602 -37 -14.499 -55c12 14.667 25.167 31.834 39.5 51.501s30 38 47 55s35 31 54 42s38.833 15.5 59.5 13.5c10.667 -3.33301 19.167 -8.83301 25.5 -16.5s11.166 -16.334 14.499 -26.001s5.16602 -19.167 5.49902 -28.5s-0.5 -17.333 -2.5 -24
c-4.66699 -9.33301 -10.167 -19.5 -16.5 -30.5s-11.333 -22.167 -15 -33.5s-5.16699 -22.5 -4.5 -33.5s6 -20.833 16 -29.5c4 -5.33301 3.66699 -9.33301 -1 -12s-11 -4.16699 -19 -4.5s-16 0.5 -24 2.5s-13.667 5 -17 9c-10.667 14.667 -17.167 29.5 -19.5 44.5
s-1.83301 30.167 1.5 45.5s8.66602 30.333 15.999 45s15.666 28.667 24.999 42z" />
    <glyph glyph-name="s" unicode="s" horiz-adv-x="274" 
d="M57 116l-39.498 57c-13 19.333 -19.5 40.666 -19.5 63.999c0 26 7.5 50.5 22.5 73.5s32.167 41.5 51.5 55.5c8 5.33301 16.167 9.66602 24.5 12.999s17.166 3 26.499 -1c4 -2 8.16699 -3.5 12.5 -4.5s8.16602 -2.16699 11.499 -3.5s7 -3.33301 11 -6
s6 -6.33398 6 -11.001c0 -18.667 0.5 -33.834 1.5 -45.501s2.5 -21.667 4.5 -30s4 -15.666 6 -21.999s4 -13.166 6 -20.499c1.33301 -6.66699 1 -12.334 -1 -17.001s-7 -5.33398 -15 -2.00098c-14.667 5.33301 -25.5 16 -32.5 32s-12.167 30.667 -15.5 44
c-0.666992 2.66699 -2.33398 7.33398 -5.00098 14.001s-4.33398 11.334 -5.00098 14.001c-5.33301 1.33301 -11.666 -0.5 -18.999 -5.5s-13.833 -11.833 -19.5 -20.5s-9.33398 -18.667 -11.001 -30s0.5 -22.666 6.5 -33.999c2.66699 -4 6.5 -8.83301 11.5 -14.5l15 -17.5
l15 -17.5c5 -5.66699 9.16699 -10.167 12.5 -13.5c4 -4 6.66699 -6.16699 8 -6.5s4.66602 0.5 9.99902 2.5c6.66699 3.33301 16.834 7.66602 30.501 12.999l43 16c15 5.33301 29.333 9.83301 43 13.5s24.167 5.5 31.5 5.5c4.66699 0 8 -1.66699 10 -5
c2 -2 1.66699 -4.66699 -1 -8s-6.16699 -6.66602 -10.5 -9.99902s-8.83301 -6.33301 -13.5 -9s-7.66699 -4.33398 -9 -5.00098c-11.333 -6.66699 -25.666 -14.167 -42.999 -22.5s-32.333 -16.5 -45 -24.5c-1.33301 -1.33301 -3.83301 -2.66602 -7.5 -3.99902
s-6.5 -2.66602 -8.5 -3.99902c8 -18 13.667 -33.5 17 -46.5s4.5 -25.5 3.5 -37.5s-3.5 -24.167 -7.5 -36.5s-9.33301 -26.5 -16 -42.5c-9.33301 -15.333 -18.833 -30 -28.5 -44s-20.5 -26.667 -32.5 -38s-25 -20.333 -39 -27s-29.333 -10 -46 -10
c-9.33301 0 -18.333 1.16699 -27 3.5s-16 7.16602 -22 14.499c-15.333 16.667 -24 34.834 -26 54.501s-0.333008 39.167 5 58.5c4 12 9 23 15 33c14.667 25.333 30.834 46.833 48.501 64.5s36.167 34.5 55.5 50.5zM91.002 71l-30 -31.5
c-12.667 -13.667 -24.5 -28.5 -35.5 -44.5s-20 -31.833 -27 -47.5s-8.83301 -29.167 -5.5 -40.5c13.333 6 27 15.833 41 29.5s26.333 28.667 37 45s18.167 32.5 22.5 48.5s3.5 29.667 -2.5 41z" />
    <glyph glyph-name="t" unicode="t" horiz-adv-x="272" 
d="M26 -76c4 -12.667 12.1699 -16.665 24.5029 -11.998s26.666 14.667 42.999 30s33.5 34 51.5 56l51.5 65c16.333 21.333 30.5 40.666 42.5 57.999s20 28.666 24 33.999c3.33301 5.33301 7.16602 10.333 11.499 15s9.83301 9.66699 16.5 15
c2.66699 2 5.83398 4.16699 9.50098 6.5s6.83398 3.33301 9.50098 3s3.83398 -2.5 3.50098 -6.5s-2.83301 -10.667 -7.5 -20l-19 -36.5c-8.66699 -16.333 -19.334 -34.666 -32.001 -54.999s-26.667 -41.333 -42 -63s-31.833 -41.834 -49.5 -60.501s-35.667 -35 -54 -49
s-36.833 -23 -55.5 -27c-16.667 -4 -32 -6.16699 -46 -6.5s-26.333 4.83398 -37 15.501c-10 10 -15.667 24.333 -17 43s-0.5 38.5 2.5 59.5s7.16699 41.333 12.5 61s9.66602 34.834 12.999 45.501l30.5 102.5l28.5 101.5c10 30 19.167 60.833 27.5 92.5
s16.833 60.167 25.5 85.5c-13.333 0.666992 -27 1.16699 -41 1.5l-42 1c-14 0.333008 -27.833 1.16602 -41.5 2.49902s-26.5 3.66602 -38.5 6.99902c-10.667 2.66699 -18.5 7 -23.5 13s-7.33301 12 -7 18s3.66602 11.167 9.99902 15.5s15.5 6.5 27.5 6.5
c7.33301 0 19.333 -0.666992 36 -2s34.167 -2.33301 52.5 -3s35.333 -0.833984 51 -0.500977s25.834 1.5 30.501 3.5c2 0.666992 3 1.66699 3 3l13 38l14 39l13.5 36l11.5 29c2.66699 6 8.16699 8.5 16.5 7.5s17 -3.83301 26 -8.5s16.833 -10.5 23.5 -17.5
s9.66699 -13.5 9 -19.5c-2 -17.333 -6.66699 -34.333 -14 -51s-13.666 -35.667 -18.999 -57c42 0.666992 78.167 1.16699 108.5 1.5s59.833 0.5 88.5 0.5c9.33301 0 18.666 -0.166992 27.999 -0.5s16.5 -1.16602 21.5 -2.49902s6.16699 -3.16602 3.5 -5.49902
s-11.334 -5.5 -26.001 -9.5c-42 -13.333 -82.667 -23.5 -122 -30.5s-78 -12.167 -116 -15.5c-3.33301 -0.666992 -4.83301 -1.33398 -4.5 -2.00098s-0.5 -2.66699 -2.5 -6c0 -0.666992 -0.333008 -1.33398 -1 -2.00098s-1 -1.33398 -1 -2.00098l-35 -99l-38 -113l-36 -114
c-11.333 -37.333 -21 -71.166 -29 -101.499s-13.833 -55.666 -17.5 -75.999s-3.83398 -32.833 -0.500977 -37.5z" />
    <glyph glyph-name="u" unicode="u" horiz-adv-x="398" 
d="M438 196l1.00098 0.000976562v-8c-6.66699 -24 -17 -45.667 -31 -65c-5.33301 -6.66699 -11.833 -16.167 -19.5 -28.5s-14.5 -22.166 -20.5 -29.499c-14 -15.333 -27.167 -28.833 -39.5 -40.5s-27.166 -22.167 -44.499 -31.5c-8 -4 -16.833 -7.5 -26.5 -10.5
s-19.334 -4.5 -29.001 -4.5s-18.834 1.66699 -27.501 5s-16 9.33301 -22 18c-10.667 13.333 -16.5 29.166 -17.5 47.499s2.16699 37.166 9.5 56.499l-6 -6l-9 -9l-9.5 -9.5c-3 -3 -5.16699 -4.83301 -6.5 -5.5c-10 -10 -20 -18.667 -30 -26s-20.333 -13.666 -31 -18.999
c-8.66699 -4 -16.167 -6.33301 -22.5 -7s-12.166 0.5 -17.499 3.5s-10.5 7.5 -15.5 13.5s-10.5 13 -16.5 21c-8.66699 12 -15.167 23.833 -19.5 35.5s-5.16602 24.167 -2.49902 37.5c1.33301 4.66699 2.5 9.33398 3.5 14.001s2.5 9 4.5 13c4 11.333 8.83301 24.333 14.5 39
l17.5 44l17.5 41.5c5.66699 13 10.5 23.5 14.5 31.5c4.66699 12 11.667 18 21 18s17.833 -3.66699 25.5 -11s13.5 -17 17.5 -29s3 -23.667 -3 -35c-3.33301 -8 -8.33301 -19.333 -15 -34l-20.5 -45.5c-7 -15.667 -13.167 -30.5 -18.5 -44.5s-8.33301 -24.333 -9 -31
c0 -14.667 2.83301 -22.334 8.5 -23.001s13.334 3 23.001 11s20.334 19.167 32.001 33.5l35.5 45.5l33.5 46.5c10.333 15 19.166 27.167 26.499 36.5c9.33301 16.667 17.166 31.5 23.499 44.5s15.833 25.833 28.5 38.5c6.66699 2.66699 14.667 2.16699 24 -1.5
s17.666 -9.16699 24.999 -16.5s12.5 -15.5 15.5 -24.5s2.16699 -16.833 -2.5 -23.5c-12 -15.333 -22.833 -28.333 -32.5 -39s-18.834 -24.334 -27.501 -41.001l-16 -35.5c-6 -13 -11.5 -26.333 -16.5 -40s-9 -27 -12 -40s-3.83301 -24.5 -2.5 -34.5
c0 -11.333 5.66699 -16 17 -14c16 2.66699 33.667 11.167 53 25.5s38.333 30.666 57 48.999s36 36.333 52 54s28.667 30.834 38 39.501z" />
    <glyph glyph-name="v" unicode="v" 
d="M68 83c6 -4.66699 12.002 -3.50684 18.002 3.49316s12.167 17.667 18.5 32s12.5 31.333 18.5 51s12.5 39.334 19.5 59.001s14.333 38.667 22 57s16.167 33.5 25.5 45.5c3.33301 6 8.83301 11 16.5 15s14.5 4.66699 20.5 2
c5.33301 -1.33301 9.66602 -4.66602 12.999 -9.99902s4.33301 -11 3 -17v-12.5c0 -4.33301 0.666992 -9.16602 2 -14.499c4 -15.333 11.667 -27 23 -35s24.166 -13.667 38.499 -17s29 -4.5 44 -3.5s28.5 3.16699 40.5 6.5c2 0 4.5 0.333008 7.5 1
s5.66699 0.833984 8 0.500977s3.83301 -1.16602 4.5 -2.49902s-0.666016 -3.66602 -3.99902 -6.99902c-12.667 -13.333 -26.834 -22.833 -42.501 -28.5s-31.5 -8 -47.5 -7s-31.667 5.16699 -47 12.5s-29 17 -41 29l-24 -52.5c-10 -22.333 -21.167 -45.166 -33.5 -68.499
s-25.5 -44.5 -39.5 -63.5s-28.333 -31.167 -43 -36.5c-18 -6 -33 -5.5 -45 1.5s-21.667 17.167 -29 30.5s-12.5 28.333 -15.5 45s-4.5 31 -4.5 43v46c0 10 0.333008 19.5 1 28.5s1.66699 18.5 3 28.5c0 7.33301 0.333008 14.666 1 21.999s1.66699 15 3 23
c0 3.33301 0.833008 5.83301 2.5 7.5s3.83398 1.83398 6.50098 0.500977c19.333 -3.33301 33.666 -12 42.999 -26s14 -29.667 14 -47c0 -10 -0.666992 -21.333 -2 -34s-2.5 -25.667 -3.5 -39s-1.5 -25.833 -1.5 -37.5s1.33301 -21.5 4 -29.5c0 -1.33301 0.333008 -2 1 -2h1z
" />
    <glyph glyph-name="w" unicode="w" horiz-adv-x="476" 
d="M497 213c-12 -8 -24.667 -13.5049 -38 -16.5049s-26.666 -3.66699 -39.999 -2s-26.333 5.16699 -39 10.5s-24 12.333 -34 21l-20.5 -63c-7.66699 -22.667 -16.5 -44 -26.5 -64s-21.667 -37.667 -35 -53s-28.666 -25.333 -45.999 -30c-4 -2 -9 -2.33301 -15 -1
s-12.167 3.83301 -18.5 7.5s-12.166 7.83398 -17.499 12.501s-9.66602 9.33398 -12.999 14.001c-5.33301 7.33301 -8.83301 15.833 -10.5 25.5s-2.5 19.667 -2.5 30s0.666992 20.333 2 30s2 18.167 2 25.5c-4 -6 -10.333 -16.833 -19 -32.5s-18.167 -31.667 -28.5 -48
s-20.833 -30.666 -31.5 -42.999s-19.334 -18.166 -26.001 -17.499c-11.333 1.33301 -21.5 5.16602 -30.5 11.499s-15.5 14.166 -19.5 23.499c-4 10 -5 25.667 -3 47s5.5 43.666 10.5 66.999s10.167 45.333 15.5 66l12 46c0 6 3.5 8.66699 10.5 8s14.5 -3.5 22.5 -8.5
s14.833 -12 20.5 -21s7.5 -19.167 5.5 -30.5l-9.5 -44c-3 -13.333 -6.33301 -26.166 -10 -38.499l-12 -38.5l-14.5 -44c2 -4 7.33301 -0.166992 16 11.5s18 26 28 43s19.667 34.5 29 52.5s16.333 31 21 39c4.66699 6 7.33398 12.333 8.00098 19s2.66699 13.334 6 20.001
c4 6 9 8.66699 15 8s12 -2.83398 18 -6.50098s11.167 -7.66699 15.5 -12s6.83301 -7.16602 7.5 -8.49902c4 -8 5 -19.5 3 -34.5s-4.33301 -31 -7 -48s-4.83398 -33.667 -6.50098 -50s0.166016 -29.166 5.49902 -38.499c2 -1.33301 4.66699 -2.16602 8 -2.49902
s6.66602 2.16699 9.99902 7.5c8.66699 15.333 17.834 35.333 27.501 60s18.5 50.5 26.5 77.5s14.667 53.333 20 79s8 47.167 8 64.5c0 8.66699 3.16699 14 9.5 16s13.166 1.16699 20.499 -2.5s14.166 -9.16699 20.499 -16.5s9.5 -16 9.5 -26c0 -19.333 4.5 -35.333 13.5 -48
s20.5 -22.5 34.5 -29.5s29.167 -11.333 45.5 -13s31.833 -1.16699 46.5 1.5c4 0.666992 6.33301 0.5 7 -0.5s0.5 -2.5 -0.5 -4.5s-2.33301 -3.83301 -4 -5.5z" />
    <glyph glyph-name="x" unicode="x" horiz-adv-x="299" 
d="M182 1c-31.333 -7.33301 -56.333 -5.83691 -75 4.49609s-35 28.5 -49 54.5c-17.333 -15.333 -33 -32.333 -47 -51l-44 -56c-4 -5.33301 -7.33301 -8.16602 -10 -8.49902s-4.5 0.5 -5.5 2.5s-1.33301 5 -1 9s1.16602 8 2.49902 12
c9.33301 26.667 20.666 49.834 33.999 69.501s28.666 40.834 45.999 63.501l-28 67c-7.33301 17.333 -12.666 35.333 -15.999 54c-2 18.667 1.33301 37.667 10 57c2.66699 5.33301 6.16699 11.5 10.5 18.5s8.66602 13.167 12.999 18.5s8.16602 9.33301 11.499 12
s5.33301 2.33398 6 -0.999023c4 -16 8.33301 -32.5 13 -49.5s9.33398 -32.667 14.001 -47l12.5 -38.5c3.66699 -11.333 6.5 -19.666 8.5 -24.999l21.5 25.5c6.33301 7.66699 12.5 14.667 18.5 21s12.333 12 19 17s14.334 10.167 23.001 15.5
c5.33301 2.66699 10.333 3.33398 15 2.00098s8.33398 -3.66602 11.001 -6.99902s4.5 -6.83301 5.5 -10.5s0.5 -6.16699 -1.5 -7.5l-19.5 -17.5c-7.66699 -7 -15.667 -14.833 -24 -23.5l-25.5 -27c-8.66699 -9.33301 -16.334 -18.333 -23.001 -27
c2.66699 -7.33301 6.16699 -15.833 10.5 -25.5s9.33301 -19 15 -28s11.834 -17 18.501 -24s13.667 -11.167 21 -12.5c12 -2.66699 24.333 0.666016 37 9.99902s25.167 21.166 37.5 35.499s24 29.666 35 45.999l29.5 42.5c5.33301 5.33301 9.33301 7.5 12 6.5
s4.5 -3.66699 5.5 -8s1.16699 -9.16602 0.5 -14.499s-1.66699 -9.66602 -3 -12.999c-9.33301 -16.667 -19.666 -32.834 -30.999 -48.501s-23.333 -29.834 -36 -42.501s-25.667 -23.5 -39 -32.5s-26.333 -15.167 -39 -18.5z" />
    <glyph glyph-name="y" unicode="y" horiz-adv-x="359" 
d="M69 27c-17.333 -3.33301 -33.501 -0.666992 -48.501 8s-24.167 21.667 -27.5 39c-2.66699 14.667 -4 31.334 -4 50.001s1 37.5 3 56.5s4.83301 37.5 8.5 55.5s7.5 34 11.5 48c3.33301 6 8.5 9 15.5 9s14.333 -1.5 22 -4.5s14.334 -6.83301 20.001 -11.5
s9.16699 -9.33398 10.5 -14.001c2 -8.66699 0.166992 -22.5 -5.5 -41.5l-18.5 -59.5c-6.66699 -20.667 -12 -39.834 -16 -57.501s-3.33301 -28.834 2 -33.501c4.66699 -4.66699 10.834 -3.5 18.501 3.5s15.834 17.333 24.501 31s17.667 29.667 27 48l27.5 54.5l24.5 50
c7.33301 15.333 13.333 27 18 35c1.33301 2.66699 4.5 3.83398 9.5 3.50098s10.167 -1.83301 15.5 -4.5s10.333 -6.16699 15 -10.5s7.66699 -9.16602 9 -14.499c6 -23.333 8 -48.5 6 -75.5s-5.66699 -52.5 -11 -76.5c24.667 19.333 48.834 36.666 72.501 51.999
s49.167 29 76.5 41c2.66699 2 7.83398 3.5 15.501 4.5s14.167 1.16699 19.5 0.5s8.16602 -2.83398 8.49902 -6.50098s-5.83398 -9.5 -18.501 -17.5c-30.667 -19.333 -61.667 -41.333 -93 -66l-88 -70c-4.66699 -3.33301 -7.66699 -8.66602 -9 -15.999
c-5.33301 -37.333 -14.666 -78.666 -27.999 -123.999s-29.5 -91 -48.5 -137s-40.333 -89.833 -64 -131.5s-48.5 -77.5 -74.5 -107.5c-16.667 -19.333 -34.334 -32.833 -53.001 -40.5s-35.834 -9.5 -51.501 -5.5s-28.667 13.833 -39 29.5s-15.833 37.167 -16.5 64.5
c8.66699 41.333 22.667 81.5 42 120.5s42.5 77.333 69.5 115s56.833 75.334 89.5 113.001l103 114.5c4.66699 3.33301 9 11.166 13 23.499s7.33301 25.5 10 39.5s4.5 27.167 5.5 39.5s0.833008 19.833 -0.5 22.5c-6.66699 -12 -14 -26.167 -22 -42.5s-16.333 -32 -25 -47
s-17.334 -28 -26.001 -39s-17 -16.833 -25 -17.5zM-118.001 -456.001c7.33301 -2.66699 18.002 4.5 32.002 21.5s29.667 39.667 47 68s35 60 53 95s34.5 69 49.5 102s27.5 62.833 37.5 89.5s15.333 45.667 16 57c-17.333 -18.667 -36.333 -41.167 -57 -67.5s-41 -54 -61 -83
s-38.833 -58.5 -56.5 -88.5s-32.334 -58 -44.001 -84s-19.334 -48.833 -23.001 -68.5s-1.5 -33.5 6.5 -41.5z" />
    <glyph glyph-name="z" unicode="z" horiz-adv-x="362" 
d="M170 63c-13.333 9.33301 -27.3262 14.1729 -41.9932 14.5059s-29.667 -1.16699 -45 -4.5c-2 -0.666992 -5.33301 -1 -10 -1c-6 0 -11 1.83301 -15 5.5s-6.83301 8 -8.5 13s-1.83398 10.167 -0.500977 15.5s4.33301 9.66602 9 12.999l28.5 38l31.5 42.5
c10.667 14.333 20.5 28.666 29.5 42.999s16.5 27.833 22.5 40.5c-15.333 4.66699 -30.666 2 -45.999 -8s-29.666 -23.167 -42.999 -39.5s-24.833 -33.666 -34.5 -51.999s-16.834 -33.5 -21.501 -45.5c-4 -10.667 -9.33301 -14.667 -16 -12s-11.667 7 -15 13
c-5.33301 8.66699 -7.33301 19 -6 31s4.16602 24 8.49902 36s9.66602 23.333 15.999 34s12.166 19.667 17.499 27c15.333 20.667 33.166 35.834 53.499 45.501s42.833 16.167 67.5 19.5c10 1.33301 18.833 0.333008 26.5 -3s14.167 -8.5 19.5 -15.5s9.5 -15.333 12.5 -25
s4.83301 -19.834 5.5 -30.501c-1.33301 -21.333 -6.83301 -42.5 -16.5 -63.5s-23.167 -41.167 -40.5 -60.5c11.333 -0.666992 22.833 -2.83398 34.5 -6.50098s22.167 -10.5 31.5 -20.5c20 15.333 42.667 30.666 68 45.999s48.666 27.333 69.999 36
c4 2 9.83301 2.66699 17.5 2s14.5 -2 20.5 -4s10 -4.5 12 -7.5s-0.666992 -5.83301 -8 -8.5c-8.66699 -3.33301 -20 -8.5 -34 -15.5s-28.333 -15 -43 -24s-28.834 -18.333 -42.501 -28s-24.167 -19.167 -31.5 -28.5c12.667 -22 21.834 -42.833 27.501 -62.5
s7.16699 -41.5 4.5 -65.5c-4 -38.667 -14.833 -80.334 -32.5 -125.001s-40 -87.5 -67 -128.5s-57.167 -78 -90.5 -111s-67 -56.833 -101 -71.5c-6.66699 -2.66699 -13.834 -3.83398 -21.501 -3.50098s-15.167 2 -22.5 5s-14 7 -20 12s-11 10.833 -15 17.5
c-7.33301 16 -10.833 29.5 -10.5 40.5s3.16602 25.167 8.49902 42.5c9.33301 32.667 22.833 69.667 40.5 111s38 82.666 61 123.999s47.833 80 74.5 116s53.667 65 81 87zM192.007 33.0068c-25.333 -29.333 -49.833 -61.667 -73.5 -97s-46 -71.666 -67 -108.999
s-40.167 -74.5 -57.5 -111.5s-32 -71.833 -44 -104.5c-2 -5.33301 -1.16699 -9 2.5 -11s9.5 -1.66699 17.5 1c12.667 4 27.667 14.5 45 31.5s35.333 38.167 54 63.5s36.834 53.166 54.501 83.499s32.5 60.833 44.5 91.5s20.667 60.167 26 88.5s4.66602 52.833 -2.00098 73.5
z" />
    <glyph glyph-name="braceleft" unicode="{" horiz-adv-x="259" 
d="M122 306c12.667 -12.667 21.5039 -26.499 26.5039 -41.499s7.66699 -30.5 8 -46.5s-1.16699 -32.5 -4.5 -49.5l-10 -50.5c-6 -21.333 -11.333 -42 -16 -62s-7 -38.5 -7 -55.5s2.83301 -32.667 8.5 -47s15.5 -26.5 29.5 -36.5c8 -6.66699 7.33301 -14 -2 -22
c-17.333 -12.667 -35.5 -15.667 -54.5 -9s-31.833 20.667 -38.5 42c-8 24 -11.667 47.667 -11 71s3.33398 46.333 8.00098 69c2.66699 13.333 6.16699 27.5 10.5 42.5s8.33301 30.167 12 45.5s6.66699 30.333 9 45s2.5 28 0.5 40c-2 13.333 -9 23.666 -21 30.999
s-22.667 11.666 -32 12.999c-6 1.33301 -11.833 5.16602 -17.5 11.499s-10.5 13.333 -14.5 21s-6.33301 15.5 -7 23.5s1.33301 14 6 18c5.33301 4.66699 11.833 6.33398 19.5 5.00098s15.167 -2 22.5 -2c23.333 0 41.833 6.66699 55.5 20s24.5 29.833 32.5 49.5
s14.5 40.834 19.5 63.501s10.167 43.334 15.5 62.001c6.66699 24 15.334 44.833 26.001 62.5s22.667 31.167 36 40.5s27.666 13.5 42.999 12.5s31.666 -7.83301 48.999 -20.5c4.66699 -2.66699 7 -6.33398 7 -11.001s-2.33301 -7.66699 -7 -9
c-4.66699 -2.66699 -9.33398 -5 -14.001 -7s-9.33398 -4.33301 -14.001 -7c-18.667 -7.33301 -32.334 -19.5 -41.001 -36.5s-15.667 -34.833 -21 -53.5l-18 -64.5c-6 -21.667 -13.167 -42.167 -21.5 -61.5s-18.333 -37.333 -30 -54s-25.834 -30.667 -42.501 -42z" />
    <glyph glyph-name="bar" unicode="|" horiz-adv-x="316" 
d="M103 -116c-4.66699 -15.333 -10.334 -22.1689 -17.001 -20.502s-10.667 10.167 -12 25.5c0 11.333 -0.166992 22.833 -0.5 34.5s-0.5 23.167 -0.5 34.5c4.66699 58.667 11.5 121.667 20.5 189s18.667 135.833 29 205.5l31.5 206l30 190.5
c1.33301 3.33301 2.33301 6.5 3 9.5s1.66699 6.5 3 10.5c2 3.33301 4.33301 6.66602 7 9.99902s5.66699 5.5 9 6.5s6.83301 0.5 10.5 -1.5s7.5 -6.66699 11.5 -14c3.33301 -7.33301 5.5 -15 6.5 -23s1.83301 -15.667 2.5 -23c1.33301 -55.333 -0.5 -115.666 -5.5 -180.999
s-12.333 -131.666 -22 -198.999s-21.167 -133.666 -34.5 -198.999s-27.666 -126 -42.999 -182c-4 -13.333 -8.5 -26.5 -13.5 -39.5z" />
    <glyph glyph-name="braceright" unicode="}" horiz-adv-x="338" 
d="M167 306c-12 11.333 -20.3379 25.333 -25.0049 42s-7 34.667 -7 54s1.66699 39.833 5 61.5l10 64.5c2.66699 18.667 3.16699 36.5 1.5 53.5s-10.167 29.167 -25.5 36.5c-3.33301 2.66699 -6.83301 5 -10.5 7s-7.16699 4.33301 -10.5 7c-4 1.33301 -5 4.33301 -3 9
s5.66699 8.33398 11 11.001c22.667 12.667 41.834 19.5 57.501 20.5s28.334 -3.16699 38.001 -12.5s15.834 -22.833 18.501 -40.5s2.33398 -38.5 -0.999023 -62.5c-2 -18.667 -5.5 -39.334 -10.5 -62.001s-7.66699 -43.834 -8 -63.501s3.5 -36.167 11.5 -49.5
s23.667 -20 47 -20c7.33301 0 15 0.666992 23 2s13.667 -0.333984 17 -5.00098c2.66699 -4 2.16699 -10 -1.5 -18s-9.16699 -15.833 -16.5 -23.5s-15.333 -14.667 -24 -21s-16 -10.166 -22 -11.499c-10 -1.33301 -22.667 -5.66602 -38 -12.999
s-26.666 -17.666 -33.999 -30.999c-7.33301 -12 -13 -25.333 -17 -40s-7.33301 -29.667 -10 -45s-5.16699 -30.5 -7.5 -45.5s-4.83301 -29.167 -7.5 -42.5c-5.33301 -22.667 -12.666 -45.667 -21.999 -69s-23.333 -47 -42 -71c-8 -10.667 -16.833 -19.5 -26.5 -26.5
s-19.5 -12 -29.5 -15s-19.333 -3.83301 -28 -2.5s-16 5 -22 11c-5.33301 7.33301 -3 14.666 7 21.999c18 10 32.833 22.167 44.5 36.5s21.167 30 28.5 47s13 35.5 17 55.5s7.66699 40.667 11 62c3.33301 16.667 7.16602 33.5 11.499 50.5s10 33.5 17 49.5
s16.333 31.5 28 46.5s26.5 28.833 44.5 41.5z" />
    <glyph glyph-name="asciitilde" unicode="~" horiz-adv-x="359" 
d="M302 186c-13.333 -42.667 -40.6689 -68 -82.002 -76c-12.667 -2.66699 -23.5 -2 -32.5 2s-17.167 9.5 -24.5 16.5s-14 14.5 -20 22.5s-12 14.833 -18 20.5s-12.167 9 -18.5 10s-13.833 -1.83301 -22.5 -8.5c-9.33301 -6.66699 -18 -13.667 -26 -21l-24 -22
c-4 -4 -9 -4.66699 -15 -2c-6.66699 5.33301 -8.16699 12.333 -4.5 21s9.33398 17.5 17.001 26.5s15.834 17 24.501 24s15 11.833 19 14.5c10.667 6.66699 21.5 10 32.5 10s21.833 -3.66699 32.5 -11c10 -8 18.5 -16 25.5 -24s13.833 -14.833 20.5 -20.5s14 -9 22 -10
s17.667 2.16699 29 9.5l26 16l25 16c6.66699 4 11 4.16699 13 0.5s2.33301 -8.5 1 -14.5z" />
    <glyph glyph-name="exclamdown" unicode="&#xa1;" horiz-adv-x="329" 
d="M193.01 -43.9619c-4.66602 -4.66699 -10.4951 -7.00586 -17.4941 -7.00586c-7 0 -13.333 1.33301 -18.999 4c-5.66699 2.66699 -10.167 6.66699 -13.5 12s-4 11.333 -2 17.999c2.66699 9.99902 7 24.498 12.999 43.4971s13.165 40.498 21.498 64.4971l26.998 76.4951
l29.498 79.9951l29.498 74.9961l25.499 60.4961c2.66602 5.99902 6.33203 8.33203 10.999 6.99902s8 -4.66602 9.99902 -9.99902c4 -22.665 5.66699 -44.3301 5 -64.9951s-2.66699 -41.3301 -6 -61.9951c-3.33301 -18.665 -8.83301 -42.6631 -16.5 -71.9941
c-7.66602 -29.332 -16.665 -58.9971 -26.998 -88.9951s-21.666 -57.6631 -33.999 -82.9951c-12.333 -25.3311 -24.499 -42.9961 -36.498 -52.9951zM321.006 541.996c10 1.33301 18.498 -2.16602 25.4971 -10.499s11.332 -17.999 12.999 -28.998s0.5 -21.998 -3.5 -32.9971
c-3.99902 -10.999 -11.998 -18.832 -23.9971 -23.499c-14.666 -4.66699 -26.165 -2.66699 -34.498 6c-8.33301 8.66602 -13.166 19.499 -14.499 32.498s1.16699 25.498 7.5 37.4971s16.499 18.665 30.498 19.998z" />
    <glyph glyph-name="cent" unicode="&#xa2;" horiz-adv-x="286" 
d="M172 370c7.33301 0 15.3359 -0.166992 24.0029 -0.5s16.667 -1.66602 24 -3.99902s13.5 -6 18.5 -11s7.5 -12.5 7.5 -22.5c0 -8 -2.33301 -15.5 -7 -22.5s-10.667 -8.83301 -18 -5.5c-3.33301 0.666992 -8.5 1.33398 -15.5 2.00098s-14 0.5 -21 -0.5
s-13.333 -2.66699 -19 -5s-8.83398 -5.83301 -9.50098 -10.5c-2 -8 -4.5 -17.167 -7.5 -27.5l-9 -31l-8.5 -30.5c-2.66699 -10 -4.33398 -18.333 -5.00098 -25c4.66699 -2 11.167 -1.66699 19.5 1s16.5 6 24.5 10s15.333 7.83301 22 11.5s11 5.83398 13 6.50098
c3.33301 1.33301 5.83301 1 7.5 -1s2.16699 -4.33301 1.5 -7c-3.33301 -10 -8.5 -20 -15.5 -30s-15.333 -19 -25 -27s-20 -14.5 -31 -19.5s-21.5 -7.5 -31.5 -7.5c-6 -1.33301 -10 -4.66602 -12 -9.99902c-2 -4.66699 -3.66699 -9 -5 -13s-3 -8.66699 -5 -14
c-6.66699 -13.333 -12.334 -19.5 -17.001 -18.5s-7 8.16699 -7 21.5c0 5.33301 0.5 10.666 1.5 15.999s1.83301 10.666 2.5 15.999c-10.667 0 -20.167 2.5 -28.5 7.5s-15.5 11.5 -21.5 19.5s-10.5 17 -13.5 27s-4.16699 19.667 -3.5 29c2 18 6.5 34.667 13.5 50
s16.167 29.666 27.5 42.999s23.833 25.166 37.5 35.499s26.834 19.166 39.501 26.499c3.33301 1.33301 5.16602 4 5.49902 8s0.833008 7.66699 1.5 11c0.666992 4 1.66699 9.5 3 16.5s3 13.833 5 20.5s4.33301 12.5 7 17.5s6 7.83301 10 8.5
c7.33301 -0.666992 12.333 -4.16699 15 -10.5s4 -12.166 4 -17.499c1.33301 -5.33301 1.83301 -10.833 1.5 -16.5s-0.5 -11.167 -0.5 -16.5zM111.003 293c-6 -3.33301 -12.5 -10.668 -19.5 -22.001s-12.833 -23.333 -17.5 -36s-7.16699 -24.667 -7.5 -36
s3.5 -18.666 11.5 -21.999c1.33301 5.33301 3.5 13.333 6.5 24l10 34l10 34c3 10.667 5.16699 18.667 6.5 24z" />
    <glyph glyph-name="sterling" unicode="&#xa3;" horiz-adv-x="372" 
d="M41 218c-4 1.33301 -8.33203 2.00195 -12.999 2.00195s-9 0.666992 -13 2c-4.66699 2 -8 5.5 -10 10.5s-3 10.333 -3 16s1.33301 11 4 16s6 8.16699 10 9.5h6.5h11h10.5h6l17 63.5c5.33301 20.333 11.5 39.833 18.5 58.5s15.333 36.5 25 53.5s21.167 33.167 34.5 48.5
c7.33301 7.33301 14.5 14 21.5 20s14.833 11 23.5 15c15.333 8 32.5 11.167 51.5 9.5s36.333 -7.5 52 -17.5s28 -24.167 37 -42.5s11.5 -40.5 7.5 -66.5c-0.666992 -4 -2.66699 -6.66699 -6 -8s-7 -1.5 -11 -0.5s-8 2.83301 -12 5.5s-7 5.66699 -9 9
c-2.66699 3.33301 -4.5 6.66602 -5.5 9.99902s-2.16699 6.66602 -3.5 9.99902c-4.66699 10 -10.834 17.5 -18.501 22.5s-15.834 7.5 -24.501 7.5s-17.5 -2.33301 -26.5 -7s-17.167 -11 -24.5 -19c-17.333 -20.667 -32 -46.334 -44 -77.001s-20.667 -60 -26 -88
c2.66699 0 9.16699 -0.5 19.5 -1.5s21.5 -2.16699 33.5 -3.5s24 -3.16602 36 -5.49902s21.333 -4.83301 28 -7.5s9.5 -5.66699 8.5 -9s-8.16699 -7 -21.5 -11c-19.333 -5.33301 -38.666 -9.5 -57.999 -12.5s-38.333 -7.16699 -57 -12.5
c-4 -20.667 -6.66699 -41.167 -8 -61.5l-4 -62.5c9.33301 4 22.333 6.83301 39 8.5s34.667 1.66699 54 0s38.833 -4.83398 58.5 -9.50098s37.5 -11 53.5 -19s28.5 -17.667 37.5 -29s12.833 -24.666 11.5 -39.999c0 -2 -1.33301 -3.66699 -4 -5s-6 -1.33301 -10 0
c-16 4 -34 8 -54 12s-40.833 7 -62.5 9s-43.667 2.16699 -66 0.5s-43.833 -6.16699 -64.5 -13.5c-4 -1.33301 -7.83301 -3.16602 -11.5 -5.49902s-7.5 -4.5 -11.5 -6.5c-6 -2 -11.667 -2.16699 -17 -0.5s-10 4.5 -14 8.5s-6.66699 8.83301 -8 14.5s-1 11.167 1 16.5
c1.33301 3.33301 2 6.5 2 9.5s-0.333008 6.16699 -1 9.5c-4 14 -6.16699 27.833 -6.5 41.5s0.166992 27.5 1.5 41.5s3 27.667 5 41s3.33301 26.666 4 39.999z" />
    <glyph glyph-name="currency" unicode="&#xa4;" horiz-adv-x="313" 
d="M69 150c-12 10 -19.8389 21.834 -23.5059 35.501s-4.66699 27.667 -3 42s5.5 28.166 11.5 41.499s12.667 24.666 20 33.999l-22 27c-8 10 -15.333 20.667 -22 32c-1.33301 1.33301 -2.16602 3 -2.49902 5s-0.833008 3.66699 -1.5 5c0.666992 9.33301 4.5 15 11.5 17
s13.167 -0.333008 18.5 -7c9.33301 -9.33301 17 -18.166 23 -26.499s12.333 -16.166 19 -23.499l19 7.5l17 6.5c0 6.66699 0.333008 10.667 1 12c4.66699 4.66699 10.5 8 17.5 10s14.333 2.83301 22 2.5s14.834 -1.33301 21.501 -3s12.667 -3.83398 18 -6.50098
c2 0 3.33301 -0.666992 4 -2c0.666992 0 1.33398 -0.333008 2.00098 -1c2.66699 4 4.83398 8.16699 6.50098 12.5s4.16699 8.16602 7.5 11.499c2 3.33301 4.66699 6 8 8c6 4 11.833 4.66699 17.5 2s9.16699 -7.66699 10.5 -15c1.33301 -8 1.33301 -16 0 -24
s-4.66602 -15.333 -9.99902 -22c-5.33301 -6 -6.33301 -12.667 -3 -20c7.33301 -17.333 9.5 -33.833 6.5 -49.5s-9.16699 -31.167 -18.5 -46.5l-15 -21c9.33301 -6 16.333 -13.5 21 -22.5s8.66699 -18.5 12 -28.5c2 -9.33301 -0.666992 -16.666 -8 -21.999
c-3.33301 -2 -7 -2.83301 -11 -2.5s-7.66699 2.83301 -11 7.5c-4.66699 6.66699 -9.5 13.167 -14.5 19.5l-15.5 20.5c-15.333 -12.667 -31.666 -22.167 -48.999 -28.5s-36.333 -7.5 -57 -3.5l-11.5 -19.5l-10.5 -18.5c-2.66699 -5.33301 -4.66699 -9 -6 -11
c-8 -10 -16.667 -11.667 -26 -5c-8 4.66699 -10.667 12.334 -8 23.001c6.66699 16.667 15.667 31 27 43l3 1.5c0.666992 0.333008 2 1.16602 4 2.49902zM173.994 312.001c-2.66699 -1.33301 -4.83203 -2.99805 -6.49902 -4.99805s-3.83398 -3.66699 -6.50098 -5
c-28 -17.333 -45.333 -42 -52 -74c-2 -10.667 -0.666992 -19 4 -25c2.66699 -3.33301 5.66699 -4.5 9 -3.5s6.66602 2.16699 9.99902 3.5c14.667 5.33301 26.834 13.166 36.501 23.499s18.5 22.166 26.5 35.499c6 12 4.33301 23.333 -5 34z" />
    <glyph glyph-name="yen" unicode="&#xa5;" horiz-adv-x="328" 
d="M139 217c-8 -1.33301 -15.499 -2 -22.499 -2s-13.833 -0.333008 -20.5 -1c-9.33301 -1.33301 -15.333 1 -18 7c-2.66699 7.33301 -2.83398 14 -0.500977 20s6.16602 9.66699 11.499 11c8 2.66699 17.333 3.83398 28 3.50098s20 -0.5 28 -0.5
c5.33301 0 8.5 0.333008 9.5 1s2.16699 3.33398 3.5 8.00098l8 21c-4.66699 4 -12.334 11 -23.001 21l-35.5 34.5c-13 13 -26.167 27.167 -39.5 42.5s-25.166 30.833 -35.499 46.5s-17.833 30.834 -22.5 45.501s-5 28 -1 40c1.33301 2.66699 4 6 8 10s8.5 6.83301 13.5 8.5
s10 1.83398 15 0.500977s9.5 -5.33301 13.5 -12c21.333 -40 43 -76.667 65 -110s42.667 -61.666 62 -84.999c17.333 25.333 32 52.166 44 80.499s25.333 55.833 40 82.5c3.33301 6.66699 7.83301 10.834 13.5 12.501s11.167 1.5 16.5 -0.5s9.83301 -5.33301 13.5 -10
s5.16699 -10.334 4.5 -17.001c-0.666992 -10 -3 -21 -7 -33s-8.66699 -24 -14 -36s-10.833 -23.667 -16.5 -35l-14.5 -30c-6.66699 -15.333 -13.834 -30 -21.501 -44s-15.167 -28.667 -22.5 -44c0 -0.666992 -0.166992 -1.33398 -0.5 -2.00098s-0.5 -1.66699 -0.5 -3
l25.5 -10l25.5 -10c5.33301 -2 8.83301 -5 10.5 -9s-1.16602 -6 -8.49902 -6c-9.33301 0 -18.666 -0.333008 -27.999 -1s-18.666 -1 -27.999 -1c-7.33301 0 -11.333 -0.5 -12 -1.5s-2 -4.5 -4 -10.5c-1.33301 -2.66699 -2 -4.33398 -2 -5.00098
c13.333 -2 26.333 -3.83301 39 -5.5s25 -5.16699 37 -10.5c8.66699 -2.66699 11.667 -5.66699 9 -9s-6.33398 -5.66602 -11.001 -6.99902c-16 -2 -31.667 -4.5 -47 -7.5s-30.666 -5.83301 -45.999 -8.5c-7.33301 -23.333 -14.333 -46.833 -21 -70.5s-16.667 -44.5 -30 -62.5
c-6.66699 -8.66699 -12.667 -8.33398 -18 0.999023c-3.33301 6.66699 -5.66602 15.667 -6.99902 27s-1.83301 23.166 -1.5 35.499s1.16602 24.833 2.49902 37.5s3 23.667 5 33c-6 0 -11.5 -0.333008 -16.5 -1s-9.83301 0.333008 -14.5 3c-3.33301 1.33301 -5.83301 4 -7.5 8
s-2.33398 8.16699 -2.00098 12.5s2 8.16602 5 11.499s8.16699 5 15.5 5h10.5c4.33301 0 8.5 0.166992 12.5 0.5s7.5 1 10.5 2s4.83301 2.5 5.5 4.5l4 10.5z" />
    <glyph glyph-name="dieresis" unicode="&#xa8;" horiz-adv-x="393" 
d="M136 606c-28.667 2 -43 13.332 -43 33.999c0.666992 12.667 5.5 23.667 14.5 33s19.833 14 32.5 14c10 0 18.333 -3.66699 25 -11s9.66699 -15.666 9 -24.999c-1.33301 -13.333 -5 -24.333 -11 -33s-15 -12.667 -27 -12zM256 605.999c-28.667 2 -43 13.332 -43 33.999
c0.666992 12.667 5.5 23.667 14.5 33s19.833 14 32.5 14c10 0 18.333 -3.66699 25 -11s9.66699 -15.666 9 -24.999c-1.33301 -13.333 -5 -24.333 -11 -33s-15 -12.667 -27 -12z" />
    <glyph glyph-name="acute" unicode="&#xb4;" horiz-adv-x="312" 
d="M134 624l-16.9961 -9.99902c-6.66699 -4 -12.334 -6.83301 -17.001 -8.5s-7.33398 -1.16699 -8.00098 1.5s3 10 11 22l22 25.5c7.33301 8.33301 14.666 16.166 21.999 23.499c16.667 17.333 35 33.666 55 48.999c5.33301 4.66699 10.666 5.33398 15.999 2.00098
s8 -8 8 -14c0 -7.33301 -3.5 -15.5 -10.5 -24.5s-15.5 -17.833 -25.5 -26.5s-20.167 -16.5 -30.5 -23.5s-18.833 -12.5 -25.5 -16.5z" />
    <glyph glyph-name="cedilla" unicode="&#xb8;" horiz-adv-x="299" 
d="M90 -108c19.333 2 38.333 6.49902 57 13.499s31.667 19.5 39 37.5c-11.333 0.666992 -21.833 1.16699 -31.5 1.5s-19.167 -0.166992 -28.5 -1.5c-7.33301 0 -13.166 2.66699 -17.499 8s-5.83301 11.333 -4.5 18l6 23c2 8 4.33301 16 7 24
c0.666992 3.33301 1.83398 6.33301 3.50098 9s3.5 5 5.5 7c3.33301 3.33301 6.33301 4.66602 9 3.99902s4 -3 4 -7c1.33301 -4.66699 1.83301 -9.16699 1.5 -13.5s-0.5 -8.83301 -0.5 -13.5c0 -3.33301 -0.166992 -7 -0.5 -11s-0.5 -8.33301 -0.5 -13h28
c10.667 0 20.5 -1.16699 29.5 -3.5s16.333 -6.33301 22 -12s8.16699 -14.167 7.5 -25.5c-1.33301 -13.333 -5.5 -25.333 -12.5 -36s-15.833 -20 -26.5 -28c-34.667 -27.333 -70.334 -28.666 -107.001 -3.99902c-8 4.66699 -12.833 8.5 -14.5 11.5s-1.5 5.33301 0.5 7
s5.16699 2.83398 9.5 3.50098s9.16602 1 14.499 1z" />
    <glyph glyph-name="questiondown" unicode="&#xbf;" horiz-adv-x="478" 
d="M203.02 -4.96387c20.665 -3.33301 41.998 -4.16797 63.9971 -2.50098s43.3311 5.66699 63.9961 12s39.9971 14.999 57.9961 25.998s32.998 24.498 44.9971 40.4971c6 11.333 11.166 16.999 15.499 16.999s7.33301 -3.5 9 -10.5
c1.66699 -6.99902 1.66699 -16.498 0 -28.4971s-5.66699 -24.665 -12 -37.9971c-6.33301 -13.333 -15.333 -26.332 -26.999 -38.998s-26.165 -22.999 -43.4971 -30.998c-40.6641 -15.333 -79.6621 -22.333 -116.993 -21s-69.9961 14.332 -97.9951 38.9971
c-7.99902 7.33301 -14.665 16.332 -19.998 26.998s-8.83301 22.165 -10.5 34.498s-0.833984 24.832 2.49902 37.498s9.33301 24.332 17.999 34.9971c11.333 13.333 24.666 25.832 39.999 37.498c15.332 11.666 31.498 22.832 48.4971 33.498l51.9961 32.498
c17.666 10.999 34.498 22.832 50.4971 35.498c32.665 25.3311 60.3301 52.9961 82.9951 82.9951c22.665 29.998 36.9971 58.6631 42.9961 85.9941c1.33301 6 4.5 8.33301 9.5 7c4.99902 -1.33301 8.49902 -4.99902 10.499 -10.998
c4.66699 -12.666 8 -27.665 9.99902 -44.998c3.33301 -19.332 1.83301 -38.1641 -4.5 -56.4961s-15.833 -35.6641 -28.499 -51.9971c-12.665 -16.332 -27.4971 -31.998 -44.4961 -46.9971s-34.3311 -28.998 -51.9971 -41.9971
c-17.665 -12.999 -34.9971 -24.665 -51.9961 -34.998l-44.4971 -27.498c-5.33301 -3.33301 -13.499 -8.16602 -24.498 -14.499s-21.998 -13.166 -32.9971 -20.499s-20.665 -14.499 -28.998 -21.498s-12.499 -12.499 -12.499 -16.499
c-0.666992 -6.66602 2.66602 -11.999 9.99902 -15.999s13.999 -6.66602 19.999 -7.99902zM438.006 501.003c4 13.999 10.165 24.832 18.498 32.498s16.832 11.832 25.498 12.499c8.66699 0.666992 16.667 -2.49902 24 -9.49805c7.33301 -7 11.999 -18.166 13.999 -33.498
c2 -19.332 -1.66602 -32.998 -10.999 -40.998c-9.33301 -7.99902 -19.832 -11.499 -31.498 -10.499s-21.832 6 -30.498 14.999c-8.66699 8.99902 -11.667 20.498 -9 34.4971z" />
    <glyph glyph-name="Agrave" unicode="&#xc0;" horiz-adv-x="707" 
d="M608 340c15.333 -2 30.3271 -5.33594 44.9941 -10.0029s24 -15 28 -31c2.66699 -10.667 -1.33301 -19.667 -12 -27c-12 -6 -24.167 -10 -36.5 -12l-38.5 -6c-0.666992 0 -1.66699 -0.666992 -3 -2s-2 -2.66602 -2 -3.99902
c-15.333 -50.667 -27.666 -103.5 -36.999 -158.5s-19.666 -108.5 -30.999 -160.5c-1.33301 -3.33301 -3 -6.66602 -5 -9.99902s-4.66699 -5 -8 -5c-4.66699 0 -8 1.33301 -10 4s-3.66699 5.66699 -5 9c-12.667 58.667 -19 117.334 -19 176.001
c1.33301 24 3.33301 47.667 6 71s6.66699 46.333 12 69v3c-3.33301 1.33301 -12 2.16602 -26 2.49902s-29.333 0.333008 -46 0s-32.5 -0.666016 -47.5 -0.999023s-25.5 -0.5 -31.5 -0.5c-4 0 -11.667 -3.33301 -23 -10c-27.333 -18.667 -52.833 -39.167 -76.5 -61.5
l-71.5 -64.5c-24 -20.667 -49.333 -39.167 -76 -55.5s-56.334 -27.833 -89.001 -34.5c-9.33301 -1.33301 -18 2 -26 10c-3.33301 3.33301 -3.16602 7.5 0.500977 12.5s8.16699 9.5 13.5 13.5c40 28.667 78.667 59.167 116 91.5l110 97.5
c1.33301 1.33301 2.66602 2.5 3.99902 3.5l7 5.5c-29.333 4 -57.5 9.5 -84.5 16.5s-54.5 13.167 -82.5 18.5c-9.33301 3.33301 -18.666 6.33301 -27.999 9s-18.333 6.33398 -27 11.001c-4.66699 5.33301 -4.5 8.5 0.5 9.5s9.16699 1.5 12.5 1.5
c10 1.33301 19.5 2.5 28.5 3.5s18.5 2.16699 28.5 3.5c42.667 0.666992 81.834 2 117.501 4s71.167 3 106.5 3c3.33301 0 6.16602 0.666992 8.49902 2s4.83301 2.66602 7.5 3.99902c30 28 57.833 56.667 83.5 86s50.334 59.333 74.001 90s46.5 61.834 68.5 93.501l67 95.5
c10.667 15.333 25.334 20.666 44.001 15.999c5.33301 -2 10.333 -6.16699 15 -12.5s7 -13.166 7 -20.499c-5.33301 -60 -15.166 -117.833 -29.499 -173.5s-27.166 -111.5 -38.499 -167.5c0 -1.33301 -0.166992 -2.83301 -0.5 -4.5s-0.5 -2.83398 -0.5 -3.50098z
M540.994 466.997c-8 -9.33301 -17.668 -19.666 -29.001 -30.999l-35 -35l-34.5 -35.5c-11 -11.667 -20.167 -21.834 -27.5 -30.501h1c11.333 0 26.333 0.5 45 1.5s33.667 1.5 45 1.5c0.666992 0 1.33398 0.333008 2.00098 1l2 2c7.33301 21.333 13 42.5 17 63.5
s8.66699 41.833 14 62.5zM665.993 803.997c-6.66699 4 -15.1631 9.49902 -25.4961 16.499s-20.5 14.833 -30.5 23.5s-18.5 17.5 -25.5 26.5s-10.5 17.167 -10.5 24.5c0 6 2.66699 10.667 8 14s10.666 2.66602 15.999 -2.00098c20 -15.333 38.333 -31.666 55 -48.999
c7.33301 -7.33301 14.666 -15.166 21.999 -23.499l22 -25.5c8 -12 11.667 -19.333 11 -22s-3.33398 -3.16699 -8.00098 -1.5s-10.334 4.5 -17.001 8.5z" />
    <glyph glyph-name="Aacute" unicode="&#xc1;" horiz-adv-x="707" 
d="M608 340c15.333 -2 30.3271 -5.33594 44.9941 -10.0029s24 -15 28 -31c2.66699 -10.667 -1.33301 -19.667 -12 -27c-12 -6 -24.167 -10 -36.5 -12l-38.5 -6c-0.666992 0 -1.66699 -0.666992 -3 -2s-2 -2.66602 -2 -3.99902
c-15.333 -50.667 -27.666 -103.5 -36.999 -158.5s-19.666 -108.5 -30.999 -160.5c-1.33301 -3.33301 -3 -6.66602 -5 -9.99902s-4.66699 -5 -8 -5c-4.66699 0 -8 1.33301 -10 4s-3.66699 5.66699 -5 9c-12.667 58.667 -19 117.334 -19 176.001
c1.33301 24 3.33301 47.667 6 71s6.66699 46.333 12 69v3c-3.33301 1.33301 -12 2.16602 -26 2.49902s-29.333 0.333008 -46 0s-32.5 -0.666016 -47.5 -0.999023s-25.5 -0.5 -31.5 -0.5c-4 0 -11.667 -3.33301 -23 -10c-27.333 -18.667 -52.833 -39.167 -76.5 -61.5
l-71.5 -64.5c-24 -20.667 -49.333 -39.167 -76 -55.5s-56.334 -27.833 -89.001 -34.5c-9.33301 -1.33301 -18 2 -26 10c-3.33301 3.33301 -3.16602 7.5 0.500977 12.5s8.16699 9.5 13.5 13.5c40 28.667 78.667 59.167 116 91.5l110 97.5
c1.33301 1.33301 2.66602 2.5 3.99902 3.5l7 5.5c-29.333 4 -57.5 9.5 -84.5 16.5s-54.5 13.167 -82.5 18.5c-9.33301 3.33301 -18.666 6.33301 -27.999 9s-18.333 6.33398 -27 11.001c-4.66699 5.33301 -4.5 8.5 0.5 9.5s9.16699 1.5 12.5 1.5
c10 1.33301 19.5 2.5 28.5 3.5s18.5 2.16699 28.5 3.5c42.667 0.666992 81.834 2 117.501 4s71.167 3 106.5 3c3.33301 0 6.16602 0.666992 8.49902 2s4.83301 2.66602 7.5 3.99902c30 28 57.833 56.667 83.5 86s50.334 59.333 74.001 90s46.5 61.834 68.5 93.501l67 95.5
c10.667 15.333 25.334 20.666 44.001 15.999c5.33301 -2 10.333 -6.16699 15 -12.5s7 -13.166 7 -20.499c-5.33301 -60 -15.166 -117.833 -29.499 -173.5s-27.166 -111.5 -38.499 -167.5c0 -1.33301 -0.166992 -2.83301 -0.5 -4.5s-0.5 -2.83398 -0.5 -3.50098z
M540.994 466.997c-8 -9.33301 -17.668 -19.666 -29.001 -30.999l-35 -35l-34.5 -35.5c-11 -11.667 -20.167 -21.834 -27.5 -30.501h1c11.333 0 26.333 0.5 45 1.5s33.667 1.5 45 1.5c0.666992 0 1.33398 0.333008 2.00098 1l2 2c7.33301 21.333 13 42.5 17 63.5
s8.66699 41.833 14 62.5zM665.993 802.997l-16.9961 -9.99902c-6.66699 -4 -12.334 -6.83301 -17.001 -8.5s-7.33398 -1.16699 -8.00098 1.5s3 10 11 22l22 25.5c7.33301 8.33301 14.666 16.166 21.999 23.499c16.667 17.333 35 33.666 55 48.999
c5.33301 4.66699 10.666 5.33398 15.999 2.00098s8 -8 8 -14c0 -7.33301 -3.5 -15.5 -10.5 -24.5s-15.5 -17.833 -25.5 -26.5s-20.167 -16.5 -30.5 -23.5s-18.833 -12.5 -25.5 -16.5z" />
    <glyph glyph-name="Acircumflex" unicode="&#xc2;" horiz-adv-x="707" 
d="M608 340c15.333 -2 30.3271 -5.33594 44.9941 -10.0029s24 -15 28 -31c2.66699 -10.667 -1.33301 -19.667 -12 -27c-12 -6 -24.167 -10 -36.5 -12l-38.5 -6c-0.666992 0 -1.66699 -0.666992 -3 -2s-2 -2.66602 -2 -3.99902
c-15.333 -50.667 -27.666 -103.5 -36.999 -158.5s-19.666 -108.5 -30.999 -160.5c-1.33301 -3.33301 -3 -6.66602 -5 -9.99902s-4.66699 -5 -8 -5c-4.66699 0 -8 1.33301 -10 4s-3.66699 5.66699 -5 9c-12.667 58.667 -19 117.334 -19 176.001
c1.33301 24 3.33301 47.667 6 71s6.66699 46.333 12 69v3c-3.33301 1.33301 -12 2.16602 -26 2.49902s-29.333 0.333008 -46 0s-32.5 -0.666016 -47.5 -0.999023s-25.5 -0.5 -31.5 -0.5c-4 0 -11.667 -3.33301 -23 -10c-27.333 -18.667 -52.833 -39.167 -76.5 -61.5
l-71.5 -64.5c-24 -20.667 -49.333 -39.167 -76 -55.5s-56.334 -27.833 -89.001 -34.5c-9.33301 -1.33301 -18 2 -26 10c-3.33301 3.33301 -3.16602 7.5 0.500977 12.5s8.16699 9.5 13.5 13.5c40 28.667 78.667 59.167 116 91.5l110 97.5
c1.33301 1.33301 2.66602 2.5 3.99902 3.5l7 5.5c-29.333 4 -57.5 9.5 -84.5 16.5s-54.5 13.167 -82.5 18.5c-9.33301 3.33301 -18.666 6.33301 -27.999 9s-18.333 6.33398 -27 11.001c-4.66699 5.33301 -4.5 8.5 0.5 9.5s9.16699 1.5 12.5 1.5
c10 1.33301 19.5 2.5 28.5 3.5s18.5 2.16699 28.5 3.5c42.667 0.666992 81.834 2 117.501 4s71.167 3 106.5 3c3.33301 0 6.16602 0.666992 8.49902 2s4.83301 2.66602 7.5 3.99902c30 28 57.833 56.667 83.5 86s50.334 59.333 74.001 90s46.5 61.834 68.5 93.501l67 95.5
c10.667 15.333 25.334 20.666 44.001 15.999c5.33301 -2 10.333 -6.16699 15 -12.5s7 -13.166 7 -20.499c-5.33301 -60 -15.166 -117.833 -29.499 -173.5s-27.166 -111.5 -38.499 -167.5c0 -1.33301 -0.166992 -2.83301 -0.5 -4.5s-0.5 -2.83398 -0.5 -3.50098z
M540.994 466.997c-8 -9.33301 -17.668 -19.666 -29.001 -30.999l-35 -35l-34.5 -35.5c-11 -11.667 -20.167 -21.834 -27.5 -30.501h1c11.333 0 26.333 0.5 45 1.5s33.667 1.5 45 1.5c0.666992 0 1.33398 0.333008 2.00098 1l2 2c7.33301 21.333 13 42.5 17 63.5
s8.66699 41.833 14 62.5zM741.993 800.997c-7.33301 5.33301 -14.165 14.4971 -20.498 27.4971s-14.833 25.833 -25.5 38.5c-13.333 -13.333 -25.5 -27 -36.5 -41s-23.167 -26.667 -36.5 -38c-6 -5.33301 -12 -7.33301 -18 -6s-11 4.33301 -15 9s-6.5 10.334 -7.5 17.001
s0.833008 12.667 5.5 18c10 11.333 19.667 22.833 29 34.5s19 23.167 29 34.5c10.667 13.333 23.667 20.333 39 21s28.666 -7.66602 39.999 -24.999c9.33301 -13.333 17.166 -27.666 23.499 -42.999s10.833 -30.333 13.5 -45c2 -5.33301 2.66699 -8.83301 2 -10.5
s-2.16699 -2.16699 -4.5 -1.5s-5 2 -8 4s-6.16699 4 -9.5 6z" />
    <glyph glyph-name="Atilde" unicode="&#xc3;" horiz-adv-x="707" 
d="M608 340c15.333 -2 30.3271 -5.33594 44.9941 -10.0029s24 -15 28 -31c2.66699 -10.667 -1.33301 -19.667 -12 -27c-12 -6 -24.167 -10 -36.5 -12l-38.5 -6c-0.666992 0 -1.66699 -0.666992 -3 -2s-2 -2.66602 -2 -3.99902
c-15.333 -50.667 -27.666 -103.5 -36.999 -158.5s-19.666 -108.5 -30.999 -160.5c-1.33301 -3.33301 -3 -6.66602 -5 -9.99902s-4.66699 -5 -8 -5c-4.66699 0 -8 1.33301 -10 4s-3.66699 5.66699 -5 9c-12.667 58.667 -19 117.334 -19 176.001
c1.33301 24 3.33301 47.667 6 71s6.66699 46.333 12 69v3c-3.33301 1.33301 -12 2.16602 -26 2.49902s-29.333 0.333008 -46 0s-32.5 -0.666016 -47.5 -0.999023s-25.5 -0.5 -31.5 -0.5c-4 0 -11.667 -3.33301 -23 -10c-27.333 -18.667 -52.833 -39.167 -76.5 -61.5
l-71.5 -64.5c-24 -20.667 -49.333 -39.167 -76 -55.5s-56.334 -27.833 -89.001 -34.5c-9.33301 -1.33301 -18 2 -26 10c-3.33301 3.33301 -3.16602 7.5 0.500977 12.5s8.16699 9.5 13.5 13.5c40 28.667 78.667 59.167 116 91.5l110 97.5
c1.33301 1.33301 2.66602 2.5 3.99902 3.5l7 5.5c-29.333 4 -57.5 9.5 -84.5 16.5s-54.5 13.167 -82.5 18.5c-9.33301 3.33301 -18.666 6.33301 -27.999 9s-18.333 6.33398 -27 11.001c-4.66699 5.33301 -4.5 8.5 0.5 9.5s9.16699 1.5 12.5 1.5
c10 1.33301 19.5 2.5 28.5 3.5s18.5 2.16699 28.5 3.5c42.667 0.666992 81.834 2 117.501 4s71.167 3 106.5 3c3.33301 0 6.16602 0.666992 8.49902 2s4.83301 2.66602 7.5 3.99902c30 28 57.833 56.667 83.5 86s50.334 59.333 74.001 90s46.5 61.834 68.5 93.501l67 95.5
c10.667 15.333 25.334 20.666 44.001 15.999c5.33301 -2 10.333 -6.16699 15 -12.5s7 -13.166 7 -20.499c-5.33301 -60 -15.166 -117.833 -29.499 -173.5s-27.166 -111.5 -38.499 -167.5c0 -1.33301 -0.166992 -2.83301 -0.5 -4.5s-0.5 -2.83398 -0.5 -3.50098z
M540.994 466.997c-8 -9.33301 -17.668 -19.666 -29.001 -30.999l-35 -35l-34.5 -35.5c-11 -11.667 -20.167 -21.834 -27.5 -30.501h1c11.333 0 26.333 0.5 45 1.5s33.667 1.5 45 1.5c0.666992 0 1.33398 0.333008 2.00098 1l2 2c7.33301 21.333 13 42.5 17 63.5
s8.66699 41.833 14 62.5zM805.993 846.997c-10.667 -36.667 -32.668 -58.333 -66.001 -65c-15.333 -3.33301 -27.666 -0.666016 -36.999 8.00098s-17.833 17.834 -25.5 27.501s-15 17.334 -22 23.001s-15.5 4.16699 -25.5 -4.5c-7.33301 -5.33301 -14.333 -11.333 -21 -18
s-13.334 -13 -20.001 -19c-3.33301 -3.33301 -7.33301 -4 -12 -2c-5.33301 4.66699 -6.5 10.667 -3.5 18s7.5 14.833 13.5 22.5s12.5 14.667 19.5 21s12.167 10.5 15.5 12.5c8.66699 5.33301 17.5 8.16602 26.5 8.49902s17.833 -2.83398 26.5 -9.50098
c8 -6.66699 14.833 -13.5 20.5 -20.5s11.334 -12.833 17.001 -17.5s11.667 -7.5 18 -8.5s14.166 1.5 23.499 7.5c6.66699 5.33301 13.5 10.166 20.5 14.499s13.833 8.83301 20.5 13.5c5.33301 3.33301 8.83301 3.5 10.5 0.5s1.83398 -7.16699 0.500977 -12.5z" />
    <glyph glyph-name="Adieresis" unicode="&#xc4;" horiz-adv-x="707" 
d="M608 340c15.333 -2 30.3271 -5.33594 44.9941 -10.0029s24 -15 28 -31c2.66699 -10.667 -1.33301 -19.667 -12 -27c-12 -6 -24.167 -10 -36.5 -12l-38.5 -6c-0.666992 0 -1.66699 -0.666992 -3 -2s-2 -2.66602 -2 -3.99902
c-15.333 -50.667 -27.666 -103.5 -36.999 -158.5s-19.666 -108.5 -30.999 -160.5c-1.33301 -3.33301 -3 -6.66602 -5 -9.99902s-4.66699 -5 -8 -5c-4.66699 0 -8 1.33301 -10 4s-3.66699 5.66699 -5 9c-12.667 58.667 -19 117.334 -19 176.001
c1.33301 24 3.33301 47.667 6 71s6.66699 46.333 12 69v3c-3.33301 1.33301 -12 2.16602 -26 2.49902s-29.333 0.333008 -46 0s-32.5 -0.666016 -47.5 -0.999023s-25.5 -0.5 -31.5 -0.5c-4 0 -11.667 -3.33301 -23 -10c-27.333 -18.667 -52.833 -39.167 -76.5 -61.5
l-71.5 -64.5c-24 -20.667 -49.333 -39.167 -76 -55.5s-56.334 -27.833 -89.001 -34.5c-9.33301 -1.33301 -18 2 -26 10c-3.33301 3.33301 -3.16602 7.5 0.500977 12.5s8.16699 9.5 13.5 13.5c40 28.667 78.667 59.167 116 91.5l110 97.5
c1.33301 1.33301 2.66602 2.5 3.99902 3.5l7 5.5c-29.333 4 -57.5 9.5 -84.5 16.5s-54.5 13.167 -82.5 18.5c-9.33301 3.33301 -18.666 6.33301 -27.999 9s-18.333 6.33398 -27 11.001c-4.66699 5.33301 -4.5 8.5 0.5 9.5s9.16699 1.5 12.5 1.5
c10 1.33301 19.5 2.5 28.5 3.5s18.5 2.16699 28.5 3.5c42.667 0.666992 81.834 2 117.501 4s71.167 3 106.5 3c3.33301 0 6.16602 0.666992 8.49902 2s4.83301 2.66602 7.5 3.99902c30 28 57.833 56.667 83.5 86s50.334 59.333 74.001 90s46.5 61.834 68.5 93.501l67 95.5
c10.667 15.333 25.334 20.666 44.001 15.999c5.33301 -2 10.333 -6.16699 15 -12.5s7 -13.166 7 -20.499c-5.33301 -60 -15.166 -117.833 -29.499 -173.5s-27.166 -111.5 -38.499 -167.5c0 -1.33301 -0.166992 -2.83301 -0.5 -4.5s-0.5 -2.83398 -0.5 -3.50098z
M540.994 466.997c-8 -9.33301 -17.668 -19.666 -29.001 -30.999l-35 -35l-34.5 -35.5c-11 -11.667 -20.167 -21.834 -27.5 -30.501h1c11.333 0 26.333 0.5 45 1.5s33.667 1.5 45 1.5c0.666992 0 1.33398 0.333008 2.00098 1l2 2c7.33301 21.333 13 42.5 17 63.5
s8.66699 41.833 14 62.5zM608.993 780.997c-28.667 2 -43 13.332 -43 33.999c0.666992 12.667 5.5 23.667 14.5 33s19.833 14 32.5 14c10 0 18.333 -3.66699 25 -11s9.66699 -15.666 9 -24.999c-1.33301 -13.333 -5 -24.333 -11 -33s-15 -12.667 -27 -12zM728.993 780.996
c-28.667 2 -43 13.332 -43 33.999c0.666992 12.667 5.5 23.667 14.5 33s19.833 14 32.5 14c10 0 18.333 -3.66699 25 -11s9.66699 -15.666 9 -24.999c-1.33301 -13.333 -5 -24.333 -11 -33s-15 -12.667 -27 -12z" />
    <glyph glyph-name="Aring" unicode="&#xc5;" horiz-adv-x="707" 
d="M608 340c15.333 -2 30.3271 -5.33594 44.9941 -10.0029s24 -15 28 -31c2.66699 -10.667 -1.33301 -19.667 -12 -27c-12 -6 -24.167 -10 -36.5 -12l-38.5 -6c-0.666992 0 -1.66699 -0.666992 -3 -2s-2 -2.66602 -2 -3.99902
c-15.333 -50.667 -27.666 -103.5 -36.999 -158.5s-19.666 -108.5 -30.999 -160.5c-1.33301 -3.33301 -3 -6.66602 -5 -9.99902s-4.66699 -5 -8 -5c-4.66699 0 -8 1.33301 -10 4s-3.66699 5.66699 -5 9c-12.667 58.667 -19 117.334 -19 176.001
c1.33301 24 3.33301 47.667 6 71s6.66699 46.333 12 69v3c-3.33301 1.33301 -12 2.16602 -26 2.49902s-29.333 0.333008 -46 0s-32.5 -0.666016 -47.5 -0.999023s-25.5 -0.5 -31.5 -0.5c-4 0 -11.667 -3.33301 -23 -10c-27.333 -18.667 -52.833 -39.167 -76.5 -61.5
l-71.5 -64.5c-24 -20.667 -49.333 -39.167 -76 -55.5s-56.334 -27.833 -89.001 -34.5c-9.33301 -1.33301 -18 2 -26 10c-3.33301 3.33301 -3.16602 7.5 0.500977 12.5s8.16699 9.5 13.5 13.5c40 28.667 78.667 59.167 116 91.5l110 97.5
c1.33301 1.33301 2.66602 2.5 3.99902 3.5l7 5.5c-29.333 4 -57.5 9.5 -84.5 16.5s-54.5 13.167 -82.5 18.5c-9.33301 3.33301 -18.666 6.33301 -27.999 9s-18.333 6.33398 -27 11.001c-4.66699 5.33301 -4.5 8.5 0.5 9.5s9.16699 1.5 12.5 1.5
c10 1.33301 19.5 2.5 28.5 3.5s18.5 2.16699 28.5 3.5c42.667 0.666992 81.834 2 117.501 4s71.167 3 106.5 3c3.33301 0 6.16602 0.666992 8.49902 2s4.83301 2.66602 7.5 3.99902c30 28 57.833 56.667 83.5 86s50.334 59.333 74.001 90s46.5 61.834 68.5 93.501l67 95.5
c10.667 15.333 25.334 20.666 44.001 15.999c5.33301 -2 10.333 -6.16699 15 -12.5s7 -13.166 7 -20.499c-5.33301 -60 -15.166 -117.833 -29.499 -173.5s-27.166 -111.5 -38.499 -167.5c0 -1.33301 -0.166992 -2.83301 -0.5 -4.5s-0.5 -2.83398 -0.5 -3.50098z
M540.994 466.997c-8 -9.33301 -17.668 -19.666 -29.001 -30.999l-35 -35l-34.5 -35.5c-11 -11.667 -20.167 -21.834 -27.5 -30.501h1c11.333 0 26.333 0.5 45 1.5s33.667 1.5 45 1.5c0.666992 0 1.33398 0.333008 2.00098 1l2 2c7.33301 21.333 13 42.5 17 63.5
s8.66699 41.833 14 62.5zM695.993 901.997l2.99902 -0.00292969c9.33301 2.66699 17.666 2.83398 24.999 0.500977s13.5 -6.16602 18.5 -11.499s8.5 -11.833 10.5 -19.5s2.33301 -15.167 1 -22.5c-3.33301 -16.667 -11.833 -30.667 -25.5 -42s-27.834 -19.333 -42.501 -24
c-9.33301 -3.33301 -19 -3.16602 -29 0.500977s-18 9.16699 -24 16.5c-8 9.33301 -12.667 18.833 -14 28.5s-0.666016 19 2.00098 28s6.83398 17.833 12.501 26.5s11.5 16.667 17.5 24c0.666992 2 2 3.33301 4 4c16.667 13.333 30.334 10.333 41.001 -9zM660.992 821.994
c8 2 15.667 4.66797 23 8.00098s13.166 7.33301 17.499 12s6.5 10 6.5 16s-3 12.333 -9 19c-2 2 -4.16699 3.66699 -6.5 5s-5.16602 3.66602 -8.49902 6.99902c-5.33301 -12 -11 -22.833 -17 -32.5s-8 -21.167 -6 -34.5z" />
    <glyph glyph-name="AE" unicode="&#xc6;" horiz-adv-x="1055" 
d="M524 -4c-9.33301 3.33301 -17.9971 7.50195 -25.9971 12.502s-15 11.167 -21 18.5c-9.33301 8 -16.333 16.833 -21 26.5l-14 28.5c-4 11.333 -6.33301 22.666 -7 33.999s-0.333984 23 0.999023 35c2 13.333 5.33301 26 10 38s10 23.667 16 35c2.66699 4 5.16699 8 7.5 12
s5.16602 8 8.49902 12c-8.66699 0.666992 -19.667 1 -33 1s-26.833 -0.166992 -40.5 -0.5s-26.334 -0.666016 -38.001 -0.999023s-19.834 -0.5 -24.501 -0.5c-4 0 -11.667 -3.33301 -23 -10c-27.333 -18.667 -52.833 -39.167 -76.5 -61.5l-71.5 -64.5
c-24 -20.667 -49.333 -39.167 -76 -55.5s-56.334 -27.833 -89.001 -34.5c-9.33301 -1.33301 -18 2 -26 10c-3.33301 3.33301 -3.16602 7.5 0.500977 12.5s8.16699 9.5 13.5 13.5c40 28.667 78.667 59.167 116 91.5l110 97.5c1.33301 1.33301 2.66602 2.5 3.99902 3.5l7 5.5
c-29.333 4 -57.5 9.5 -84.5 16.5s-54.5 13.167 -82.5 18.5c-9.33301 3.33301 -18.666 6.33301 -27.999 9s-18.333 6.33398 -27 11.001c-4.66699 5.33301 -4.5 8.5 0.5 9.5s9.16699 1.5 12.5 1.5c10 1.33301 19.5 2.5 28.5 3.5s18.5 2.16699 28.5 3.5
c42.667 0.666992 81.834 2 117.501 4s71.167 3 106.5 3c3.33301 0 6.16602 0.666992 8.49902 2s4.83301 2.66602 7.5 3.99902l113 122.5c36 39.667 70 81.5 102 125.5l40 60.5c12 19 24.667 37.833 38 56.5c10.667 15.333 25.334 20.666 44.001 15.999
c5.33301 -2 10.333 -6.16699 15 -12.5s7 -13.166 7 -20.499c-2 -20.667 -3.83301 -38.5 -5.5 -53.5s-3.83398 -29.833 -6.50098 -44.5c21.333 20.667 44.5 40 69.5 58s50 33.833 75 47.5s49.333 24.834 73 33.501s44.834 13.667 63.501 15c21.333 2 39.333 -1.66699 54 -11
c9.33301 -4.66699 18 -10.167 26 -16.5s11.333 -15.166 10 -26.499c-5.33301 -34 -9 -67.167 -11 -99.5s-3 -65.166 -3 -98.499c-1.33301 -4 -2 -7.66699 -2 -11s-2.33301 -5.66602 -7 -6.99902c-10 -3.33301 -19.667 -0.333008 -29 9c-13.333 12.667 -23 26.167 -29 40.5
s-9.66699 29 -11 44s-0.666016 30.167 2.00098 45.5s6.33398 30.666 11.001 45.999c-1.33301 3.33301 -8 4 -20 2c-15.333 -2.66699 -32.5 -8.33398 -51.5 -17.001s-39 -19.167 -60 -31.5s-41.667 -26 -62 -41s-39.333 -30.333 -57 -46s-33 -31.334 -46 -47.001
s-22.167 -29.834 -27.5 -42.501c-4 -9.33301 -4.5 -17.333 -1.5 -24s11.833 -10 26.5 -10c14 0 28 1.5 42 4.5s29.5 7.5 46.5 13.5s36.333 13.667 58 23l76.5 34c10 2.66699 15.5 0.666992 16.5 -6s0.166992 -14.5 -2.5 -23.5s-6.33398 -17.667 -11.001 -26
s-8 -13.5 -10 -15.5c-10.667 -8.66699 -23 -16.5 -37 -23.5s-28.5 -13.833 -43.5 -20.5l-44 -20.5c-14.333 -7 -27.166 -14.5 -38.499 -22.5l-41 -29c-16 -11.333 -32.5 -23.666 -49.5 -36.999s-33.333 -27.666 -49 -42.999s-28.834 -30.833 -39.501 -46.5
s-17.5 -31.334 -20.5 -47.001s-0.5 -30.834 7.5 -45.501c4.66699 -8.66699 12.834 -14.334 24.501 -17.001s25.167 -3.16699 40.5 -1.5s32.166 5 50.499 10s36.833 11.167 55.5 18.5c50 19.333 96.5 40.166 139.5 62.499s83.5 47.166 121.5 74.499
c6.66699 4.66699 12.667 9.66699 18 15c1.33301 2 3 1.33301 5 -2s3.66699 -7.83301 5 -13.5s2.5 -12 3.5 -19s1.5 -13.833 1.5 -20.5c-2 -22.667 -11.333 -42.667 -28 -60s-37 -32.666 -61 -45.999c-28 -16 -57.333 -30.5 -88 -43.5s-61.834 -23.5 -93.501 -31.5
s-63.667 -12.5 -96 -13.5s-63.833 2.83301 -94.5 11.5zM542.003 467.002c-8 -9.33301 -17.668 -19.666 -29.001 -30.999l-35 -35l-34.5 -35.5c-11 -11.667 -20.167 -21.834 -27.5 -30.501h1c11.333 0 26.333 0.5 45 1.5s33.667 1.5 45 1.5
c0.666992 0 1.33398 0.333008 2.00098 1l2 2c7.33301 21.333 13 42.5 17 63.5s8.66699 41.833 14 62.5z" />
    <glyph glyph-name="Ccedilla" unicode="&#xc7;" horiz-adv-x="611" 
d="M117 -157c19.333 2 38.3418 6.48828 57.0088 13.4883s31.667 19.5 39 37.5c-11.333 0.666992 -21.833 1.16699 -31.5 1.5s-19.167 -0.166992 -28.5 -1.5c-7.33301 0 -13.166 2.66699 -17.499 8s-5.83301 11.333 -4.5 18s2.83301 13.334 4.5 20.001s3.5 13.334 5.5 20.001
c-20.667 2.66699 -38.667 8.66699 -54 18s-28.5 21 -39.5 35s-20.167 29.5 -27.5 46.5s-13 35.167 -17 54.5c-1.33301 6 -2.5 12.833 -3.5 20.5s-1.5 15.167 -1.5 22.5c0 34.667 3.5 66.834 10.5 96.501s15.5 58.5 25.5 86.5c4 12.667 9.33301 25 16 37
c19.333 40.667 44.166 79.834 74.499 117.501s64 72 101 103s76.167 58.167 117.5 81.5s83 41 125 53c11.333 4 22.333 4 33 0c3.33301 -1.33301 6.66602 -2 9.99902 -2s7 1.66699 11 5c10 6 20.5 6.33301 31.5 1s17.167 -14.666 18.5 -27.999
c2 -18.667 -0.333008 -37 -7 -55c-4.66699 -16 -9.5 -31 -14.5 -45l-15.5 -42.5c-5.33301 -14.333 -10.333 -29.833 -15 -46.5s-8.66699 -35.667 -12 -57c-0.666992 -3.33301 -1.83398 -7.16602 -3.50098 -11.499s-3.5 -7.16602 -5.5 -8.49902
c-3.33301 -6 -7.83301 -9.5 -13.5 -10.5s-10.834 1.16699 -15.501 6.5c-1.33301 2 -2.83301 4 -4.5 6s-3.16699 4.33301 -4.5 7c-6.66699 15.333 -10.834 32.666 -12.501 51.999s-1.33398 38.833 0.999023 58.5s7 38 14 55s15.833 31.167 26.5 42.5
c-1.33301 0 -3.66602 -1 -6.99902 -3l-11 -6.5l-11 -6.5c-3.33301 -2 -5.33301 -3 -6 -3l-27.5 -15c-9 -4.66699 -17.5 -9.66699 -25.5 -15c-38.667 -24.667 -74.834 -51 -108.501 -79s-64.5 -58.333 -92.5 -91c-18.667 -21.333 -36 -44.166 -52 -68.499
s-29.833 -49.666 -41.5 -75.999s-20.667 -53.166 -27 -80.499s-9.16602 -54.666 -8.49902 -81.999c0.666992 -20 3 -38.833 7 -56.5s10.667 -31.167 20 -40.5c14.667 -14 32.167 -20.5 52.5 -19.5s42.333 7 66 18s48.5 26.167 74.5 45.5s51.5 40.5 76.5 63.5s49 47 72 72
s43.833 48.833 62.5 71.5c4.66699 4 9.16699 9.66699 13.5 17s9.16602 13.333 14.499 18c5.33301 3.33301 9.83301 2.33301 13.5 -3s5.5 -10.666 5.5 -15.999c-1.33301 -28.667 -7.5 -54.834 -18.5 -78.501s-24.167 -45.5 -39.5 -65.5
c-18.667 -24 -40.667 -47.833 -66 -71.5s-52.333 -45.167 -81 -64.5s-58.334 -35 -89.001 -47s-60.334 -18 -89.001 -18v-5c0 -3.33301 -0.166992 -7 -0.5 -11s-0.5 -8.33301 -0.5 -13h28c10.667 0 20.5 -1.16699 29.5 -3.5s16.333 -6.33301 22 -12
s8.16699 -14.167 7.5 -25.5c-1.33301 -13.333 -5.5 -25.333 -12.5 -36s-15.833 -20 -26.5 -28c-34.667 -27.333 -70.334 -28.666 -107.001 -3.99902c-8 4.66699 -12.833 8.5 -14.5 11.5s-1.5 5.33301 0.5 7s5.16699 2.83398 9.5 3.50098s9.16602 1 14.499 1z" />
    <glyph glyph-name="Egrave" unicode="&#xc8;" horiz-adv-x="624" 
d="M93 -4c-9.33301 3.33301 -18.002 7.50488 -26.002 12.5049s-15 11.167 -21 18.5c-9.33301 8 -16.333 16.833 -21 26.5l-14 28.5c-4 11.333 -6.33301 22.666 -7 33.999s-0.333984 23 0.999023 35c2 13.333 5.33301 26 10 38s10 23.667 16 35
c16 26.667 35.833 50.5 59.5 71.5s48.5 38.833 74.5 53.5c1.33301 1.33301 2.33301 2.16602 3 2.49902s1.66699 1.16602 3 2.49902l-10.5 9c-3 2.66699 -6.16699 5.66699 -9.5 9c0 1.33301 -0.5 2.5 -1.5 3.5l-3.5 3.5c-7.33301 12 -11.166 24.5 -11.499 37.5
s1.83398 26.167 6.50098 39.5c8 23.333 20.167 46.333 36.5 69s35.333 44.5 57 65.5s45 40.5 70 58.5s50 33.833 75 47.5s49.333 24.834 73 33.501s44.834 13.667 63.501 15c21.333 2 39.333 -1.66699 54 -11c9.33301 -4.66699 18 -10.167 26 -16.5
s11.333 -15.166 10 -26.499c-5.33301 -34 -9 -67.167 -11 -99.5s-3 -65.166 -3 -98.499c-1.33301 -4 -2 -7.66699 -2 -11s-2.33301 -5.66602 -7 -6.99902c-10 -3.33301 -19.667 -0.333008 -29 9c-13.333 12.667 -23 26.167 -29 40.5s-9.66699 29 -11 44
s-0.666016 30.167 2.00098 45.5s6.33398 30.666 11.001 45.999c-1.33301 3.33301 -8 4 -20 2c-15.333 -2.66699 -32.5 -8.33398 -51.5 -17.001s-39 -19.167 -60 -31.5s-41.667 -26 -62 -41s-39.333 -30.333 -57 -46s-33 -31.334 -46 -47.001s-22.167 -29.834 -27.5 -42.501
c-4 -9.33301 -4.5 -17.333 -1.5 -24s11.833 -10 26.5 -10c14 0 28 1.5 42 4.5s29.5 7.5 46.5 13.5s36.333 13.667 58 23l76.5 34c10 2.66699 15.5 0.666992 16.5 -6s0.166992 -14.5 -2.5 -23.5s-6.33398 -17.667 -11.001 -26s-8 -13.5 -10 -15.5
c-10.667 -8.66699 -23 -16.5 -37 -23.5s-28.5 -13.833 -43.5 -20.5l-44 -20.5c-14.333 -7 -27.166 -14.5 -38.499 -22.5l-41 -29c-16 -11.333 -32.5 -23.666 -49.5 -36.999s-33.333 -27.666 -49 -42.999s-28.834 -30.833 -39.501 -46.5s-17.5 -31.334 -20.5 -47.001
s-0.5 -30.834 7.5 -45.501c4.66699 -8.66699 12.834 -14.334 24.501 -17.001s25.167 -3.16699 40.5 -1.5s32.166 5 50.499 10s36.833 11.167 55.5 18.5c50 19.333 96.5 40.166 139.5 62.499s83.5 47.166 121.5 74.499c6.66699 4.66699 12.667 9.66699 18 15
c1.33301 2 3 1.33301 5 -2s3.66699 -7.83301 5 -13.5s2.5 -12 3.5 -19s1.5 -13.833 1.5 -20.5c-2 -22.667 -11.333 -42.667 -28 -60s-37 -32.666 -61 -45.999c-28 -16 -57.333 -30.5 -88 -43.5s-61.834 -23.5 -93.501 -31.5s-63.667 -12.5 -96 -13.5
s-63.833 2.83301 -94.5 11.5zM430.998 808.005c-6.66699 4 -15.1631 9.49902 -25.4961 16.499s-20.5 14.833 -30.5 23.5s-18.5 17.5 -25.5 26.5s-10.5 17.167 -10.5 24.5c0 6 2.66699 10.667 8 14s10.666 2.66602 15.999 -2.00098c20 -15.333 38.333 -31.666 55 -48.999
c7.33301 -7.33301 14.666 -15.166 21.999 -23.499l22 -25.5c8 -12 11.667 -19.333 11 -22s-3.33398 -3.16699 -8.00098 -1.5s-10.334 4.5 -17.001 8.5z" />
    <glyph glyph-name="Eacute" unicode="&#xc9;" horiz-adv-x="624" 
d="M93 -4c-9.33301 3.33301 -18.002 7.50488 -26.002 12.5049s-15 11.167 -21 18.5c-9.33301 8 -16.333 16.833 -21 26.5l-14 28.5c-4 11.333 -6.33301 22.666 -7 33.999s-0.333984 23 0.999023 35c2 13.333 5.33301 26 10 38s10 23.667 16 35
c16 26.667 35.833 50.5 59.5 71.5s48.5 38.833 74.5 53.5c1.33301 1.33301 2.33301 2.16602 3 2.49902s1.66699 1.16602 3 2.49902l-10.5 9c-3 2.66699 -6.16699 5.66699 -9.5 9c0 1.33301 -0.5 2.5 -1.5 3.5l-3.5 3.5c-7.33301 12 -11.166 24.5 -11.499 37.5
s1.83398 26.167 6.50098 39.5c8 23.333 20.167 46.333 36.5 69s35.333 44.5 57 65.5s45 40.5 70 58.5s50 33.833 75 47.5s49.333 24.834 73 33.501s44.834 13.667 63.501 15c21.333 2 39.333 -1.66699 54 -11c9.33301 -4.66699 18 -10.167 26 -16.5
s11.333 -15.166 10 -26.499c-5.33301 -34 -9 -67.167 -11 -99.5s-3 -65.166 -3 -98.499c-1.33301 -4 -2 -7.66699 -2 -11s-2.33301 -5.66602 -7 -6.99902c-10 -3.33301 -19.667 -0.333008 -29 9c-13.333 12.667 -23 26.167 -29 40.5s-9.66699 29 -11 44
s-0.666016 30.167 2.00098 45.5s6.33398 30.666 11.001 45.999c-1.33301 3.33301 -8 4 -20 2c-15.333 -2.66699 -32.5 -8.33398 -51.5 -17.001s-39 -19.167 -60 -31.5s-41.667 -26 -62 -41s-39.333 -30.333 -57 -46s-33 -31.334 -46 -47.001s-22.167 -29.834 -27.5 -42.501
c-4 -9.33301 -4.5 -17.333 -1.5 -24s11.833 -10 26.5 -10c14 0 28 1.5 42 4.5s29.5 7.5 46.5 13.5s36.333 13.667 58 23l76.5 34c10 2.66699 15.5 0.666992 16.5 -6s0.166992 -14.5 -2.5 -23.5s-6.33398 -17.667 -11.001 -26s-8 -13.5 -10 -15.5
c-10.667 -8.66699 -23 -16.5 -37 -23.5s-28.5 -13.833 -43.5 -20.5l-44 -20.5c-14.333 -7 -27.166 -14.5 -38.499 -22.5l-41 -29c-16 -11.333 -32.5 -23.666 -49.5 -36.999s-33.333 -27.666 -49 -42.999s-28.834 -30.833 -39.501 -46.5s-17.5 -31.334 -20.5 -47.001
s-0.5 -30.834 7.5 -45.501c4.66699 -8.66699 12.834 -14.334 24.501 -17.001s25.167 -3.16699 40.5 -1.5s32.166 5 50.499 10s36.833 11.167 55.5 18.5c50 19.333 96.5 40.166 139.5 62.499s83.5 47.166 121.5 74.499c6.66699 4.66699 12.667 9.66699 18 15
c1.33301 2 3 1.33301 5 -2s3.66699 -7.83301 5 -13.5s2.5 -12 3.5 -19s1.5 -13.833 1.5 -20.5c-2 -22.667 -11.333 -42.667 -28 -60s-37 -32.666 -61 -45.999c-28 -16 -57.333 -30.5 -88 -43.5s-61.834 -23.5 -93.501 -31.5s-63.667 -12.5 -96 -13.5
s-63.833 2.83301 -94.5 11.5zM424.998 804.005l-16.9961 -9.99902c-6.66699 -4 -12.334 -6.83301 -17.001 -8.5s-7.33398 -1.16699 -8.00098 1.5s3 10 11 22l22 25.5c7.33301 8.33301 14.666 16.166 21.999 23.499c16.667 17.333 35 33.666 55 48.999
c5.33301 4.66699 10.666 5.33398 15.999 2.00098s8 -8 8 -14c0 -7.33301 -3.5 -15.5 -10.5 -24.5s-15.5 -17.833 -25.5 -26.5s-20.167 -16.5 -30.5 -23.5s-18.833 -12.5 -25.5 -16.5z" />
    <glyph glyph-name="Ecircumflex" unicode="&#xca;" horiz-adv-x="624" 
d="M93 -4c-9.33301 3.33301 -18.002 7.50488 -26.002 12.5049s-15 11.167 -21 18.5c-9.33301 8 -16.333 16.833 -21 26.5l-14 28.5c-4 11.333 -6.33301 22.666 -7 33.999s-0.333984 23 0.999023 35c2 13.333 5.33301 26 10 38s10 23.667 16 35
c16 26.667 35.833 50.5 59.5 71.5s48.5 38.833 74.5 53.5c1.33301 1.33301 2.33301 2.16602 3 2.49902s1.66699 1.16602 3 2.49902l-10.5 9c-3 2.66699 -6.16699 5.66699 -9.5 9c0 1.33301 -0.5 2.5 -1.5 3.5l-3.5 3.5c-7.33301 12 -11.166 24.5 -11.499 37.5
s1.83398 26.167 6.50098 39.5c8 23.333 20.167 46.333 36.5 69s35.333 44.5 57 65.5s45 40.5 70 58.5s50 33.833 75 47.5s49.333 24.834 73 33.501s44.834 13.667 63.501 15c21.333 2 39.333 -1.66699 54 -11c9.33301 -4.66699 18 -10.167 26 -16.5
s11.333 -15.166 10 -26.499c-5.33301 -34 -9 -67.167 -11 -99.5s-3 -65.166 -3 -98.499c-1.33301 -4 -2 -7.66699 -2 -11s-2.33301 -5.66602 -7 -6.99902c-10 -3.33301 -19.667 -0.333008 -29 9c-13.333 12.667 -23 26.167 -29 40.5s-9.66699 29 -11 44
s-0.666016 30.167 2.00098 45.5s6.33398 30.666 11.001 45.999c-1.33301 3.33301 -8 4 -20 2c-15.333 -2.66699 -32.5 -8.33398 -51.5 -17.001s-39 -19.167 -60 -31.5s-41.667 -26 -62 -41s-39.333 -30.333 -57 -46s-33 -31.334 -46 -47.001s-22.167 -29.834 -27.5 -42.501
c-4 -9.33301 -4.5 -17.333 -1.5 -24s11.833 -10 26.5 -10c14 0 28 1.5 42 4.5s29.5 7.5 46.5 13.5s36.333 13.667 58 23l76.5 34c10 2.66699 15.5 0.666992 16.5 -6s0.166992 -14.5 -2.5 -23.5s-6.33398 -17.667 -11.001 -26s-8 -13.5 -10 -15.5
c-10.667 -8.66699 -23 -16.5 -37 -23.5s-28.5 -13.833 -43.5 -20.5l-44 -20.5c-14.333 -7 -27.166 -14.5 -38.499 -22.5l-41 -29c-16 -11.333 -32.5 -23.666 -49.5 -36.999s-33.333 -27.666 -49 -42.999s-28.834 -30.833 -39.501 -46.5s-17.5 -31.334 -20.5 -47.001
s-0.5 -30.834 7.5 -45.501c4.66699 -8.66699 12.834 -14.334 24.501 -17.001s25.167 -3.16699 40.5 -1.5s32.166 5 50.499 10s36.833 11.167 55.5 18.5c50 19.333 96.5 40.166 139.5 62.499s83.5 47.166 121.5 74.499c6.66699 4.66699 12.667 9.66699 18 15
c1.33301 2 3 1.33301 5 -2s3.66699 -7.83301 5 -13.5s2.5 -12 3.5 -19s1.5 -13.833 1.5 -20.5c-2 -22.667 -11.333 -42.667 -28 -60s-37 -32.666 -61 -45.999c-28 -16 -57.333 -30.5 -88 -43.5s-61.834 -23.5 -93.501 -31.5s-63.667 -12.5 -96 -13.5
s-63.833 2.83301 -94.5 11.5zM505.998 800.005c-7.33301 5.33301 -14.165 14.4971 -20.498 27.4971s-14.833 25.833 -25.5 38.5c-13.333 -13.333 -25.5 -27 -36.5 -41s-23.167 -26.667 -36.5 -38c-6 -5.33301 -12 -7.33301 -18 -6s-11 4.33301 -15 9
s-6.5 10.334 -7.5 17.001s0.833008 12.667 5.5 18c10 11.333 19.667 22.833 29 34.5s19 23.167 29 34.5c10.667 13.333 23.667 20.333 39 21s28.666 -7.66602 39.999 -24.999c9.33301 -13.333 17.166 -27.666 23.499 -42.999s10.833 -30.333 13.5 -45
c2 -5.33301 2.66699 -8.83301 2 -10.5s-2.16699 -2.16699 -4.5 -1.5s-5 2 -8 4s-6.16699 4 -9.5 6z" />
    <glyph glyph-name="Edieresis" unicode="&#xcb;" horiz-adv-x="624" 
d="M93 -4c-9.33301 3.33301 -18.002 7.50488 -26.002 12.5049s-15 11.167 -21 18.5c-9.33301 8 -16.333 16.833 -21 26.5l-14 28.5c-4 11.333 -6.33301 22.666 -7 33.999s-0.333984 23 0.999023 35c2 13.333 5.33301 26 10 38s10 23.667 16 35
c16 26.667 35.833 50.5 59.5 71.5s48.5 38.833 74.5 53.5c1.33301 1.33301 2.33301 2.16602 3 2.49902s1.66699 1.16602 3 2.49902l-10.5 9c-3 2.66699 -6.16699 5.66699 -9.5 9c0 1.33301 -0.5 2.5 -1.5 3.5l-3.5 3.5c-7.33301 12 -11.166 24.5 -11.499 37.5
s1.83398 26.167 6.50098 39.5c8 23.333 20.167 46.333 36.5 69s35.333 44.5 57 65.5s45 40.5 70 58.5s50 33.833 75 47.5s49.333 24.834 73 33.501s44.834 13.667 63.501 15c21.333 2 39.333 -1.66699 54 -11c9.33301 -4.66699 18 -10.167 26 -16.5
s11.333 -15.166 10 -26.499c-5.33301 -34 -9 -67.167 -11 -99.5s-3 -65.166 -3 -98.499c-1.33301 -4 -2 -7.66699 -2 -11s-2.33301 -5.66602 -7 -6.99902c-10 -3.33301 -19.667 -0.333008 -29 9c-13.333 12.667 -23 26.167 -29 40.5s-9.66699 29 -11 44
s-0.666016 30.167 2.00098 45.5s6.33398 30.666 11.001 45.999c-1.33301 3.33301 -8 4 -20 2c-15.333 -2.66699 -32.5 -8.33398 -51.5 -17.001s-39 -19.167 -60 -31.5s-41.667 -26 -62 -41s-39.333 -30.333 -57 -46s-33 -31.334 -46 -47.001s-22.167 -29.834 -27.5 -42.501
c-4 -9.33301 -4.5 -17.333 -1.5 -24s11.833 -10 26.5 -10c14 0 28 1.5 42 4.5s29.5 7.5 46.5 13.5s36.333 13.667 58 23l76.5 34c10 2.66699 15.5 0.666992 16.5 -6s0.166992 -14.5 -2.5 -23.5s-6.33398 -17.667 -11.001 -26s-8 -13.5 -10 -15.5
c-10.667 -8.66699 -23 -16.5 -37 -23.5s-28.5 -13.833 -43.5 -20.5l-44 -20.5c-14.333 -7 -27.166 -14.5 -38.499 -22.5l-41 -29c-16 -11.333 -32.5 -23.666 -49.5 -36.999s-33.333 -27.666 -49 -42.999s-28.834 -30.833 -39.501 -46.5s-17.5 -31.334 -20.5 -47.001
s-0.5 -30.834 7.5 -45.501c4.66699 -8.66699 12.834 -14.334 24.501 -17.001s25.167 -3.16699 40.5 -1.5s32.166 5 50.499 10s36.833 11.167 55.5 18.5c50 19.333 96.5 40.166 139.5 62.499s83.5 47.166 121.5 74.499c6.66699 4.66699 12.667 9.66699 18 15
c1.33301 2 3 1.33301 5 -2s3.66699 -7.83301 5 -13.5s2.5 -12 3.5 -19s1.5 -13.833 1.5 -20.5c-2 -22.667 -11.333 -42.667 -28 -60s-37 -32.666 -61 -45.999c-28 -16 -57.333 -30.5 -88 -43.5s-61.834 -23.5 -93.501 -31.5s-63.667 -12.5 -96 -13.5
s-63.833 2.83301 -94.5 11.5zM401.998 783.005c-28.667 2 -43 13.332 -43 33.999c0.666992 12.667 5.5 23.667 14.5 33s19.833 14 32.5 14c10 0 18.333 -3.66699 25 -11s9.66699 -15.666 9 -24.999c-1.33301 -13.333 -5 -24.333 -11 -33s-15 -12.667 -27 -12z
M521.998 783.004c-28.667 2 -43 13.332 -43 33.999c0.666992 12.667 5.5 23.667 14.5 33s19.833 14 32.5 14c10 0 18.333 -3.66699 25 -11s9.66699 -15.666 9 -24.999c-1.33301 -13.333 -5 -24.333 -11 -33s-15 -12.667 -27 -12z" />
    <glyph glyph-name="Igrave" unicode="&#xcc;" horiz-adv-x="467" 
d="M301 625l-87.002 -29.499c-26 -9 -52.667 -20.167 -80 -33.5c-11.333 -6 -20 -5 -26 3c-5.33301 13.333 -5.5 26.666 -0.5 39.999s13.167 24.666 24.5 33.999c24.667 18.667 57 35 97 49s81.5 24.667 124.5 32s85 10.833 126 10.5s74.833 -5.5 101.5 -15.5
c10 -3.33301 16.833 -10 20.5 -20s3.83398 -20 0.500977 -30c-1.33301 -5.33301 -4.5 -10.333 -9.5 -15s-10.5 -8.33398 -16.5 -11.001s-12.333 -4 -19 -4s-12.667 2 -18 6c-3.33301 2.66699 -7.66602 4.33398 -12.999 5.00098s-10.333 1.33398 -15 2.00098
c-16 0.666992 -35.167 0.666992 -57.5 0s-43.166 -2.66699 -62.499 -6l-27.5 -74.5l-27.5 -72.5c-14.667 -37.333 -28.5 -74.666 -41.5 -111.999s-24.333 -74.833 -34 -112.5s-17.334 -75.5 -23.001 -113.5s-8.5 -76.667 -8.5 -116c19.333 0.666992 38.333 1 57 1
s36.667 -2 54 -6c32 -8 61.667 -23 89 -45c4 -4 7.33301 -9.33301 10 -16s0.333984 -11 -6.99902 -13c-3.33301 -0.666992 -7 -1 -11 -1h-11c-59.333 4 -116.833 5.66699 -172.5 5s-111.834 -8.33398 -168.501 -23.001c-5.33301 -1.33301 -10.166 -2.83301 -14.499 -4.5
l-14.5 -5.5c-12.667 -5.33301 -22.334 -4.16602 -29.001 3.50098s-9 17.167 -7 28.5c1.33301 10.667 5.33301 18.5 12 23.5s13.667 9.16699 21 12.5c21.333 9.33301 42.333 15.833 63 19.5s41.334 8.16699 62.001 13.5c-10.667 41.333 -14.334 83.166 -11.001 125.499
s10.833 84.333 22.5 126s25.5 82.834 41.5 123.501l46 118l22 52c6.66699 15.333 12.667 30.666 18 45.999zM366.998 799.001c-6.66699 4 -15.1631 9.49902 -25.4961 16.499s-20.5 14.833 -30.5 23.5s-18.5 17.5 -25.5 26.5s-10.5 17.167 -10.5 24.5
c0 6 2.66699 10.667 8 14s10.666 2.66602 15.999 -2.00098c20 -15.333 38.333 -31.666 55 -48.999c7.33301 -7.33301 14.666 -15.166 21.999 -23.499l22 -25.5c8 -12 11.667 -19.333 11 -22s-3.33398 -3.16699 -8.00098 -1.5s-10.334 4.5 -17.001 8.5z" />
    <glyph glyph-name="Iacute" unicode="&#xcd;" horiz-adv-x="467" 
d="M301 625l-87.002 -29.499c-26 -9 -52.667 -20.167 -80 -33.5c-11.333 -6 -20 -5 -26 3c-5.33301 13.333 -5.5 26.666 -0.5 39.999s13.167 24.666 24.5 33.999c24.667 18.667 57 35 97 49s81.5 24.667 124.5 32s85 10.833 126 10.5s74.833 -5.5 101.5 -15.5
c10 -3.33301 16.833 -10 20.5 -20s3.83398 -20 0.500977 -30c-1.33301 -5.33301 -4.5 -10.333 -9.5 -15s-10.5 -8.33398 -16.5 -11.001s-12.333 -4 -19 -4s-12.667 2 -18 6c-3.33301 2.66699 -7.66602 4.33398 -12.999 5.00098s-10.333 1.33398 -15 2.00098
c-16 0.666992 -35.167 0.666992 -57.5 0s-43.166 -2.66699 -62.499 -6l-27.5 -74.5l-27.5 -72.5c-14.667 -37.333 -28.5 -74.666 -41.5 -111.999s-24.333 -74.833 -34 -112.5s-17.334 -75.5 -23.001 -113.5s-8.5 -76.667 -8.5 -116c19.333 0.666992 38.333 1 57 1
s36.667 -2 54 -6c32 -8 61.667 -23 89 -45c4 -4 7.33301 -9.33301 10 -16s0.333984 -11 -6.99902 -13c-3.33301 -0.666992 -7 -1 -11 -1h-11c-59.333 4 -116.833 5.66699 -172.5 5s-111.834 -8.33398 -168.501 -23.001c-5.33301 -1.33301 -10.166 -2.83301 -14.499 -4.5
l-14.5 -5.5c-12.667 -5.33301 -22.334 -4.16602 -29.001 3.50098s-9 17.167 -7 28.5c1.33301 10.667 5.33301 18.5 12 23.5s13.667 9.16699 21 12.5c21.333 9.33301 42.333 15.833 63 19.5s41.334 8.16699 62.001 13.5c-10.667 41.333 -14.334 83.166 -11.001 125.499
s10.833 84.333 22.5 126s25.5 82.834 41.5 123.501l46 118l22 52c6.66699 15.333 12.667 30.666 18 45.999zM378.998 796.001l-16.9961 -9.99902c-6.66699 -4 -12.334 -6.83301 -17.001 -8.5s-7.33398 -1.16699 -8.00098 1.5s3 10 11 22l22 25.5
c7.33301 8.33301 14.666 16.166 21.999 23.499c16.667 17.333 35 33.666 55 48.999c5.33301 4.66699 10.666 5.33398 15.999 2.00098s8 -8 8 -14c0 -7.33301 -3.5 -15.5 -10.5 -24.5s-15.5 -17.833 -25.5 -26.5s-20.167 -16.5 -30.5 -23.5s-18.833 -12.5 -25.5 -16.5z" />
    <glyph glyph-name="Icircumflex" unicode="&#xce;" horiz-adv-x="467" 
d="M301 625l-87.002 -29.499c-26 -9 -52.667 -20.167 -80 -33.5c-11.333 -6 -20 -5 -26 3c-5.33301 13.333 -5.5 26.666 -0.5 39.999s13.167 24.666 24.5 33.999c24.667 18.667 57 35 97 49s81.5 24.667 124.5 32s85 10.833 126 10.5s74.833 -5.5 101.5 -15.5
c10 -3.33301 16.833 -10 20.5 -20s3.83398 -20 0.500977 -30c-1.33301 -5.33301 -4.5 -10.333 -9.5 -15s-10.5 -8.33398 -16.5 -11.001s-12.333 -4 -19 -4s-12.667 2 -18 6c-3.33301 2.66699 -7.66602 4.33398 -12.999 5.00098s-10.333 1.33398 -15 2.00098
c-16 0.666992 -35.167 0.666992 -57.5 0s-43.166 -2.66699 -62.499 -6l-27.5 -74.5l-27.5 -72.5c-14.667 -37.333 -28.5 -74.666 -41.5 -111.999s-24.333 -74.833 -34 -112.5s-17.334 -75.5 -23.001 -113.5s-8.5 -76.667 -8.5 -116c19.333 0.666992 38.333 1 57 1
s36.667 -2 54 -6c32 -8 61.667 -23 89 -45c4 -4 7.33301 -9.33301 10 -16s0.333984 -11 -6.99902 -13c-3.33301 -0.666992 -7 -1 -11 -1h-11c-59.333 4 -116.833 5.66699 -172.5 5s-111.834 -8.33398 -168.501 -23.001c-5.33301 -1.33301 -10.166 -2.83301 -14.499 -4.5
l-14.5 -5.5c-12.667 -5.33301 -22.334 -4.16602 -29.001 3.50098s-9 17.167 -7 28.5c1.33301 10.667 5.33301 18.5 12 23.5s13.667 9.16699 21 12.5c21.333 9.33301 42.333 15.833 63 19.5s41.334 8.16699 62.001 13.5c-10.667 41.333 -14.334 83.166 -11.001 125.499
s10.833 84.333 22.5 126s25.5 82.834 41.5 123.501l46 118l22 52c6.66699 15.333 12.667 30.666 18 45.999zM453.998 796.001c-7.33301 5.33301 -14.165 14.4971 -20.498 27.4971s-14.833 25.833 -25.5 38.5c-13.333 -13.333 -25.5 -27 -36.5 -41s-23.167 -26.667 -36.5 -38
c-6 -5.33301 -12 -7.33301 -18 -6s-11 4.33301 -15 9s-6.5 10.334 -7.5 17.001s0.833008 12.667 5.5 18c10 11.333 19.667 22.833 29 34.5s19 23.167 29 34.5c10.667 13.333 23.667 20.333 39 21s28.666 -7.66602 39.999 -24.999
c9.33301 -13.333 17.166 -27.666 23.499 -42.999s10.833 -30.333 13.5 -45c2 -5.33301 2.66699 -8.83301 2 -10.5s-2.16699 -2.16699 -4.5 -1.5s-5 2 -8 4s-6.16699 4 -9.5 6z" />
    <glyph glyph-name="Idieresis" unicode="&#xcf;" horiz-adv-x="467" 
d="M301 625l-87.002 -29.499c-26 -9 -52.667 -20.167 -80 -33.5c-11.333 -6 -20 -5 -26 3c-5.33301 13.333 -5.5 26.666 -0.5 39.999s13.167 24.666 24.5 33.999c24.667 18.667 57 35 97 49s81.5 24.667 124.5 32s85 10.833 126 10.5s74.833 -5.5 101.5 -15.5
c10 -3.33301 16.833 -10 20.5 -20s3.83398 -20 0.500977 -30c-1.33301 -5.33301 -4.5 -10.333 -9.5 -15s-10.5 -8.33398 -16.5 -11.001s-12.333 -4 -19 -4s-12.667 2 -18 6c-3.33301 2.66699 -7.66602 4.33398 -12.999 5.00098s-10.333 1.33398 -15 2.00098
c-16 0.666992 -35.167 0.666992 -57.5 0s-43.166 -2.66699 -62.499 -6l-27.5 -74.5l-27.5 -72.5c-14.667 -37.333 -28.5 -74.666 -41.5 -111.999s-24.333 -74.833 -34 -112.5s-17.334 -75.5 -23.001 -113.5s-8.5 -76.667 -8.5 -116c19.333 0.666992 38.333 1 57 1
s36.667 -2 54 -6c32 -8 61.667 -23 89 -45c4 -4 7.33301 -9.33301 10 -16s0.333984 -11 -6.99902 -13c-3.33301 -0.666992 -7 -1 -11 -1h-11c-59.333 4 -116.833 5.66699 -172.5 5s-111.834 -8.33398 -168.501 -23.001c-5.33301 -1.33301 -10.166 -2.83301 -14.499 -4.5
l-14.5 -5.5c-12.667 -5.33301 -22.334 -4.16602 -29.001 3.50098s-9 17.167 -7 28.5c1.33301 10.667 5.33301 18.5 12 23.5s13.667 9.16699 21 12.5c21.333 9.33301 42.333 15.833 63 19.5s41.334 8.16699 62.001 13.5c-10.667 41.333 -14.334 83.166 -11.001 125.499
s10.833 84.333 22.5 126s25.5 82.834 41.5 123.501l46 118l22 52c6.66699 15.333 12.667 30.666 18 45.999zM332.998 781.001c-28.667 2 -43 13.332 -43 33.999c0.666992 12.667 5.5 23.667 14.5 33s19.833 14 32.5 14c10 0 18.333 -3.66699 25 -11
s9.66699 -15.666 9 -24.999c-1.33301 -13.333 -5 -24.333 -11 -33s-15 -12.667 -27 -12zM452.998 781c-28.667 2 -43 13.332 -43 33.999c0.666992 12.667 5.5 23.667 14.5 33s19.833 14 32.5 14c10 0 18.333 -3.66699 25 -11s9.66699 -15.666 9 -24.999
c-1.33301 -13.333 -5 -24.333 -11 -33s-15 -12.667 -27 -12z" />
    </font>
</defs>
</svg>
